<?xml version="1.0" encoding="utf-8"?>
<!-- Generator: Adobe Illustrator 16.0.0, SVG Export Plug-In . SVG Version: 6.00 Build 0)  -->
<!DOCTYPE svg PUBLIC "-//W3C//DTD SVG 1.1//EN" "http://www.w3.org/Graphics/SVG/1.1/DTD/svg11.dtd">
<svg version="1.1" id="Layer_1" xmlns="http://www.w3.org/2000/svg" xmlns:xlink="http://www.w3.org/1999/xlink" x="0px" y="0px"
	 width="80px" height="80px" viewBox="0 0 80 80" enable-background="new 0 0 80 80" xml:space="preserve">
<g>
	<path fill-rule="evenodd" clip-rule="evenodd" d="M30.573,27.172c1.514,0.319,1.769,0.871,0.859,2.095
		c-0.385,0.517-0.441,1.319-1.222,1.526c-0.036,0.009-0.086,0.123-0.069,0.156c0.423,0.812-0.523,1.591-0.05,2.396
		c0.038,0.063,0.164,0.131,0.223,0.113c0.24-0.072,0.208-0.279,0.185-0.468c-0.028-0.229-0.277-0.597,0.048-0.642
		c0.325-0.045,0.293,0.387,0.323,0.657c0.047,0.418,0.207,0.72,0.554,1.03c0.461,0.409,0.437,1.224,1.265,1.43
		c0.305,0.076-0.099,0.373-0.266,0.515c-0.137,0.116-0.454,0.119-0.42,0.312c0.048,0.272,0.363,0.163,0.562,0.196
		c0.342,0.059,0.69,0.117,1.036,0.119c0.322,0.003,0.917,0.196,0.899-0.172c-0.024-0.497,0.725-1.068-0.074-1.519
		c-0.203-0.114-0.307-0.267,0.063-0.314c0.498-0.064,0.517-0.456,0.58-0.843c0.093-0.578-0.196-1.13,0.012-1.759
		c0.09-0.271-0.558-0.787-0.87-1.191c-0.154-0.199-0.343-0.379-0.457-0.599c-0.484-0.928-0.125-1.635,0.902-1.75
		c0.592-0.066,1.171,0.258,1.78,0.11c0.051-0.013,0.174,0.091,0.193,0.159c0.037,0.144-0.066,0.243-0.201,0.264
		c-0.218,0.033-0.44,0.032-0.659,0.061c-0.147,0.019-0.357,0.002-0.345,0.221c0.003,0.068,0.178,0.149,0.287,0.186
		c1.487,0.499,2.998,0.254,4.502,0.112c0.158-0.015,0.421-0.059,0.378-0.322c-0.047-0.284-0.271-0.265-0.514-0.256
		c-0.788,0.03-1.578,0.032-2.367,0.031c-0.169-0.001-0.434,0.032-0.412-0.244c0.015-0.184,0.232-0.196,0.387-0.177
		c1.397,0.177,2.773,0.129,4.119-0.33c0.419-0.143,0.728,0.158,0.632,0.447c-0.335,1.018,0.497,1.418,0.98,1.956
		c0.263,0.291,0.346,0.303-0.056,0.427c-0.331,0.102-0.637,0.291-0.969,0.378c-0.677,0.177-0.532,0.685-0.499,1.146
		c0.035,0.506,0.387,0.59,0.807,0.572c0.38-0.017,0.763,0.003,1.138-0.04c0.533-0.062,0.831-0.402,0.687-0.919
		c-0.283-1.003,0.008-2.002-0.055-3.001c-0.021-0.331-0.029-0.606-0.315-0.834c-0.662-0.528-0.88-1.244-0.943-2.076
		c-0.107-1.39-0.161-2.781-0.101-4.17c0.072-1.62,0.637-2.274,2.223-2.591c0.507-0.101,0.884-0.451,1.343-0.588
		c2.09-0.623,3.944,0.646,4.282,2.805c0.213,1.362,0.104,2.721,0.009,4.064c-0.037,0.522-0.117,1.416-1.062,1.493
		c-0.158,0.013-0.321,0.193-0.273,0.338c0.301,0.924-0.51,1.099-0.993,1.442c-0.841,0.598-0.863,0.637-0.201,1.479
		c0.485,0.617,0.247,1.428,0.077,1.957c-0.16,0.495-0.888,0.997-1.639,1.027c-0.158,0.006-0.318,0.02-0.47,0.055
		c-0.388,0.09-1.035,0.159-0.912,0.577c0.105,0.354,0.562,0.874,1.137,0.828c0.501-0.039,1.002-0.167,1.388-0.539
		c0.091-0.088,0.162-0.196,0.249-0.287c1.044-1.083,2.104-0.905,2.549,0.52c0.196,0.633,0.511,0.714,0.939,0.475
		c0.407-0.229,1.01,0.122,1.286-0.553c0.119-0.293,0.461-0.016,0.5,0.257c0.073,0.53,0.113,1.068,0.121,1.604
		c0.006,0.24-0.037,0.539-0.434,0.444c-0.217-0.051-0.576,0.058-0.409-0.397c0.022-0.064-0.035-0.158-0.056-0.239
		c-0.268,0.253-0.584,0.473-0.789,0.769c-0.166,0.245,0.077,0.392,0.311,0.451c0.245,0.063,0.557,0.087,0.522,0.426
		c-0.037,0.386-0.398,0.356-0.669,0.366c-0.611,0.022-1.099,0.499-1.727,0.458c-0.137-0.009-0.283,0.165-0.204,0.242
		c0.529,0.513-0.031,1.377,0.621,1.849c0.107,0.077,0.174,0.284,0.172,0.428c-0.014,1.645,0.854,3.121,0.87,4.777
		c0.009,0.942,0.98,1.417,1.809,1.06c0.303-0.131,0.378-0.414,0.385-0.708c0.01-0.411-0.009-0.823-0.004-1.233
		c0.002-0.218-0.042-0.563,0.171-0.598c1.011-0.163,1.457-1.113,2.292-1.553c1.711-0.899,3.175-0.281,4.677,0.436
		c0.858,0.411,0.675,1.453,1.223,2.058c0.023,0.027-0.036,0.19-0.094,0.221c-0.241,0.13-0.63,0.198-0.439,0.569
		c0.138,0.266,0.515,0.174,0.79,0.19c0.976,0.062,1.955,0.156,2.933,0.155c0.586-0.004,1.289,0.257,1.679-0.518
		c0.117-0.235,0.373-0.082,0.456,0.076c0.179,0.337,0.826,0.354,0.634,0.93c-0.039,0.119-0.118,0.225-0.16,0.344
		c-0.08,0.23-0.266,0.462-0.053,0.703c0.049,0.055,0.184,0.084,0.257,0.06c0.329-0.108,0.242-0.41,0.25-0.644
		c0.029-0.871,0.549-1.196,1.335-1.304c0.76-0.104,1.514,0.012,2.269-0.018c0.215-0.007,0.485-0.023,0.475-0.333
		c-0.008-0.239-0.247-0.258-0.422-0.309c-0.31-0.089-0.622-0.109-0.932,0.012c-0.174,0.07-0.298,0.053-0.332-0.17
		c-0.034-0.222,0.098-0.334,0.264-0.268c0.622,0.25,1.488-0.197,1.894,0.722c0.14,0.315,0.588,0.261,0.849,0.082
		c0.299-0.206,0.529-0.177,0.754,0.044c0.262,0.256,0.225,0.576,0.101,0.884c-0.247,0.613-0.809,0.751-1.369,0.884
		c-0.177,0.043-0.465,0.027-0.442,0.251c0.032,0.321,0.403,0.226,0.532,0.168c0.79-0.364,0.906,0.281,1.027,0.726
		c0.149,0.554,0.272,1.083,0.679,1.522c0.239,0.257,0.215,0.609-0.01,0.877c-0.52,0.612-0.322,1.251-0.082,1.876
		c0.518,1.354,1.048,2.704,1.604,4.042c0.325,0.78,0.005,1.598,0.213,2.406c0.112,0.438-0.574,0.681-1.025,0.831
		c-1.273,0.42-2.604,0.538-3.93,0.56c-7.781,0.135-15.553-0.081-23.325-0.454c-4.613-0.22-9.221-0.47-13.82-0.848
		c-4.757-0.392-9.5-0.937-14.226-1.614c-4.381-0.629-8.771-1.202-13.126-1.999c-0.933-0.172-1.854-0.402-2.775-0.625
		c-1.635-0.396-2.12-1.188-1.893-2.894c0.119-0.892,0.589-1.649,0.826-2.497c0.378-1.354,1.092-2.628,0.611-4.107
		c-0.083-0.255,0.007-0.547,0.328-0.575c0.34-0.032,0.858-0.046,0.922,0.287c0.102,0.525,0.444,0.562,0.795,0.645
		c5.582,1.292,11.274,1.879,16.942,2.625c0.151,0.021,0.317,0.011,0.463-0.028c0.15-0.041,0.309-0.133,0.256-0.331
		c-0.042-0.154-0.188-0.11-0.313-0.117c-2.681-0.144-5.348-0.417-7.998-0.845c-0.776-0.126-1.51-0.349-2.157-0.889
		c-0.704-0.588-1.656-0.712-2.5-1.035c-0.202-0.078-0.485-0.018-0.442-0.336c0.038-0.273,0.309-0.31,0.524-0.294
		c0.376,0.025,0.748,0.117,1.123,0.154c0.558,0.057,1.124,0.053,1.273-0.651c0.143-0.677-0.367-1.019-0.847-1.255
		c-0.413-0.203-0.898-0.265-1.389-0.181c-0.913,0.154-1.813-0.027-2.721-0.126c-0.433-0.046-0.551-0.218-0.525-0.593
		c0.038-0.554,0.402-0.204,0.626-0.218c1.308-0.08,2.573,0.269,3.86,0.396c0.285,0.027,0.607,0.148,0.71-0.236
		c0.335-1.257,1.557-1.63,2.378-2.393c0.786-0.732,1.791-0.742,2.764-0.421c0.799,0.265,1.486,0.794,2.307,1.048
		c0.371,0.113,0.482,0.545,0.479,0.958c-0.006,0.474,0.02,0.948,0.038,1.422c0.037,0.979,1.044,1.187,1.521,1.825
		c0.241,0.322,1.215-0.688,1.281-1.502c0.037-0.44,0.088-0.902-0.001-1.324c-0.223-1.066,0.619-2.064,0.148-3.14
		c-0.087-0.199,0.151-0.322,0.331-0.396c0.365-0.153,0.347-0.316,0.137-0.644c-0.263-0.41-0.289-0.819,0.429-0.732
		c0.366,0.044,0.489-0.36,0.791-0.465c0.175-0.062,0.539-0.057,0.456-0.356c-0.085-0.308-0.352-0.112-0.556-0.064
		c-0.362,0.087-0.252-0.216-0.344-0.393c-0.465-0.893-0.141-1.76,0.021-2.639c0.115-0.622-0.387-1.371-1.021-1.559l0.013,0.01
		c-0.171-0.745-0.246-1.506-0.922-2.058c-0.369-0.302-0.433-0.839-0.351-1.318c0.076-0.435,0.301-0.755,0.842-0.657
		c1.865,0.342,3.736,0.018,5.604,0.032c0.305,0.002,0.623-0.083,0.913-0.188c0.231-0.083,0.075-0.252-0.003-0.38L30.573,27.172z
		 M68.157,52.423c1.919,0.507,3.851,0.351,5.783,0.104c0.136-0.019,0.372,0.062,0.342-0.162c-0.022-0.167-0.259-0.119-0.407-0.119
		c-1.569-0.007-3.14-0.009-4.709-0.01c-0.346,0-0.695-0.011-1,0.197c-1.289,0.003-2.578,0.007-3.867,0.014
		c-0.09,0-0.179,0.037-0.269,0.058c0.064,0.034,0.131,0.103,0.192,0.098C65.532,52.485,66.862,52.808,68.157,52.423z M46.897,48.363
		c-0.325-0.128-0.739-0.518-0.971-0.071c-0.181,0.347,0.225,0.58,0.602,0.64c0.955,0.455,2.411-0.124,2.644-1.083
		c0.098-0.401,0.043-0.838-0.298-1.127c-0.18-0.155-0.438-0.275-0.701-0.181c-0.101,0.038-0.227,0.162-0.236,0.258
		c-0.043,0.429,0.294,0.271,0.516,0.316c0.218,0.046,0.321,0.25,0.235,0.433c-0.132,0.275-0.312,0.538-0.52,0.759
		c-0.082,0.087-0.217-0.062-0.266-0.188c-0.105-0.263,0.126-0.751-0.339-0.753c-0.37,0-0.231,0.572-0.531,0.753
		C46.962,48.159,46.941,48.279,46.897,48.363z M41.477,42.087c0.063,1.259,0.12,2.515,0.198,3.771
		c0.014,0.215,0.083,0.441,0.182,0.634c0.144,0.279,0.393,0.381,0.564,0.051c0.315-0.609,0.771-1.214,0.598-1.941
		c-0.124-0.513-0.03-0.923,0.218-1.347c0.29-0.495,0.524-1.003,0.329-1.605c-0.119-0.366,0.136-0.608,0.362-0.813
		c0.666-0.604,0.683-0.73-0.128-1.117c-1.159-0.555-2.35-1.043-3.523-1.571c-0.422-0.189-1.046-0.419-0.798-0.947
		c0.223-0.472,0.77-0.19,1.145,0.08c0.182,0.131,0.342,0.128,0.5-0.042c0.132-0.141,0.167-0.235,0.1-0.471
		c-0.254-0.888-1.089-0.825-1.696-1.095c-0.638-0.284-0.423,0.432-0.636,0.66c-0.083,0.09-0.157,0.192-0.252,0.271
		c-0.512,0.422-0.556,1.073,0.049,1.375c0.77,0.381,1.447,1.077,2.438,0.921c0.277-0.044,0.32,0.097,0.163,0.337
		c-0.146,0.222-0.097,0.451-0.002,0.712C41.536,40.636,41.547,41.361,41.477,42.087z M55.849,51.393c0,0.005,0,0.012,0,0.017
		c0.158,0,0.32,0.024,0.474-0.005c0.194-0.037,0.527,0.085,0.534-0.206c0.004-0.186-0.316-0.13-0.497-0.137
		c-1.104-0.042-2.21-0.12-3.315-0.104c-4.079,0.057-8.148-0.231-12.21-0.494c-5.157-0.332-10.311-0.798-15.447-1.409
		c-0.117-0.014-0.239,0.023-0.36,0.037c0.096,0.07,0.186,0.186,0.288,0.199c0.469,0.06,0.943,0.077,1.413,0.133
		c5.272,0.623,10.557,1.129,15.857,1.425C47.003,51.096,51.427,51.217,55.849,51.393z M16.839,42.522
		c0.747-0.053,1.403-0.097,2.023-0.354c0.417-0.176,0.525-0.416,0.198-0.782c-0.146-0.163-0.272-0.344-0.395-0.526
		c-0.902-1.332-1.733-1.395-2.736-0.157c-0.345,0.426-1.206,0.808-0.979,1.232C15.294,42.579,16.232,42.385,16.839,42.522z
		 M57.778,48.792c-0.226-0.108-0.418-0.008-0.632,0.06c-0.467,0.15-0.828,0.373-0.691,0.932c0.168,0.693,0.427,0.208,0.664,0.032
		c0.019-0.014,0.108,0.044,0.149,0.085c0.616,0.618,1.243,0.464,1.843-0.003c0.665-0.521,0.807-1.241,0.625-2.028
		c-0.066-0.28-0.152-0.541-0.02-0.82c0.079-0.169,0.199-0.361-0.044-0.482c-0.275-0.134-0.633,0.024-0.63,0.224
		c0.016,0.854-0.831,0.65-1.191,1.028c-0.054,0.056-0.353-0.133-0.358,0.19c-0.003,0.229,0.133,0.329,0.329,0.398
		c0.155,0.055,0.451-0.025,0.412,0.245C58.202,48.891,57.972,48.874,57.778,48.792z M16.428,47.27
		c1.936,0.036,2.115-0.131,2.325-2.043c0.024-0.218,0.112-0.431,0.116-0.646c0.007-0.37-0.171-0.673-0.569-0.503
		c-0.473,0.201-1.021,0.295-1.317,0.84c-0.205,0.374-0.432,0.793-0.838,0.996c-0.468,0.233-0.854,0.685-0.777,1.071
		C15.477,47.532,16.12,47.156,16.428,47.27z M57.616,45.778c0.577,0.048,1.273-0.165,1.97-0.361
		c0.224-0.062,0.608-0.161,0.238-0.459c-0.511-0.412-0.713-1.035-1.161-1.479c-0.618-0.609-1.409-0.439-1.679,0.378
		c-0.099,0.305-0.222,0.581-0.426,0.829c-0.206,0.251-0.625,0.494-0.442,0.824c0.158,0.288,0.609,0.268,0.96,0.268
		C57.202,45.776,57.328,45.778,57.616,45.778z M69.043,49.398c-0.082,1.049,0.208,1.312,1.124,1.207
		c0.184-0.022,0.376,0.031,0.56,0.009c0.904-0.109,1.82,0.223,2.718-0.092c0.298-0.105,0.63-0.15,0.698-0.538
		c0.03-0.176-0.068-0.304-0.22-0.378c-0.33-0.165-0.527,0.021-0.715,0.264c-0.096,0.124-0.237,0.243-0.4,0.133
		c-0.138-0.092-0.046-0.218,0.027-0.32c0.104-0.146,0.121-0.293-0.029-0.414c-0.197-0.154-0.326,0.011-0.492,0.101
		c-0.735,0.398-1.402,0.213-1.782-0.431c-0.06-0.102-0.276-0.117-0.424-0.158c-0.208-0.06-0.424-0.092-0.629-0.16
		c-0.214-0.071-0.023-0.415-0.291-0.467c-0.025,0.217-0.048,0.433-0.073,0.65C69.086,49.055,69.055,49.305,69.043,49.398z
		 M34.913,43.747c-0.061-0.804,0.071-1.562-0.177-2.304c-0.101-0.302-0.19-0.543-0.546-0.513c-0.469,0.039-0.936,0.108-1.403,0.166
		c-0.084,0.011-0.198,0.009-0.181,0.138c0.003,0.026,0.111,0.068,0.158,0.057c0.831-0.204,1.335-0.143,0.779,0.886
		c-0.061,0.112,0.033,0.307,0.051,0.463c0.133,1.127,0.262,2.254,0.399,3.38c0.04,0.323-0.055,0.778,0.465,0.778
		c0.562-0.002,0.516-0.565,0.5-0.843C34.915,45.199,34.852,44.448,34.913,43.747z M30.677,45.65c0.001,0.21-0.18,0.446,0.04,0.62
		c0.093,0.075,1.312-0.726,1.286-0.848c-0.127-0.584,0.009-1.209-0.269-1.765c-0.199-0.395-0.198-0.744,0.016-1.154
		c0.386-0.744,0.106-1.102-0.728-1.095c-0.767,0.007-0.679,0.584-0.645,1.005C30.464,43.493,30.433,44.585,30.677,45.65z
		 M64.651,51.452c0,0.061,0,0.121,0,0.182c0.189,0,0.38,0.002,0.569,0c2.053-0.032,4.106-0.064,6.16-0.102
		c0.112-0.002,0.25,0.078,0.33-0.073c-0.108-0.045-0.216-0.105-0.33-0.128c-0.373-0.075-0.74,0.103-1.127-0.009
		c-1.514-0.438-3.07-0.119-4.603-0.225c-2.468-0.17-4.921,0.303-7.387,0.13c-0.158-0.013-0.438-0.18-0.451,0.08
		c-0.009,0.18,0.312,0.139,0.489,0.141C60.419,51.455,62.535,51.452,64.651,51.452z M38.854,44.608c0.007,0,0.015,0,0.023,0
		c0-0.536,0.031-1.076-0.009-1.608c-0.036-0.48-0.418-0.59-0.824-0.604c-0.247-0.008-0.567-0.062-0.632,0.259
		c-0.084,0.418,0.323,0.523,0.582,0.644c0.604,0.283,0.482,0.654,0.151,1.016c-0.524,0.573-0.447,1.287-0.484,1.958
		c-0.015,0.269,0.09,0.692,0.491,0.698c0.385,0.005,0.664-0.274,0.693-0.657C38.885,45.748,38.854,45.178,38.854,44.608z
		 M27.547,28.164c-0.694-0.043-1.389-0.058-2.065,0.139c-0.144,0.042-0.37-0.002-0.394,0.176c-0.034,0.25,0.23,0.271,0.393,0.314
		c1.404,0.381,2.815,0.261,4.225,0.033c0.226-0.037,0.439-0.157,0.375-0.443c-0.052-0.236-0.264-0.221-0.458-0.22
		C28.932,28.166,28.24,28.164,27.547,28.164z M46.98,20.038c0,0.001,0,0.004,0,0.007c-0.47,0.054-0.942,0.092-1.409,0.167
		c-0.206,0.033-0.513,0.034-0.552,0.278c-0.046,0.289,0.288,0.269,0.467,0.367c0.545,0.298,1.12,0.147,1.672,0.068
		c0.395-0.056,1.091,0.089,1.056-0.469c-0.025-0.427-0.714-0.365-1.14-0.427C47.044,20.023,47.012,20.035,46.98,20.038z
		 M48.116,36.646c0.249-0.04,0.441-0.069,0.634-0.099c-0.188-0.025-0.373-0.047-0.559-0.076c-0.5-0.078-1.005-0.136-1.496-0.247
		c-0.446-0.1-0.915-0.156-1.298-0.445c0.407-0.016,0.813-0.028,1.219-0.051c0.107-0.007,0.254,0.038,0.288-0.123
		c0.002-0.013-0.155-0.062-0.238-0.089c-0.914-0.291-1.766,0.114-2.641,0.247c-0.101,0.015-0.189,0.093-0.126,0.192
		c0.039,0.062,0.153,0.095,0.238,0.108C45.48,36.264,46.822,36.458,48.116,36.646z M71.25,46.742c0-0.025-0.002-0.05-0.002-0.075
		c-0.408,0-0.819-0.021-1.225,0.009c-0.227,0.017-0.589-0.034-0.577,0.318c0.009,0.266,0.317,0.254,0.535,0.25
		c1.164-0.021,2.317-0.16,3.465-0.355c0.148-0.025,0.339-0.044,0.303-0.256c-0.007-0.044-0.225-0.081-0.34-0.073
		C72.688,46.612,71.97,46.679,71.25,46.742z M47.921,40.77c-0.354-0.357-0.795-0.415-1.2-0.502
		c-0.499-0.109-0.776,0.235-0.835,0.666c-0.061,0.441,0.324,0.55,0.673,0.617C47.233,41.68,47.252,40.715,47.921,40.77z
		 M35.623,37.728c0.158,0.209-0.13,0.792,0.481,0.654c0.321-0.071,0.766-0.037,0.768-0.628c0.001-0.766-0.594-0.33-0.885-0.475
		C35.615,37.092,35.611,37.437,35.623,37.728z M29.299,36.563c-0.536,0-0.331,0.636-0.626,0.87
		c-0.121,0.097,0.064,0.259,0.244,0.271c0.625,0.046,0.911-0.48,1.092-0.873C30.128,36.572,29.573,36.736,29.299,36.563z
		 M29.578,39.071c0.642-0.243,1.336-0.135,2.019-0.172c0.158-0.009,0.346,0.126,0.477-0.073c-0.152-0.014-0.305-0.032-0.458-0.037
		c-0.716-0.021-0.703-0.039-1.544-0.622c-0.114-0.079-0.444,0.141-0.667,0.238c-0.182,0.08-0.318,0.224-0.285,0.437
		C29.158,39.086,29.359,39.088,29.578,39.071z M33.376,38.812c-0.136,0.025-0.398-0.145-0.423,0.126
		c-0.015,0.16,0.239,0.142,0.386,0.171c0.55,0.108,1.1,0.221,1.651,0.328c0.194,0.037,0.402,0.046,0.417-0.22
		c0.011-0.216-0.115-0.381-0.351-0.289C34.478,39.156,33.95,38.846,33.376,38.812z M15.709,49.183
		c0.266-0.034,0.608,0.051,0.757-0.338c-0.375-0.108-0.745-0.25-1.127-0.316c-0.179-0.03-0.559-0.114-0.537,0.162
		C14.842,49.179,15.312,49.133,15.709,49.183z M57.351,57.553c0.021-0.256-0.144-0.183-0.24-0.149
		c-0.468,0.147-0.848-0.094-1.248-0.258c-0.133-0.055-0.272-0.284-0.389-0.136c-0.152,0.192,0.075,0.32,0.213,0.438
		c0.164,0.14,0.315,0.305,0.499,0.414C56.678,58.153,56.982,57.725,57.351,57.553z M35.876,35.655
		c0.023,0.216,0.04,0.433,0.075,0.647c0.028,0.173-0.015,0.431,0.232,0.444c0.296,0.016,0.4-0.262,0.498-0.482
		c0.207-0.467-0.412-0.369-0.476-0.664c-0.037-0.165,0.033-0.464-0.224-0.426C35.728,35.212,35.894,35.485,35.876,35.655z
		 M38.489,32.587c0.197,0.085-0.473,0.432-0.041,0.395c0.362-0.03,0.76-0.423,0.893-0.851c0.067-0.215-0.199-0.263-0.392-0.275
		C38.463,31.824,38.222,31.984,38.489,32.587z M56.474,54.944c-0.369,0.012-0.364,0.291-0.368,0.54
		c-0.003,0.312,0.233,0.326,0.464,0.318c0.28-0.011,0.516-0.107,0.442-0.446C56.955,55.091,56.778,54.915,56.474,54.944z
		 M48.844,54.855c-0.105-0.364-0.41-0.282-0.676-0.268c-0.204,0.013-0.482-0.046-0.409,0.318c0.053,0.263,0.16,0.478,0.487,0.433
		C48.537,55.3,48.796,55.22,48.844,54.855z M48.212,42.959c-0.146,0.138-0.554-0.144-0.562,0.22
		c-0.009,0.328,0.424,0.272,0.658,0.374c0.233,0.103,0.471-0.069,0.489-0.286C48.832,42.863,48.475,43.019,48.212,42.959z
		 M22.075,52.819c-0.016-0.327-0.271-0.378-0.525-0.38c-0.201-0.002-0.485-0.046-0.474,0.293c0.011,0.31,0.235,0.424,0.51,0.438
		C21.826,53.184,22.017,53.104,22.075,52.819z M32.804,46.117c-0.093-0.349,0.209-0.815-0.24-1.136
		c-0.185,0.387-0.085,0.79-0.045,1.18c0.028,0.272-0.153,0.724,0.228,0.758C32.918,46.937,32.748,46.427,32.804,46.117z
		 M55.72,52.43c0.339-0.086,0.715,0.117,1.033-0.144c-0.283-0.25-0.639-0.233-0.969-0.208c-0.387,0.029-0.792,0-1.153,0.194
		C54.972,52.485,55.36,52.318,55.72,52.43z M64.406,55.94c0.272,0,0.414-0.167,0.426-0.409c0.011-0.259-0.156-0.398-0.419-0.401
		c-0.269-0.004-0.398,0.133-0.405,0.403C64.001,55.814,64.143,55.934,64.406,55.94z M60.55,55.318
		c-0.254,0.007-0.426,0.13-0.435,0.391c-0.008,0.264,0.189,0.282,0.392,0.262c0.217-0.022,0.476-0.01,0.492-0.312
		C61.015,55.363,60.79,55.317,60.55,55.318z M50.102,36.499c0.363-0.103,0.817,0.067,0.968-0.317c0.11-0.285-0.233-0.21-0.385-0.2
		c-0.368,0.024-0.751,0.046-0.975,0.42C49.854,36.438,49.996,36.474,50.102,36.499z M15.013,51.91
		c-0.102-0.252-0.328-0.297-0.542-0.293c-0.205,0.003-0.363,0.143-0.336,0.364c0.03,0.243,0.184,0.415,0.451,0.355
		C14.801,52.288,14.977,52.157,15.013,51.91z M53.167,55.329c-0.002-0.22-0.101-0.378-0.327-0.361
		c-0.243,0.018-0.52,0.053-0.554,0.378c-0.019,0.185,0.116,0.283,0.288,0.295C52.83,55.657,53.078,55.641,53.167,55.329z
		 M30.042,41.057c0.238-0.147,0.644,0.174,0.766-0.241c0.038-0.129-0.216-0.44-0.322-0.362c-0.267,0.194-0.724,0.183-0.806,0.522
		C29.625,41.208,29.908,41.018,30.042,41.057z M18.693,52.455c-0.06-0.22-0.234-0.313-0.419-0.305
		c-0.237,0.012-0.415,0.149-0.368,0.425c0.033,0.199,0.156,0.37,0.374,0.32C18.495,52.848,18.65,52.687,18.693,52.455z
		 M8.323,47.808c-0.273,0.009-0.495-0.209-0.717,0.004c0.35,0.215,0.74,0.309,1.138,0.364c0.09,0.012,0.303,0.08,0.244-0.122
		C8.875,47.667,8.581,47.688,8.323,47.808z M71.097,48.073c-0.366,0.066-0.77-0.105-1.14,0.111c0.37,0.048,0.744,0.156,1.108,0.128
		c0.356-0.029,0.755,0.095,1.071-0.186C71.803,47.953,71.456,48.121,71.097,48.073z M41.038,54.839
		c-0.074-0.217-0.225-0.309-0.437-0.256c-0.176,0.044-0.414,0.089-0.393,0.322c0.019,0.227,0.24,0.269,0.433,0.245
		C40.824,55.126,41.021,55.082,41.038,54.839z M35.688,48.086c0.013-0.217,0.16-0.634-0.125-0.684
		c-0.184-0.032-0.16,0.469-0.149,0.721c0.011,0.263,0.144,0.52,0.223,0.778C35.947,48.668,35.73,48.397,35.688,48.086z
		 M44.834,54.985c0.01-0.213-0.131-0.279-0.293-0.279c-0.206,0-0.479-0.077-0.545,0.216c-0.039,0.17,0.11,0.279,0.286,0.293
		C44.504,55.233,44.729,55.242,44.834,54.985z M26.808,31.001c-0.235,0.037-0.6-0.095-0.609,0.093
		c-0.012,0.272,0.337,0.176,0.531,0.168c0.292-0.012,0.624,0.146,0.866-0.153C27.324,31.072,27.05,31.034,26.808,31.001z
		 M39.448,33.97c-0.02-0.152-0.007-0.367-0.23-0.317c-0.254,0.056-0.243,0.334-0.3,0.532c-0.041,0.138,0.079,0.25,0.209,0.247
		C39.432,34.428,39.425,34.182,39.448,33.97z M65.168,57.21c-0.198,0.235-0.63,0.16-0.799,0.51c0.085,0.017,0.182,0.068,0.254,0.042
		c0.282-0.097,0.64-0.092,0.763-0.444C65.421,57.212,65.304,57.184,65.168,57.21z M45.984,43.301
		c-0.081-0.186-0.204-0.313-0.427-0.254c-0.144,0.038-0.366,0.079-0.332,0.245c0.06,0.276,0.349,0.173,0.543,0.21
		C45.899,43.527,46.007,43.472,45.984,43.301z M25.608,53.413c-0.022-0.228-0.185-0.313-0.381-0.346
		c-0.14-0.023-0.257,0.034-0.282,0.183c-0.037,0.229,0.08,0.364,0.3,0.394C25.413,53.664,25.55,53.598,25.608,53.413z
		 M29.229,53.479c-0.14-0.004-0.27,0.032-0.247,0.192c0.033,0.229,0.142,0.432,0.42,0.383c0.101-0.018,0.255-0.13,0.262-0.21
		C29.688,53.55,29.428,53.538,29.229,53.479z M25.183,55.734c0.143-0.105,0.357-0.263,0.57-0.417
		c-0.077-0.026-0.171-0.091-0.224-0.066c-0.216,0.101-0.436,0.207-0.618,0.355C24.854,55.654,24.986,55.734,25.183,55.734z
		 M33.105,54.283c0.079-0.104,0.401,0.036,0.34-0.279c-0.016-0.081-0.178-0.18-0.281-0.19c-0.207-0.021-0.379,0.089-0.38,0.316
		C32.783,54.287,32.932,54.299,33.105,54.283z M47.126,29.494c-0.212-0.159-0.453-0.184-0.698-0.139
		c-0.174,0.031-0.476,0.196-0.453,0.211c0.3,0.206,0.63-0.095,0.957,0.023C46.998,29.613,47.11,29.628,47.126,29.494z
		 M11.342,51.686c-0.001-0.205-0.123-0.325-0.329-0.341c-0.143-0.012-0.219,0.096-0.202,0.231c0.023,0.188,0.088,0.371,0.314,0.376
		C11.263,51.954,11.317,51.828,11.342,51.686z M28.057,37.21c0.257-0.022,0.233-0.238,0.244-0.408
		c0.011-0.176-0.107-0.188-0.236-0.121c-0.126,0.065-0.33,0.066-0.329,0.258C27.737,37.113,27.887,37.183,28.057,37.21z
		 M45.255,47.098c-0.14-0.122-0.283-0.284-0.459-0.39c-0.112-0.069-0.131,0.071-0.131,0.153c-0.002,0.264,0.164,0.375,0.398,0.407
		C45.162,47.282,45.244,47.251,45.255,47.098z M34.473,37.276c0.118,0.017,0.311,0.101,0.333-0.025
		c0.04-0.232-0.199-0.172-0.324-0.176c-0.272-0.008-0.543,0.019-0.816,0.033C33.935,37.164,34.204,37.22,34.473,37.276z
		 M32.661,42.708c-0.034-0.166,0.03-0.422-0.163-0.483c-0.227-0.069-0.208,0.165-0.188,0.304c0.027,0.175,0.056,0.461,0.153,0.493
		C32.686,43.095,32.609,42.84,32.661,42.708z M47.112,30.299c0.074,0.135,0.14,0.335,0.312,0.308
		c0.181-0.029,0.168-0.244,0.179-0.396c0.009-0.149-0.085-0.234-0.235-0.217C47.197,30.013,47.067,30.086,47.112,30.299z
		 M47.527,32.566c0.164-0.015,0.217-0.128,0.183-0.259c-0.029-0.107-0.104-0.274-0.174-0.283c-0.14-0.017-0.183,0.138-0.19,0.263
		C47.333,32.421,47.378,32.532,47.527,32.566z M60.477,47.127c-0.172,0.145-0.115,0.342-0.107,0.52
		c0.007,0.107-0.005,0.327,0.157,0.266c0.202-0.075,0.172-0.305,0.115-0.492C60.609,47.312,60.652,47.159,60.477,47.127z"/>
	<path fill-rule="evenodd" clip-rule="evenodd" d="M24.485,31.721c0.056,0.627,0.468,1.17,0.431,1.82
		c-0.028,0.475-0.126,0.832-0.732,0.543c-0.253-0.121-0.543-0.165-0.793-0.291c-0.606-0.308-1.045-0.284-1.112,0.516
		c-0.02,0.239-0.037,0.354-0.316,0.246c-0.604-0.233-1.326-1.357-1.232-1.993c0.072-0.483,0.185-0.856,0.854-0.537
		c0.339,0.163,0.955,0.645,1.116-0.285c0.02-0.109,0.256-0.112,0.333-0.021c0.491,0.572,0.977,0.115,1.464,0.013L24.485,31.721z"/>
	<path fill-rule="evenodd" clip-rule="evenodd" d="M28.667,26.792c-0.232,0.383-0.452,0.618-1.009,0.44
		c-0.627-0.2-1.289,0.243-1.956,0.112c-0.148-0.029-0.349-0.011-0.368-0.215c-0.014-0.142,0.139-0.206,0.26-0.211
		c1.02-0.044,2.026-0.501,3.062-0.114L28.667,26.792z"/>
	<path fill-rule="evenodd" clip-rule="evenodd" d="M8.926,45.964c0.106,0.449-0.146,0.595-0.514,0.509
		c-0.354-0.081-0.775-0.061-1.028-0.352C7.279,46,7.526,45.973,7.631,45.971c0.436-0.007,0.872,0.002,1.308,0.004L8.926,45.964z"/>
	<path fill-rule="evenodd" clip-rule="evenodd" d="M36.063,28.133c-0.23-0.057-0.587,0.089-0.616-0.254
		c-0.017-0.204,0.293-0.176,0.462-0.151c0.223,0.032,0.579-0.088,0.616,0.231C36.548,28.147,36.228,28.088,36.063,28.133z"/>
	<path fill-rule="evenodd" clip-rule="evenodd" d="M8.938,45.975c-0.088-0.856,0.538-0.544,0.95-0.574
		c0.054-0.005,0.113,0.041,0.169,0.064c-0.055,0.06-0.102,0.132-0.167,0.178c-0.286,0.211-0.61,0.312-0.965,0.321L8.938,45.975z"/>
	<path fill-rule="evenodd" clip-rule="evenodd" d="M30.581,27.163c-0.653-0.045-1.353,0.151-1.914-0.371l-0.009,0.012
		c0.663-0.008,1.328-0.02,1.916,0.368L30.581,27.163z"/>
	<path fill-rule="evenodd" clip-rule="evenodd" fill="none" d="M41.477,42.087c0.07-0.726,0.06-1.451-0.189-2.139
		c-0.095-0.261-0.144-0.49,0.002-0.712c0.157-0.24,0.114-0.381-0.163-0.337c-0.99,0.156-1.667-0.54-2.438-0.921
		c-0.604-0.302-0.561-0.952-0.049-1.375c0.095-0.078,0.168-0.18,0.252-0.271c0.213-0.228-0.001-0.943,0.636-0.66
		c0.607,0.27,1.442,0.207,1.696,1.095c0.067,0.236,0.032,0.33-0.1,0.471c-0.158,0.17-0.318,0.174-0.5,0.042
		c-0.375-0.271-0.922-0.552-1.145-0.08c-0.249,0.528,0.375,0.758,0.798,0.947c1.173,0.528,2.364,1.017,3.523,1.571
		c0.811,0.387,0.794,0.513,0.128,1.117c-0.227,0.205-0.481,0.447-0.362,0.813c0.195,0.603-0.039,1.11-0.329,1.605
		c-0.248,0.424-0.342,0.834-0.218,1.347c0.174,0.728-0.282,1.332-0.598,1.941c-0.172,0.33-0.421,0.229-0.564-0.051
		c-0.099-0.192-0.168-0.419-0.182-0.634C41.597,44.602,41.54,43.346,41.477,42.087z"/>
	<path fill-rule="evenodd" clip-rule="evenodd" fill="none" d="M55.849,51.393c-4.422-0.176-8.846-0.297-13.264-0.544
		C37.284,50.553,32,50.047,26.728,49.424c-0.47-0.056-0.944-0.073-1.413-0.133c-0.103-0.014-0.192-0.129-0.288-0.199
		c0.121-0.014,0.244-0.051,0.36-0.037c5.136,0.611,10.29,1.077,15.447,1.409c4.062,0.263,8.131,0.551,12.21,0.494
		c1.105-0.017,2.211,0.062,3.315,0.104c0.181,0.007,0.501-0.049,0.497,0.137c-0.007,0.291-0.34,0.169-0.534,0.206
		c-0.153,0.029-0.315,0.005-0.474,0.005C55.849,51.404,55.849,51.397,55.849,51.393z"/>
	<path fill-rule="evenodd" clip-rule="evenodd" fill="none" d="M16.839,42.522c-0.607-0.138-1.545,0.057-1.889-0.587
		c-0.227-0.424,0.634-0.806,0.979-1.232c1.002-1.237,1.834-1.175,2.736,0.157c0.123,0.182,0.249,0.363,0.395,0.526
		c0.328,0.366,0.219,0.606-0.198,0.782C18.242,42.426,17.585,42.47,16.839,42.522z"/>
	<path fill-rule="evenodd" clip-rule="evenodd" fill="none" d="M57.778,48.79c0.193,0.084,0.424,0.101,0.456-0.138
		c0.039-0.271-0.257-0.19-0.412-0.245c-0.196-0.069-0.332-0.17-0.329-0.398c0.006-0.323,0.305-0.135,0.358-0.19
		c0.36-0.378,1.207-0.174,1.191-1.028c-0.003-0.199,0.354-0.357,0.63-0.224c0.243,0.121,0.123,0.313,0.044,0.482
		c-0.133,0.279-0.047,0.54,0.02,0.82c0.182,0.787,0.04,1.507-0.625,2.028c-0.6,0.467-1.227,0.621-1.843,0.003
		c-0.041-0.041-0.131-0.099-0.149-0.085c-0.237,0.176-0.496,0.661-0.664-0.032c-0.137-0.559,0.225-0.781,0.691-0.932
		C57.36,48.784,57.553,48.684,57.778,48.79z"/>
	<path fill-rule="evenodd" clip-rule="evenodd" fill="none" d="M16.428,47.27c-0.308-0.113-0.951,0.263-1.06-0.285
		c-0.077-0.387,0.309-0.838,0.777-1.071c0.407-0.203,0.633-0.622,0.838-0.996c0.296-0.545,0.844-0.639,1.317-0.84
		c0.398-0.17,0.576,0.133,0.569,0.503c-0.003,0.216-0.092,0.429-0.116,0.646C18.542,47.139,18.364,47.306,16.428,47.27z
		 M17.283,45.847c-0.051,0.048-0.182,0.11-0.205,0.199c-0.042,0.167,0.104,0.199,0.226,0.16c0.106-0.032,0.26-0.099,0.279-0.178
		C17.617,45.881,17.467,45.855,17.283,45.847z"/>
	<path fill-rule="evenodd" clip-rule="evenodd" fill="none" d="M57.616,45.778c-0.288,0-0.414-0.002-0.54,0
		c-0.351,0-0.802,0.021-0.96-0.268c-0.183-0.33,0.236-0.573,0.442-0.824c0.204-0.248,0.327-0.524,0.426-0.829
		c0.27-0.817,1.061-0.987,1.679-0.378c0.448,0.443,0.65,1.066,1.161,1.479c0.37,0.298-0.015,0.396-0.238,0.459
		C58.89,45.613,58.193,45.826,57.616,45.778z"/>
	<path fill-rule="evenodd" clip-rule="evenodd" fill="none" d="M69.043,49.398c0.012-0.094,0.043-0.344,0.071-0.595
		c0.025-0.218,0.048-0.434,0.073-0.65c0.268,0.052,0.077,0.396,0.291,0.467c0.205,0.068,0.421,0.101,0.629,0.16
		c0.147,0.041,0.364,0.057,0.424,0.158c0.38,0.644,1.047,0.829,1.782,0.431c0.166-0.09,0.295-0.255,0.492-0.101
		c0.15,0.121,0.133,0.268,0.029,0.414c-0.073,0.103-0.165,0.229-0.027,0.32c0.163,0.11,0.305-0.009,0.4-0.133
		c0.188-0.243,0.385-0.429,0.715-0.264c0.151,0.074,0.25,0.202,0.22,0.378c-0.068,0.388-0.4,0.433-0.698,0.538
		c-0.897,0.314-1.813-0.018-2.718,0.092c-0.184,0.022-0.376-0.031-0.56-0.009C69.251,50.711,68.961,50.447,69.043,49.398z"/>
	<path fill-rule="evenodd" clip-rule="evenodd" fill="none" d="M34.913,43.747c-0.061,0.701,0.002,1.452,0.045,2.207
		c0.016,0.277,0.062,0.841-0.5,0.843c-0.52,0-0.425-0.455-0.465-0.778c-0.138-1.126-0.267-2.253-0.399-3.38
		c-0.018-0.156-0.111-0.351-0.051-0.463c0.556-1.028,0.052-1.09-0.779-0.886c-0.047,0.012-0.155-0.03-0.158-0.057
		c-0.017-0.129,0.097-0.127,0.181-0.138c0.468-0.058,0.934-0.126,1.403-0.166c0.356-0.03,0.445,0.211,0.546,0.513
		C34.984,42.186,34.852,42.943,34.913,43.747z"/>
	<path fill-rule="evenodd" clip-rule="evenodd" fill="none" d="M30.677,45.65c-0.244-1.065-0.212-2.157-0.3-3.236
		c-0.034-0.421-0.123-0.998,0.645-1.005c0.834-0.007,1.114,0.351,0.728,1.095c-0.214,0.41-0.215,0.76-0.016,1.154
		c0.278,0.556,0.142,1.181,0.269,1.765c0.026,0.122-1.193,0.923-1.286,0.848C30.497,46.097,30.678,45.86,30.677,45.65z"/>
	<path fill-rule="evenodd" clip-rule="evenodd" fill="none" d="M64.651,51.452c-2.116,0-4.232,0.003-6.349-0.004
		c-0.178-0.002-0.498,0.039-0.489-0.141c0.014-0.26,0.293-0.093,0.451-0.08c2.466,0.173,4.919-0.3,7.387-0.13
		c1.532,0.105,3.089-0.213,4.603,0.225c0.387,0.111,0.754-0.066,1.127,0.009c0.114,0.022,0.222,0.083,0.33,0.128
		c-0.08,0.151-0.218,0.071-0.33,0.073c-2.054,0.037-4.107,0.069-6.16,0.102c-0.189,0.002-0.38,0-0.569,0
		C64.651,51.573,64.651,51.513,64.651,51.452z"/>
	<path fill-rule="evenodd" clip-rule="evenodd" fill="none" d="M38.854,44.608c0,0.569,0.031,1.14-0.01,1.705
		c-0.029,0.383-0.308,0.662-0.693,0.657c-0.401-0.006-0.506-0.43-0.491-0.698c0.037-0.671-0.04-1.385,0.484-1.958
		c0.331-0.361,0.454-0.732-0.151-1.016c-0.259-0.12-0.666-0.226-0.582-0.644c0.065-0.321,0.385-0.267,0.632-0.259
		c0.406,0.014,0.788,0.123,0.824,0.604c0.04,0.532,0.009,1.072,0.009,1.608C38.869,44.608,38.861,44.608,38.854,44.608z"/>
	<path fill-rule="evenodd" clip-rule="evenodd" fill="none" d="M27.547,28.164c0.692,0,1.384,0.002,2.076-0.001
		c0.194-0.001,0.406-0.016,0.458,0.22c0.064,0.286-0.15,0.406-0.375,0.443c-1.41,0.228-2.821,0.348-4.225-0.033
		c-0.162-0.043-0.427-0.064-0.393-0.314c0.024-0.179,0.25-0.134,0.394-0.176C26.159,28.105,26.854,28.12,27.547,28.164z"/>
	<path fill-rule="evenodd" clip-rule="evenodd" fill="none" d="M46.897,48.363c0.044-0.084,0.064-0.204,0.135-0.245
		c0.3-0.181,0.161-0.753,0.531-0.753c0.465,0.002,0.233,0.49,0.339,0.753c0.049,0.126,0.184,0.275,0.266,0.188
		c0.207-0.221,0.388-0.483,0.52-0.759c0.086-0.183-0.018-0.387-0.235-0.433c-0.222-0.046-0.559,0.112-0.516-0.316
		c0.01-0.096,0.136-0.22,0.236-0.258c0.263-0.095,0.521,0.025,0.701,0.181c0.341,0.289,0.396,0.726,0.298,1.127
		c-0.232,0.959-1.688,1.538-2.644,1.083C46.65,48.743,46.775,48.552,46.897,48.363z"/>
	<path fill-rule="evenodd" clip-rule="evenodd" fill="none" d="M68.166,52.433c0.305-0.208,0.654-0.197,1-0.197
		c1.569,0.001,3.14,0.003,4.709,0.01c0.148,0,0.385-0.048,0.407,0.119c0.03,0.225-0.206,0.144-0.342,0.162
		c-1.933,0.247-3.864,0.403-5.783-0.104L68.166,52.433z"/>
	<path fill-rule="evenodd" clip-rule="evenodd" fill="none" d="M46.98,20.038c0.031-0.003,0.063-0.015,0.094-0.009
		c0.426,0.062,1.114,0,1.14,0.427c0.035,0.559-0.661,0.414-1.056,0.469c-0.552,0.079-1.127,0.229-1.672-0.068
		c-0.179-0.098-0.513-0.078-0.467-0.367c0.039-0.244,0.346-0.245,0.552-0.278c0.467-0.076,0.939-0.114,1.409-0.167
		C46.98,20.042,46.98,20.04,46.98,20.038z"/>
	<path fill-rule="evenodd" clip-rule="evenodd" fill="none" d="M48.116,36.646c-1.294-0.188-2.636-0.382-3.979-0.583
		c-0.085-0.013-0.199-0.046-0.238-0.108c-0.063-0.1,0.025-0.177,0.126-0.192c0.875-0.133,1.727-0.538,2.641-0.247
		c0.083,0.027,0.24,0.077,0.238,0.089c-0.034,0.161-0.181,0.116-0.288,0.123c-0.405,0.023-0.812,0.035-1.219,0.051
		c0.383,0.289,0.852,0.346,1.298,0.445c0.491,0.11,0.996,0.168,1.496,0.247c0.186,0.029,0.371,0.05,0.559,0.076
		C48.558,36.577,48.365,36.607,48.116,36.646z"/>
	<path fill-rule="evenodd" clip-rule="evenodd" fill="none" d="M71.25,46.742c0.72-0.063,1.438-0.13,2.159-0.183
		c0.115-0.008,0.333,0.029,0.34,0.073c0.036,0.212-0.154,0.23-0.303,0.256c-1.147,0.195-2.301,0.335-3.465,0.355
		c-0.218,0.004-0.526,0.016-0.535-0.25c-0.012-0.353,0.351-0.302,0.577-0.318c0.405-0.03,0.816-0.009,1.225-0.009
		C71.248,46.692,71.25,46.717,71.25,46.742z"/>
	<path fill-rule="evenodd" clip-rule="evenodd" fill="none" d="M47.921,40.77c-0.669-0.055-0.688,0.91-1.362,0.781
		c-0.349-0.066-0.733-0.176-0.673-0.617c0.059-0.431,0.336-0.775,0.835-0.666C47.126,40.355,47.566,40.413,47.921,40.77z"/>
	<path fill-rule="evenodd" clip-rule="evenodd" fill="none" d="M35.623,37.728c-0.011-0.291-0.008-0.635,0.364-0.45
		c0.291,0.145,0.886-0.291,0.885,0.475c-0.002,0.591-0.447,0.557-0.768,0.628C35.492,38.519,35.781,37.937,35.623,37.728z"/>
	<path fill-rule="evenodd" clip-rule="evenodd" fill="none" d="M29.299,36.563c0.273,0.173,0.829,0.009,0.709,0.268
		c-0.182,0.393-0.467,0.918-1.092,0.873c-0.18-0.012-0.364-0.174-0.244-0.271C28.968,37.2,28.763,36.563,29.299,36.563z"/>
	<path fill-rule="evenodd" clip-rule="evenodd" fill="none" d="M29.578,39.071c-0.219,0.018-0.42,0.016-0.459-0.229
		c-0.033-0.213,0.103-0.356,0.285-0.437c0.222-0.097,0.552-0.316,0.667-0.238c0.841,0.583,0.829,0.601,1.544,0.622
		c0.153,0.005,0.306,0.023,0.458,0.037c-0.13,0.199-0.318,0.064-0.477,0.073C30.915,38.936,30.22,38.828,29.578,39.071z"/>
	<path fill-rule="evenodd" clip-rule="evenodd" fill="none" d="M33.376,38.812c0.574,0.034,1.102,0.344,1.68,0.116
		c0.236-0.092,0.362,0.073,0.351,0.289c-0.015,0.266-0.222,0.257-0.417,0.22c-0.551-0.107-1.102-0.22-1.651-0.328
		c-0.146-0.029-0.401-0.011-0.386-0.171C32.978,38.667,33.24,38.837,33.376,38.812z"/>
	<path fill-rule="evenodd" clip-rule="evenodd" fill="none" d="M15.709,49.183c-0.398-0.05-0.868-0.004-0.908-0.492
		c-0.022-0.276,0.358-0.192,0.537-0.162c0.382,0.066,0.752,0.208,1.127,0.316C16.318,49.233,15.975,49.148,15.709,49.183z"/>
	<path fill-rule="evenodd" clip-rule="evenodd" fill="none" d="M57.351,57.553c-0.368,0.172-0.673,0.601-1.165,0.309
		c-0.184-0.109-0.335-0.274-0.499-0.414c-0.138-0.117-0.365-0.245-0.213-0.438c0.116-0.148,0.256,0.081,0.389,0.136
		c0.4,0.164,0.78,0.405,1.248,0.258C57.207,57.37,57.371,57.297,57.351,57.553z"/>
	<path fill-rule="evenodd" clip-rule="evenodd" fill="none" d="M35.875,35.654c0.019-0.169-0.147-0.442,0.106-0.48
		c0.257-0.038,0.187,0.261,0.224,0.426c0.064,0.295,0.683,0.196,0.476,0.664c-0.098,0.22-0.202,0.499-0.498,0.482
		c-0.248-0.014-0.205-0.271-0.232-0.444C35.916,36.088,35.9,35.872,35.875,35.654z"/>
	<path fill-rule="evenodd" clip-rule="evenodd" fill="none" d="M38.489,32.587c-0.268-0.603-0.026-0.763,0.46-0.731
		c0.192,0.012,0.459,0.06,0.392,0.275c-0.133,0.428-0.531,0.821-0.893,0.851C38.017,33.019,38.687,32.672,38.489,32.587z"/>
	<path fill-rule="evenodd" clip-rule="evenodd" fill="none" d="M56.472,54.944c0.307-0.029,0.483,0.146,0.54,0.412
		c0.073,0.339-0.162,0.436-0.442,0.446c-0.23,0.008-0.467-0.007-0.464-0.318C56.109,55.235,56.104,54.956,56.472,54.944z"/>
	<path fill-rule="evenodd" clip-rule="evenodd" fill="none" d="M48.844,54.855c-0.048,0.364-0.307,0.444-0.598,0.483
		c-0.327,0.045-0.435-0.17-0.487-0.433c-0.073-0.364,0.205-0.306,0.409-0.318C48.434,54.573,48.738,54.491,48.844,54.855z"/>
	<path fill-rule="evenodd" clip-rule="evenodd" fill="none" d="M68.157,52.423c-1.295,0.385-2.625,0.062-3.935,0.179
		c-0.062,0.005-0.128-0.063-0.192-0.098c0.09-0.021,0.179-0.058,0.269-0.058c1.289-0.007,2.578-0.011,3.867-0.014L68.157,52.423z"/>
	<path fill-rule="evenodd" clip-rule="evenodd" fill="none" d="M48.212,42.959c0.263,0.06,0.62-0.096,0.586,0.308
		c-0.019,0.217-0.256,0.389-0.489,0.286c-0.234-0.102-0.667-0.046-0.658-0.374C47.658,42.815,48.065,43.097,48.212,42.959z"/>
	<path fill-rule="evenodd" clip-rule="evenodd" fill="none" d="M22.075,52.819c-0.058,0.284-0.249,0.364-0.488,0.351
		c-0.275-0.014-0.499-0.128-0.51-0.438c-0.012-0.339,0.272-0.295,0.474-0.293C21.803,52.441,22.059,52.492,22.075,52.819z"/>
	<path fill-rule="evenodd" clip-rule="evenodd" fill="none" d="M32.804,46.117c-0.056,0.31,0.114,0.819-0.057,0.802
		c-0.381-0.034-0.2-0.485-0.228-0.758c-0.04-0.39-0.14-0.793,0.045-1.18C33.013,45.302,32.711,45.769,32.804,46.117z"/>
	<path fill-rule="evenodd" clip-rule="evenodd" fill="none" d="M55.72,52.43c-0.359-0.111-0.748,0.056-1.089-0.157
		c0.361-0.194,0.767-0.165,1.153-0.194c0.33-0.025,0.686-0.042,0.969,0.208C56.435,52.547,56.059,52.344,55.72,52.43z"/>
	<path fill-rule="evenodd" clip-rule="evenodd" fill="none" d="M64.408,55.94c-0.266-0.007-0.407-0.126-0.4-0.407
		c0.007-0.271,0.137-0.407,0.405-0.403c0.263,0.003,0.43,0.143,0.419,0.401C64.82,55.773,64.679,55.94,64.408,55.94z"/>
	<path fill-rule="evenodd" clip-rule="evenodd" fill="none" d="M60.552,55.318c0.238-0.001,0.463,0.045,0.447,0.341
		c-0.017,0.302-0.275,0.289-0.492,0.312c-0.202,0.021-0.399,0.002-0.392-0.262C60.124,55.448,60.296,55.325,60.552,55.318z"/>
	<path fill-rule="evenodd" clip-rule="evenodd" fill="none" d="M46.897,48.363c-0.122,0.188-0.247,0.38-0.369,0.568
		c-0.377-0.06-0.782-0.293-0.602-0.64C46.158,47.846,46.572,48.235,46.897,48.363z"/>
	<path fill-rule="evenodd" clip-rule="evenodd" fill="none" d="M50.102,36.499c-0.105-0.025-0.248-0.062-0.392-0.096
		c0.224-0.375,0.606-0.396,0.975-0.42c0.151-0.01,0.495-0.085,0.385,0.2C50.919,36.566,50.465,36.396,50.102,36.499z"/>
	<path fill-rule="evenodd" clip-rule="evenodd" fill="none" d="M15.013,51.91c-0.036,0.247-0.212,0.378-0.426,0.427
		c-0.268,0.06-0.421-0.112-0.451-0.355c-0.027-0.222,0.131-0.361,0.336-0.364C14.685,51.613,14.911,51.658,15.013,51.91z"/>
	<path fill-rule="evenodd" clip-rule="evenodd" fill="none" d="M53.167,55.329c-0.089,0.312-0.337,0.328-0.593,0.312
		c-0.172-0.012-0.307-0.11-0.288-0.295c0.034-0.325,0.311-0.36,0.554-0.378C53.066,54.951,53.165,55.109,53.167,55.329z"/>
	<path fill-rule="evenodd" clip-rule="evenodd" fill="none" d="M30.042,41.057c-0.134-0.039-0.417,0.151-0.361-0.081
		c0.082-0.34,0.539-0.328,0.806-0.522c0.105-0.078,0.36,0.233,0.322,0.362C30.686,41.23,30.28,40.91,30.042,41.057z"/>
	<path fill-rule="evenodd" clip-rule="evenodd" fill="none" d="M18.693,52.455c-0.043,0.231-0.198,0.393-0.413,0.44
		c-0.218,0.05-0.34-0.121-0.374-0.32c-0.047-0.275,0.13-0.413,0.368-0.425C18.459,52.142,18.634,52.235,18.693,52.455z"/>
	<path fill-rule="evenodd" clip-rule="evenodd" fill="none" d="M8.323,47.808c0.258-0.12,0.553-0.141,0.665,0.246
		c0.059,0.202-0.154,0.134-0.244,0.122c-0.398-0.056-0.789-0.149-1.138-0.364C7.828,47.599,8.05,47.816,8.323,47.808z"/>
	<path fill-rule="evenodd" clip-rule="evenodd" fill="none" d="M71.097,48.073c0.359,0.048,0.706-0.12,1.04,0.054
		c-0.316,0.28-0.715,0.156-1.071,0.186c-0.364,0.028-0.738-0.08-1.108-0.128C70.327,47.968,70.73,48.14,71.097,48.073z"/>
	<path fill-rule="evenodd" clip-rule="evenodd" fill="none" d="M41.038,54.839c-0.018,0.243-0.214,0.287-0.397,0.312
		c-0.193,0.023-0.415-0.019-0.433-0.245c-0.021-0.233,0.217-0.278,0.393-0.322C40.813,54.53,40.964,54.622,41.038,54.839z"/>
	<path fill-rule="evenodd" clip-rule="evenodd" fill="none" d="M35.688,48.086c0.042,0.312,0.259,0.582-0.051,0.815
		c-0.08-0.259-0.212-0.516-0.223-0.778c-0.011-0.252-0.035-0.753,0.149-0.721C35.848,47.452,35.701,47.869,35.688,48.086z"/>
	<path fill-rule="evenodd" clip-rule="evenodd" fill="none" d="M44.834,54.985c-0.105,0.257-0.33,0.248-0.552,0.229
		c-0.176-0.014-0.325-0.123-0.286-0.293c0.066-0.293,0.339-0.216,0.545-0.216C44.703,54.706,44.844,54.772,44.834,54.985z"/>
	<path fill-rule="evenodd" clip-rule="evenodd" fill="none" d="M26.808,31.001c0.243,0.033,0.516,0.071,0.788,0.108
		c-0.242,0.3-0.574,0.142-0.866,0.153c-0.194,0.008-0.543,0.104-0.531-0.168C26.208,30.906,26.573,31.038,26.808,31.001z"/>
	<path fill-rule="evenodd" clip-rule="evenodd" fill="none" d="M39.448,33.97c-0.022,0.212-0.016,0.458-0.32,0.462
		c-0.13,0.002-0.25-0.109-0.209-0.247c0.057-0.198,0.046-0.476,0.3-0.532C39.441,33.603,39.428,33.817,39.448,33.97z"/>
	<path fill-rule="evenodd" clip-rule="evenodd" fill="none" d="M65.168,57.21c0.136-0.026,0.253,0.002,0.218,0.107
		c-0.123,0.353-0.48,0.348-0.763,0.444c-0.072,0.026-0.169-0.025-0.254-0.042C64.538,57.37,64.97,57.445,65.168,57.21z"/>
	<path fill-rule="evenodd" clip-rule="evenodd" fill="none" d="M45.983,43.303c0.023,0.169-0.084,0.225-0.215,0.199
		c-0.194-0.037-0.483,0.066-0.543-0.21c-0.034-0.166,0.188-0.207,0.332-0.245C45.78,42.987,45.903,43.115,45.983,43.303z"/>
	<path fill-rule="evenodd" clip-rule="evenodd" fill="none" d="M25.608,53.413c-0.058,0.185-0.195,0.251-0.363,0.23
		c-0.22-0.029-0.336-0.165-0.3-0.394c0.025-0.148,0.142-0.206,0.282-0.183C25.423,53.1,25.586,53.186,25.608,53.413z"/>
	<path fill-rule="evenodd" clip-rule="evenodd" fill="none" d="M29.229,53.479c0.199,0.06,0.458,0.071,0.435,0.365
		c-0.006,0.08-0.161,0.192-0.262,0.21c-0.278,0.049-0.387-0.153-0.42-0.383C28.959,53.511,29.089,53.475,29.229,53.479z"/>
	<path fill-rule="evenodd" clip-rule="evenodd" fill="none" d="M25.183,55.734c-0.197,0-0.33-0.08-0.271-0.128
		c0.182-0.148,0.402-0.255,0.618-0.355c0.053-0.024,0.147,0.04,0.224,0.066C25.54,55.472,25.326,55.629,25.183,55.734z"/>
	<path fill-rule="evenodd" clip-rule="evenodd" fill="none" d="M33.105,54.283c-0.173,0.016-0.322,0.004-0.322-0.153
		c0.001-0.228,0.174-0.337,0.38-0.316c0.103,0.011,0.265,0.109,0.281,0.19C33.506,54.319,33.184,54.18,33.105,54.283z"/>
	<path fill-rule="evenodd" clip-rule="evenodd" fill="none" d="M47.126,29.494c-0.016,0.134-0.128,0.119-0.194,0.095
		c-0.327-0.118-0.657,0.183-0.957-0.023c-0.022-0.015,0.279-0.18,0.453-0.211C46.673,29.31,46.914,29.335,47.126,29.494z"/>
	<path fill-rule="evenodd" clip-rule="evenodd" fill="none" d="M11.342,51.686c-0.024,0.143-0.079,0.269-0.216,0.267
		c-0.226-0.005-0.291-0.188-0.314-0.376c-0.017-0.136,0.059-0.243,0.202-0.231C11.219,51.36,11.341,51.48,11.342,51.686z"/>
	<path fill-rule="evenodd" clip-rule="evenodd" fill="none" d="M28.057,37.21c-0.17-0.027-0.32-0.097-0.321-0.271
		c-0.001-0.191,0.203-0.192,0.329-0.258c0.128-0.066,0.247-0.055,0.236,0.121C28.291,36.972,28.314,37.188,28.057,37.21z"/>
	<path fill-rule="evenodd" clip-rule="evenodd" fill="none" d="M45.255,47.098c-0.011,0.153-0.093,0.185-0.191,0.171
		c-0.234-0.032-0.4-0.144-0.398-0.407c0-0.082,0.019-0.223,0.131-0.153C44.972,46.813,45.115,46.976,45.255,47.098z"/>
	<path fill-rule="evenodd" clip-rule="evenodd" fill="none" d="M34.473,37.276c-0.269-0.056-0.538-0.112-0.807-0.168
		c0.272-0.014,0.544-0.041,0.816-0.033c0.125,0.003,0.364-0.056,0.324,0.176C34.784,37.377,34.591,37.293,34.473,37.276z"/>
	<path fill-rule="evenodd" clip-rule="evenodd" fill="none" d="M32.661,42.708c-0.052,0.132,0.025,0.387-0.197,0.313
		c-0.097-0.032-0.125-0.318-0.153-0.493c-0.02-0.139-0.039-0.373,0.188-0.304C32.69,42.286,32.626,42.542,32.661,42.708z"/>
	<path fill-rule="evenodd" clip-rule="evenodd" fill="none" d="M47.112,30.299c-0.045-0.213,0.085-0.286,0.255-0.306
		c0.15-0.017,0.244,0.068,0.235,0.217c-0.011,0.152,0.002,0.367-0.179,0.396C47.252,30.635,47.187,30.434,47.112,30.299z"/>
	<path fill-rule="evenodd" clip-rule="evenodd" fill="none" d="M47.527,32.565c-0.149-0.033-0.194-0.144-0.182-0.278
		c0.008-0.125,0.051-0.28,0.19-0.263c0.069,0.008,0.145,0.175,0.174,0.283C47.744,32.438,47.691,32.551,47.527,32.565z"/>
	<path fill-rule="evenodd" clip-rule="evenodd" fill="none" d="M60.477,47.127c0.176,0.032,0.133,0.186,0.165,0.293
		c0.057,0.188,0.087,0.417-0.115,0.492c-0.162,0.062-0.15-0.158-0.157-0.266C60.361,47.469,60.305,47.271,60.477,47.127z"/>
	<path fill-rule="evenodd" clip-rule="evenodd" d="M17.283,45.847c0.185,0.009,0.334,0.034,0.3,0.182
		c-0.019,0.079-0.173,0.146-0.279,0.178c-0.122,0.039-0.267,0.007-0.226-0.16C17.101,45.957,17.231,45.895,17.283,45.847z"/>
</g>
</svg>
