<?xml version="1.0" encoding="utf-8"?>
<!-- Generator: Adobe Illustrator 16.0.0, SVG Export Plug-In . SVG Version: 6.00 Build 0)  -->
<!DOCTYPE svg PUBLIC "-//W3C//DTD SVG 1.1//EN" "http://www.w3.org/Graphics/SVG/1.1/DTD/svg11.dtd">
<svg version="1.1" id="Layer_1" xmlns="http://www.w3.org/2000/svg" xmlns:xlink="http://www.w3.org/1999/xlink" x="0px" y="0px"
	 width="450px" height="450px" viewBox="179.5 10.25 450 450" enable-background="new 179.5 10.25 450 450" xml:space="preserve">
<g>
	<path d="M585.078,55.555c3.658-12.202,3.235-21.451-1.267-27.499c-3.979-5.347-10.964-8.059-20.751-8.059
		c-13.373,0-27.326,5.035-27.907,5.246c-0.59,0.216-1.032,0.701-1.195,1.301c-0.129,0.504-13.67,51.048-26.179,80.242
		c-8.774,20.477-25.699,24.11-43.613,27.955c-7.084,1.526-14.409,3.101-21.402,5.75l-3.566,1.358
		c-11.405,4.358-17.688,6.758-25.992,6.758c-7.162,0-15.816-1.752-31.93-6.47c-13.781-4.032-21.821-3.739-26.362,0.917
		c-4.57,4.699-4.354,12.975-4.099,22.555c0.096,3.663,0.202,7.445,0.053,11.333c-0.178,4.915,0.59,9.355,1.401,14.05
		c2.055,11.88,4.383,25.33-6.365,53.985c-12.772,34.07-47.203,55.732-90.801,83.165c-7.632,4.81-15.552,9.787-23.688,15.048
		c-38.328,24.764-38.079,55.536-34.037,72.614c0.566,0.26,1.258,0.566,2.112,0.932c0.657,0.283,1.411,0.595,2.237,0.921
		c9.95,4.022,31.785,11.362,61.584,12.979c37.925,2.035,96.883-5.011,162.768-50.251c7.704-16.622,32.645-42.115,75.884-27.01
		l54.897-25.824l2.021-0.95l2.073-0.975c3.701-31.742-4.982-74.021-8.126-81.562c-3.706-8.889-2.16-30.489,9.662-58.694
		c8.045-19.19,0.759-28.81-5.093-36.538c-2.779-3.662-5.399-7.123-6.153-11.155c-1.08-5.741,2.909-13.095,8.957-24.216
		C567.271,100.435,576.971,82.565,585.078,55.555z M493.677,199.555c-3.619,0-6.562-2.942-6.562-6.562
		c0-3.624,2.942-6.566,6.562-6.566c3.624,0,6.571,2.942,6.571,6.566C500.248,196.613,497.301,199.555,493.677,199.555z
		 M476.729,229.258c-3.62,0-6.562-2.947-6.562-6.566s2.942-6.566,6.562-6.566c3.623,0,6.57,2.947,6.57,6.566
		S480.352,229.258,476.729,229.258z M463.772,256.906c-3.624,0-6.566-2.947-6.566-6.566s2.942-6.566,6.566-6.566
		c3.619,0,6.562,2.947,6.562,6.566S467.392,256.906,463.772,256.906z M493.273,165.835c-21.398,0-39.446,40.244-48.115,59.583
		c-1.435,3.207-2.572,5.741-3.427,7.431c-10.824,21.504-25.109,38.952-28.699,38.947c-0.101,0-0.149,0-0.269-0.154
		c-4.791-6.394-42.759-16.886-55.81-20.337c10.267-14.467,10.397-45.192,10.397-46.57c0-0.125-0.015-0.254-0.039-0.375
		c-7.397-36.677-4.253-47.342-1.718-50.438c0.643-0.788,1.358-1.186,2.112-1.186c0.245,0.005,0.427,0.039,0.417,0.024
		c12.999,6.816,26.045,10.268,38.779,10.268c14.429,0,25.968-4.315,34.406-7.469l1.368-0.509
		c14.577-5.415,59.516-17.616,60.101-17.784c16.887-5.947,29.198-5.28,35.977,2.001c6.499,6.975,6.47,17.971,6.153,22.378
		c-0.499,6.931-7.396,14.299-19.21,14.299c-6.955,0-14.635-2.467-22.828-7.325C499.772,166.767,496.537,165.835,493.273,165.835z"/>
	<path d="M555.04,336.85l-52.704,24.792l-1.497-0.542c-49.651-18.265-67.488,21.643-68.218,23.342l-0.438,1.013l-0.902,0.619
		c-61.339,42.39-117.062,52.522-156.302,52.522c-4.383,0-8.549-0.125-12.509-0.351c-24.821-1.388-44.093-6.499-56.126-10.666
		c-1.229-0.422-2.386-0.84-3.456-1.238c-0.874-0.316-1.699-0.639-2.467-0.936c0.854,2.093,1.498,3.292,1.541,3.369
		c0.106,0.197,0.254,0.374,0.423,0.519c15.528,13.301,39.197,20.04,70.344,20.04h0.01c70.267-0.005,159.052-35.684,171.557-61.325
		c6.897-14.126,18.316-21.302,33.945-21.302c10.704,0,19.454,3.547,19.541,3.585c0.461,0.188,0.974,0.192,1.435,0.005l55.08-22.027
		c0.446-0.178,0.802-0.509,1.013-0.94c1.786-3.687,3.149-7.935,4.152-12.557l-2.232,1.046L555.04,336.85z"/>
</g>
</svg>
