<?xml version="1.0" encoding="utf-8"?>
<!-- Generator: Adobe Illustrator 16.0.0, SVG Export Plug-In . SVG Version: 6.00 Build 0)  -->
<!DOCTYPE svg PUBLIC "-//W3C//DTD SVG 1.1//EN" "http://www.w3.org/Graphics/SVG/1.1/DTD/svg11.dtd">
<svg version="1.1" id="Layer_1" xmlns="http://www.w3.org/2000/svg" xmlns:xlink="http://www.w3.org/1999/xlink" x="0px" y="0px"
	 width="450px" height="450px" viewBox="175 75 450 450" enable-background="new 175 75 450 450" xml:space="preserve">
<g>
	<path d="M543.908,303.477c-23.432,0-42.425,18.993-42.425,42.425c0,23.431,18.993,42.433,42.425,42.433
		c23.431,0,42.429-19.002,42.429-42.433C586.337,322.47,567.344,303.477,543.908,303.477z M543.908,376.515
		c-16.905,0-30.604-13.704-30.604-30.609c0-16.909,13.699-30.609,30.604-30.609c16.909,0,30.609,13.7,30.609,30.609
		C574.521,362.806,560.817,376.515,543.908,376.515z"/>
	<circle cx="543.908" cy="345.901" r="19.232"/>
	<path d="M279.791,303.477c-23.431,0-42.429,18.993-42.429,42.425c0,23.431,18.994,42.433,42.429,42.433
		s42.429-19.002,42.429-42.433C322.22,322.47,303.226,303.477,279.791,303.477z M279.791,376.515
		c-16.905,0-30.609-13.704-30.609-30.609c0-16.909,13.705-30.609,30.609-30.609s30.613,13.7,30.613,30.609
		C310.404,362.806,296.7,376.515,279.791,376.515z"/>
	<circle cx="279.791" cy="345.901" r="19.232"/>
	<path d="M604.809,323.314c-2.536-2.118-3.451-8.962-4.053-13.496c-0.2-1.475-0.372-2.749-0.568-3.756
		c-0.518-2.611-0.939-5.294-1.379-8.13c-2.172-13.889-4.629-29.636-20.101-35.422c-4.993-1.864-10.274-2.674-15.384-3.451
		c-0.706-0.109-1.417-0.218-2.123-0.326c-8.823-1.387-17.849-2.068-26.576-2.729c-3.515-0.263-7.141-0.539-10.701-0.852
		c-2.921-0.263-5.832-0.522-8.753-0.786c-17.72-1.583-36.045-3.222-54.091-4.512c-1.11-0.08-2.227-0.146-3.346-0.218
		c-7.571-0.468-15.393-0.952-21.981-5.013c-0.915-0.564-2.574-1.801-4.68-3.368c-8.218-6.121-21.978-16.375-30.309-16.375
		c-3.229,0-5.481,1.546-6.513,4.467c-1.174,3.321-2.219,7.086-3.33,11.068c-4.492,16.065-9.577,34.265-25.7,37.662
		c-1.86,0.393-3.689,0.593-5.432,0.593c-10.057,0-18.205-6.509-24.217-19.349c-5.95-12.709-7.963-27.943-8.553-33.897
		c-0.865-8.745-4.629-13.759-10.328-13.759c-0.999,0-2.064,0.155-3.167,0.456c-12.681,3.497-27.58,7.893-41.966,13.955
		c-15.179,6.401-27.638,13.755-38.096,22.487c-16.83,14.047-29.802,34.161-38.556,59.776c-2.407,7.045-3.652,13.032-3.807,18.305
		c-0.117,3.886,1.237,7.312,4.024,10.179c9.484,9.772,32.874,10.266,37.465,10.266c0.339,0,0.522-0.004,0.522-0.004
		c0.639-0.009,1.157-0.531,1.157-1.179c0-25.103,20.423-45.521,45.529-45.521c25.098,0,45.521,20.418,45.521,45.521
		c0,0.652,0.531,1.179,1.178,1.179h170.715c0.648,0,1.175-0.526,1.175-1.179c0-25.103,20.423-45.521,45.521-45.521
		c23.748,0,43.695,18.53,45.408,42.178c0.046,0.618,0.56,1.095,1.17,1.095c0.021,0,0.041,0,0.059,0h0.041
		c0.456,0.046,2.528,0.234,5.102,0.234c6.823,0,10.889-1.3,12.088-3.86C610.136,334.945,608.645,326.515,604.809,323.314z
		 M375.437,293.177c2.386-1.358,4.567-2.904,6.518-4.621c2.77-2.411,5.306-5.265,7.746-8.72c2.11-2.991,4.061-6.309,5.966-10.132
		c1.153-2.311,2.261-4.726,3.343-7.308c-0.443,2.457-1.157,5.043-2.16,7.817c-1.446,3.911-3.326,7.521-5.582,10.726
		c-2.478,3.522-5.344,6.426-8.523,8.636C380.421,291.192,377.948,292.413,375.437,293.177z M435.656,330.124h-92.22
		c-3.367,0-6.029,1.316-7.671,2.42c-0.786,0.53-1.425,1.123-2.043,1.696c-0.794,0.734-1.542,1.433-2.377,1.708
		c-0.125,0.047-0.247,0.071-0.355,0.071c-0.217,0-0.422-0.088-0.56-0.242c-0.087-0.096-0.109-0.18-0.109-0.196
		c0.055-0.514,0.485-1.713,2.771-3.906c2.891-2.774,6.66-4.366,10.349-4.366h92.22v2.815H435.656z M452.787,296.01l4.053-1.688
		v-20.063c0-0.326,0.264-0.589,0.593-0.589c0.322,0,0.59,0.263,0.59,0.589v20.457c0,0.242-0.143,0.451-0.364,0.547l-4.416,1.838
		c-0.296,0.121-0.647-0.029-0.772-0.317C452.344,296.478,452.486,296.135,452.787,296.01z M444.97,296.01l4.058-1.688v-20.063
		c0-0.326,0.263-0.589,0.593-0.589c0.321,0,0.589,0.263,0.589,0.589v20.457c0,0.242-0.142,0.451-0.363,0.547l-4.416,1.838
		c-0.293,0.121-0.648-0.029-0.773-0.317C444.531,296.478,444.669,296.135,444.97,296.01z M447.08,329.368
		c0,0.325-0.264,0.594-0.59,0.594h-4.445c-0.321,0-0.589-0.264-0.589-0.594c0-0.322,0.263-0.589,0.589-0.589h3.86v-18.927
		l-4.278-4.271c-0.108-0.113-0.167-0.264-0.167-0.422c0-0.159,0.059-0.301,0.167-0.418c0.113-0.108,0.264-0.171,0.422-0.171
		c0.155,0,0.302,0.062,0.418,0.171l4.446,4.45c0.108,0.104,0.171,0.263,0.171,0.417v19.759H447.08z M455.135,329.368
		c0,0.325-0.263,0.594-0.589,0.594h-4.445c-0.321,0-0.59-0.264-0.59-0.594c0-0.322,0.265-0.589,0.59-0.589h3.86v-18.927
		l-4.274-4.271c-0.108-0.113-0.171-0.264-0.171-0.422c0-0.159,0.062-0.301,0.171-0.418c0.108-0.108,0.259-0.171,0.418-0.171
		s0.301,0.062,0.418,0.171l4.445,4.45c0.108,0.104,0.171,0.263,0.171,0.417v19.759H455.135z M463.199,329.368
		c0,0.325-0.264,0.594-0.594,0.594h-4.445c-0.322,0-0.589-0.264-0.589-0.594c0-0.322,0.263-0.589,0.589-0.589h3.861v-18.927
		l-4.271-4.271c-0.112-0.113-0.175-0.264-0.175-0.422c0-0.159,0.062-0.301,0.175-0.418c0.105-0.108,0.26-0.171,0.415-0.171
		c0.158,0,0.304,0.062,0.417,0.171l4.445,4.45c0.109,0.104,0.176,0.263,0.176,0.417v19.759H463.199z M461.052,297.1
		c-0.293,0.121-0.647-0.029-0.772-0.317c-0.122-0.301,0.016-0.644,0.316-0.773l4.053-1.688v-20.063c0-0.326,0.264-0.589,0.589-0.589
		c0.327,0,0.594,0.263,0.594,0.589v20.457c0,0.242-0.142,0.451-0.363,0.547L461.052,297.1z M471.259,329.368
		c0,0.325-0.264,0.594-0.589,0.594h-4.45c-0.321,0-0.589-0.264-0.589-0.594c0-0.322,0.263-0.589,0.589-0.589h3.864v-18.927
		l-4.273-4.271c-0.109-0.113-0.176-0.264-0.176-0.422c0-0.159,0.066-0.301,0.176-0.418c0.108-0.108,0.259-0.171,0.413-0.171
		c0.159,0,0.31,0.062,0.418,0.171l4.45,4.45c0.108,0.104,0.171,0.263,0.171,0.417v19.759H471.259z M473.645,294.71
		c0,0.242-0.143,0.451-0.363,0.547l-4.417,1.838c-0.297,0.121-0.647-0.029-0.772-0.317c-0.121-0.301,0.017-0.644,0.317-0.773
		l4.058-1.688v-20.063c0-0.326,0.263-0.589,0.584-0.589c0.326,0,0.594,0.263,0.594,0.589V294.71z M479.314,329.368
		c0,0.325-0.259,0.594-0.59,0.594h-4.449c-0.321,0-0.589-0.264-0.589-0.594c0-0.322,0.263-0.589,0.589-0.589h3.864v-18.927
		l-4.273-4.271c-0.109-0.113-0.176-0.264-0.176-0.422c0-0.159,0.066-0.301,0.176-0.418c0.108-0.108,0.263-0.171,0.413-0.171
		c0.163,0,0.31,0.062,0.423,0.171l4.445,4.45c0.108,0.104,0.171,0.263,0.171,0.417v19.759H479.314z M481.457,294.71
		c0,0.242-0.142,0.451-0.363,0.547l-4.416,1.838c-0.297,0.121-0.647-0.029-0.773-0.317c-0.121-0.301,0.021-0.644,0.318-0.773
		l4.057-1.688v-20.063c0-0.326,0.264-0.589,0.585-0.589c0.325,0,0.593,0.263,0.593,0.589V294.71z M487.378,329.368
		c0,0.325-0.264,0.594-0.589,0.594h-4.45c-0.321,0-0.589-0.264-0.589-0.594c0-0.322,0.264-0.589,0.589-0.589h3.865v-18.927
		l-4.278-4.271c-0.104-0.113-0.172-0.264-0.172-0.422c0-0.159,0.067-0.301,0.172-0.418c0.108-0.108,0.263-0.171,0.418-0.171
		c0.158,0,0.304,0.062,0.417,0.171l4.45,4.45c0.108,0.104,0.172,0.263,0.172,0.417v19.759H487.378z M489.271,294.71
		c0,0.242-0.142,0.451-0.363,0.547l-4.416,1.838c-0.293,0.121-0.647-0.029-0.773-0.317c-0.121-0.301,0.021-0.644,0.317-0.773
		l4.057-1.688v-20.063c0-0.326,0.264-0.589,0.59-0.589s0.589,0.263,0.589,0.589V294.71z M497.084,294.71
		c0,0.242-0.143,0.451-0.363,0.547l-4.417,1.838c-0.297,0.121-0.647-0.029-0.772-0.317c-0.122-0.301,0.021-0.644,0.317-0.773
		l4.053-1.688v-20.063c0-0.326,0.263-0.589,0.594-0.589c0.329,0,0.589,0.263,0.589,0.589V294.71z M504.896,294.71
		c0,0.242-0.142,0.451-0.363,0.547l-4.416,1.838c-0.297,0.121-0.644-0.029-0.773-0.317c-0.121-0.301,0.017-0.644,0.318-0.773
		l4.053-1.688v-20.063c0-0.326,0.263-0.589,0.589-0.589s0.593,0.263,0.593,0.589V294.71z M512.715,294.71
		c0,0.242-0.143,0.451-0.364,0.547l-4.416,1.838c-0.297,0.121-0.647-0.029-0.773-0.317c-0.121-0.301,0.017-0.644,0.317-0.773
		l4.054-1.688v-20.063c0-0.326,0.263-0.589,0.589-0.589s0.594,0.263,0.594,0.589V294.71z M520.527,294.71
		c0,0.242-0.146,0.451-0.364,0.547l-4.416,1.838c-0.296,0.121-0.647-0.029-0.772-0.317c-0.121-0.301,0.017-0.644,0.317-0.773
		l4.053-1.688v-20.063c0-0.326,0.263-0.589,0.594-0.589c0.321,0,0.589,0.263,0.589,0.589V294.71z"/>
</g>
</svg>
