<?xml version="1.0" encoding="utf-8"?>
<!-- Generator: Adobe Illustrator 16.0.0, SVG Export Plug-In . SVG Version: 6.00 Build 0)  -->
<!DOCTYPE svg PUBLIC "-//W3C//DTD SVG 1.1//EN" "http://www.w3.org/Graphics/SVG/1.1/DTD/svg11.dtd">
<svg version="1.1" id="Layer_1" xmlns="http://www.w3.org/2000/svg" xmlns:xlink="http://www.w3.org/1999/xlink" x="0px" y="0px"
	 width="120px" height="225px" viewBox="0 0 120 225" enable-background="new 0 0 120 225" xml:space="preserve">
<path fill="#DF2A29" stroke="#231F20" stroke-width="3" d="M40.681,70.465L21.574,84.112c0,0-11.464-18.016-11.464-31.118
	S23.211,4.409,57.604,4.409c34.393,0,52.954,28.389,52.954,52.408c0,24.019-36.577,53.499-42.581,58.412
	c-6.005,4.913-21.837,18.562-17.47,25.659c4.367,7.096,13.648,8.187,20.199,3.82s1.638,3.275,1.638,3.275l-8.734,21.291
	c0,0-12.556,4.369-20.745-1.091c-8.188-5.46-18.015-19.106-18.015-29.479c0-10.374,8.189-22.382,15.832-31.117
	c7.643-8.736,21.837-19.653,27.843-24.566c6.004-4.914,13.1-14.194,15.83-20.746c2.73-6.551,4.913-18.561-3.275-26.75
	c-8.188-8.188-22.929-12.011-27.842-10.374s-16.923,8.189-18.561,15.833c-1.638,7.643-3.821,13.647-1.638,18.561
	C35.221,64.459,40.681,70.465,40.681,70.465z"/>
<circle fill="#DF2A29" stroke="#231F20" stroke-width="3" cx="56.513" cy="202.032" r="18.562"/>
</svg>
