<?xml version="1.0" encoding="utf-8"?>
<!-- Generator: Adobe Illustrator 16.0.0, SVG Export Plug-In . SVG Version: 6.00 Build 0)  -->
<!DOCTYPE svg PUBLIC "-//W3C//DTD SVG 1.1//EN" "http://www.w3.org/Graphics/SVG/1.1/DTD/svg11.dtd">
<svg version="1.1" id="Layer_1" xmlns="http://www.w3.org/2000/svg" xmlns:xlink="http://www.w3.org/1999/xlink" x="0px" y="0px"
	 width="200px" height="200px" viewBox="0 0 200 200" enable-background="new 0 0 200 200" xml:space="preserve">
<g>
	<path fill-rule="evenodd" clip-rule="evenodd" fill="#292D28" d="M2.802,126.028c-0.211-10.192-0.429-20.391-0.634-30.59
		c-0.059-2.955,0.951-3.899,3.842-4.42c7.403-1.34,14.797-2.729,22.153-4.296C38.857,84.444,49.516,82,60.189,79.618
		c2.459-0.551,2.528-0.923,1.643-3.185c-0.341-0.872-0.333-2.214,0.11-3.016c6.374-11.528,12.83-23.011,19.309-34.483
		c3.388-6.001,6.907-11.932,10.263-17.954c0.602-1.077,1.229-1.465,2.386-1.381c7.985,0.581,15.968,1.176,23.957,1.685
		c13.044,0.831,26.098,1.583,39.143,2.383c9.909,0.609,19.819,1.194,29.715,1.932c1.133,0.083,2.58,0.803,3.218,1.7
		c2.649,3.72,5.23,7.519,7.42,11.519c0.682,1.249,0.627,3.532-0.071,4.809c-3.906,7.191-8.031,14.266-12.237,21.289
		c-4.701,7.852-9.566,15.606-14.351,23.408c-1.322,2.15-2.652,4.295-3.903,6.49c-0.565,0.99-0.978,2.069-1.405,3.133
		c-0.626,1.564-2.674,2.652-4.496,2.196c-1.603-0.401-2.477-0.108-2.465,1.751c0.012,1.501-0.226,3.003-0.212,4.504
		c0.07,8.967,0.2,17.935,0.269,26.899c0.035,4.916,0.021,9.834-0.019,14.751c-0.026,3.049-1.448,4.636-4.27,5.776
		c-5.054,2.042-10.096,4.135-15.006,6.502c-12.885,6.211-25.7,12.569-38.527,18.902c-2.691,1.327-5.261,1.565-8.22,0.577
		c-10.892-3.635-21.849-7.072-32.805-10.521c-12.905-4.061-25.825-8.066-38.745-12.07c-4.966-1.538-9.954-2.983-14.919-4.516
		c-2.552-0.787-3.299-1.859-3.299-4.491c-0.005-7.389-0.005-14.78-0.005-22.174C2.712,126.033,2.757,126.033,2.802,126.028z
		 M141.403,148.276c1.257-0.996,2.404-2.19,3.79-2.948c2.087-1.129,2.97-2.547,2.931-5.029c-0.173-12.233-0.172-24.476-0.19-36.716
		c-0.003-3.072-1.04-3.991-3.994-3.124c-3.112,0.917-6.203,1.923-9.27,2.988c-7.688,2.666-15.392,5.31-23.031,8.119
		c-4.707,1.731-4.745,1.864-4.653,6.82c0.199,10.782,0.501,21.561,0.741,32.342c0.012,0.465-0.191,0.931-0.213,1.397
		c-0.111,2.641-0.445,5.3-0.224,7.909c0.199,2.378,0.87,2.623,3.051,1.646c6.731-3.02,13.404-6.166,20.167-9.111
		c3.327-1.454,6.439-3.604,10.272-3.669c-0.138,0.184-0.233,0.455-0.419,0.541c-3.571,1.669-7.153,3.315-10.729,4.974
		c-7.175,3.314-14.348,6.637-21.529,9.943c-1.279,0.589-2.146,0.236-2.327-1.244c-0.134-1.086-0.264-2.176-0.281-3.267
		c-0.22-14.512-0.42-29.021-0.628-43.529c-0.011-0.663-0.076-1.322-0.138-2.329c-1.807,0.474-3.347,0.921-4.914,1.273
		c-1.888,0.427-2.586,1.448-2.582,3.464c0.047,18.822-0.01,37.643-0.025,56.459c-0.002,1.964,0.351,2.179,2.163,1.353
		c8.566-3.887,17.163-7.706,25.667-11.732c9.493-4.493,18.894-9.187,28.344-13.777c1.018-0.493,1.519-1.118,1.525-2.355
		c0.018-4.651,0.199-9.306,0.272-13.956c0.16-10.951,0.299-21.9,0.437-32.854c0.021-1.747,0.002-3.495,0.002-5.478
		c-1.067,0.207-1.72,0.322-2.364,0.462c-3.282,0.703-4.021,1.765-3.627,5.139c0.087,0.744,0.095,1.505,0.09,2.255
		c-0.108,11.911-0.26,23.819-0.333,35.727c-0.03,6.331,0.656,5.002-5.07,7.748C143.451,148.128,142.378,148.101,141.403,148.276z
		 M177.313,41.171c-0.67-1.417-1.602-2.431-3.32-2.567c-6.655-0.527-13.306-1.132-19.961-1.644
		c-5.313-0.409-10.635-0.687-15.943-1.083c-6.057-0.451-12.099-1.007-18.152-1.442c-4.428-0.317-8.864-0.567-13.3-0.746
		c-4.507-0.185-8.482,0.022-10.918,5.181c-3.316,7.021-7.52,13.625-11.347,20.403c-1.999,3.54-4.026,7.068-6.012,10.615
		c-1.064,1.907-0.757,2.651,1.375,3.436c0.56,0.208,1.16,0.312,1.751,0.413c3.209,0.532,6.411,1.162,9.64,1.493
		c0.869,0.093,2.115-0.492,2.687-1.18c0.842-1.021,0.056-1.827-1.029-2.33c-0.667-0.306-1.274-0.755-1.885-1.171
		c-2.435-1.655-2.265-4,0.393-5.538c0.448,0.55,0.891,1.101,1.354,1.669c-0.429,0.335-0.929,0.721-1.602,1.244
		c2.146,1.785,3.931,3.911,6.213,4.971c2.002,0.93,4.557,0.666,7.158,0.963c-0.573-1.574-1.104-2.761-1.404-4.001
		c-0.125-0.533,0.229-1.181,0.363-1.777c0.653,0.238,1.579,0.292,1.891,0.759c0.504,0.75,0.749,1.756,0.846,2.68
		c0.295,2.839,1.662,3.727,4.458,2.867c2.191-0.67,2.504-2.679,3.312-4.36c0.437-0.909,0.978-1.767,1.603-2.887
		c2.04,2.325-0.452,3.656-0.367,5.698c3.892-2.03,7.542-3.896,8.892-8.296c0.805-2.626-0.845-5.024-3.586-5.15
		c-1.287-0.059-2.601,0.085-3.876,0.288c-2.056,0.326-3.908,0.11-5.545-1.329c-0.327-0.291-1.034-0.446-1.436-0.302
		c-1.446,0.518-2.821,1.225-4.252,1.797c-1.11,0.449-2.393,1.337-3.379,1.105c-3.704-0.885-6.774,0.192-9.665,2.329
		c0.06-0.611-0.075-1.628,0.209-1.764c1.464-0.689,3.042-1.618,4.569-1.601c3.225,0.032,6.128-0.583,9.006-2.063
		c1.479-0.762,3.659-1.521,4.982-0.973c3.133,1.297,6.202,1.363,9.397,1.001c2.229-0.252,3.672,0.84,4.655,2.626
		c1.029,1.858,1.197,3.848,0.658,5.94c-0.696,2.709-3.036,3.917-4.906,5.532c-1.471,1.269-1.516,2.188,0.111,3.248
		c0.274,0.176,0.531,0.376,0.786,0.573c4.702,3.622,9.751,6.265,15.919,6.35c2.132,0.028,4.25,0.79,6.376,1.217
		c-1.187,0.012-2.373,0.098-3.55,0.015c-2.452-0.168-4.895-0.428-7.671-0.68c1.39,2.337,2.919,3.383,5.268,3.6
		c4.418,0.407,8.803,1.185,13.218,1.673c0.698,0.077,1.809-0.33,2.16-0.877c4.009-6.268,8.017-12.538,11.809-18.938
		c6.219-10.504,12.3-21.09,18.38-31.671c1.61-2.799,3.017-5.709,4.686-8.893c-1.492-0.222-2.354-0.42-3.229-0.473
		c-12.027-0.713-24.05-1.442-36.078-2.094c-17.083-0.926-34.183-1.626-51.248-2.807c-3.47-0.241-5.176,1.073-6.749,3.535
		c-0.074,0.118-0.125,0.244-0.193,0.363c-4.728,8.294-9.487,16.571-14.178,24.888c-4.198,7.43-8.293,14.919-12.498,22.349
		c-0.855,1.514-0.403,2.153,1.122,2.366c2.234,0.317,4.473,0.567,6.708,0.88c5.75,0.805,11.499,1.626,17.248,2.443
		c1.286,0.184,2.214-0.178,2.716-1.735c-1.598-0.331-3.038-0.72-4.502-0.915c-5.759-0.763-11.522-1.469-17.288-2.186
		c-2.416-0.3-3.162-1.75-1.976-3.814c2.036-3.548,4.036-7.114,6.048-10.672c6.407-11.326,12.816-22.645,19.2-33.978
		c0.765-1.358,1.736-1.758,3.33-1.633c10.915,0.858,21.834,1.713,32.764,2.346c14.69,0.853,29.392,1.499,44.09,2.245
		c2.598,0.129,5.203,0.198,7.776,0.509c1.167,0.142,2.771,0.786,1.901,2.359C181.477,34.865,179.328,37.98,177.313,41.171z
		 M87.719,115.655c0,3.854-0.089,7.415,0.04,10.969c0.062,1.779-0.681,2.543-2.309,2.643c-0.738,0.046-1.516,0.06-2.231-0.108
		c-6.843-1.581-13.665-3.26-20.525-4.771c-1.505-0.333-2.301-1.17-2.67-2.44c-0.36-1.228-0.588-2.543-0.588-3.821
		c0-2.118,0.123-4.248,0.394-6.344c0.279-2.175-0.727-3.049-2.698-3.445c-4.411-0.882-8.794-1.887-13.198-2.821
		c-1.37-0.29-2.241,0.533-2.251,1.706c-0.029,3.045,0.193,6.095,0.34,9.736c1.647-2.051,2.871-3.659,4.188-5.181
		c0.988-1.146,1.935-2.471,3.196-3.201c2.205-1.273,3.842-0.398,4.722,1.987c0.373,1.004,1.011,1.912,1.487,2.883
		c0.6,1.229,1.662,2.493,1.629,3.719c-0.085,3.531-0.596,7.055-0.994,10.574c-0.284,2.498,0.41,3.356,2.912,3.855
		c8.217,1.641,16.426,3.309,24.621,5.049c3.171,0.674,4.429,2.435,4.369,5.703c-0.134,7.391-0.272,14.783-0.442,22.176
		c-0.016,0.688-0.269,1.37-0.447,2.227c-4.853-1.387-9.454-2.615-13.998-4.021c-13.225-4.09-26.417-8.282-39.643-12.363
		c-6.12-1.894-12.28-3.656-18.441-5.398c-1.887-0.533-2.764-1.366-2.703-3.538c0.149-5.199,0.088-10.411-0.126-15.604
		c-0.091-2.186,0.426-3.863,2.38-5.376c6.443,1.666,13.081,3.385,19.869,5.14c0.884-2.114,1.948-4.646,3.07-7.318
		c-0.4-0.127-0.889-0.329-1.397-0.438c-6.198-1.348-12.398-2.698-18.604-4.021c-4.499-0.963-5.745-2.565-5.501-7.176
		c0.105-1.979,0.345-3.963,0.286-5.937c-0.021-0.729-0.551-1.734-1.158-2.09c-1.026-0.604-2.286-0.837-3.468-1.149
		c-1.841-0.488-2.881,0.373-2.855,2.271c0.103,7.252,0.139,14.511,0.314,21.764c0.228,9.363,0.568,18.726,0.861,28.018
		c12.209,3.87,24.106,7.59,35.968,11.417c10.892,3.515,21.753,7.127,32.616,10.723c5.895,1.952,11.762,3.975,17.657,5.925
		c1.915,0.632,2.549,0.196,2.569-1.741c0.2-19.029,0.389-38.057,0.529-57.09c0.004-0.622-0.392-1.487-0.886-1.825
		C92.594,115.552,90.31,115.405,87.719,115.655z M85.583,151.995c0.023,0,0.043,0,0.064,0c0-3.352-0.041-6.706,0.019-10.058
		c0.03-1.791-0.723-2.747-2.469-3.161c-8.789-2.077-17.578-4.167-26.336-6.363c-1.355-0.338-2.187-0.009-3.077,0.896
		c-1.089,1.106-2.163,2.286-3.442,3.135c-4.796,3.188-13.819,0.18-15.625-6.251c-0.471-1.675-1.214-2.925-3.1-3.348
		c-4.3-0.966-8.577-2.044-12.862-3.081c-2.957-0.718-3.931-0.092-3.88,2.871c0.083,4.981,0.25,9.967,0.603,14.936
		c0.054,0.783,1.129,1.896,1.956,2.162c5.624,1.817,11.31,3.438,16.971,5.138c7.007,2.104,14.014,4.211,21.016,6.343
		c5.852,1.78,11.677,3.648,17.542,5.384c3.637,1.073,7.326,1.971,10.99,2.94c1.304,0.347,1.679-0.209,1.653-1.484
		C85.54,158.701,85.583,155.351,85.583,151.995z M105.531,81.43c-0.55-0.881-1.474-1.135-2.845-0.382
		c-0.499,0.272-1.675-0.09-2.176-0.557c-1.189-1.101-2.101-2.503-3.264-3.639c-0.308-0.301-1.441-0.34-1.657-0.069
		c-3.738,4.697-7.472,9.399-11.042,14.222c-3.288,4.449-5.41,9.326-4.427,15.302c1.775,0.426,3.609,0.954,5.476,1.284
		c1.537,0.271,2.294-0.432,2.539-2.102c0.346-2.373,1.045-4.694,1.593-7.04c0.218,0.03,0.436,0.059,0.651,0.086
		c0,0.789,0.009,1.577-0.002,2.362c-0.023,1.839-0.258,3.7-0.035,5.507c0.276,2.247,1.746,3.094,3.985,2.697
		c5.053-0.904,5.856-1.745,6.454-6.788c0.032-0.271-0.005-0.559,0.069-0.817c0.443-1.639,0.915-3.275,1.375-4.911
		c0.244,0.048,0.493,0.098,0.736,0.147c-0.1,2.137-0.328,4.281-0.26,6.413c0.08,2.635,1.316,3.354,3.776,2.558
		c3.481-1.129,6.99-2.171,10.476-3.3c1.096-0.354,2.15-0.853,3.22-1.302c1.863-0.785,2.009-2.25,1.454-3.911
		c-0.28-0.837-0.795-1.598-1.066-2.437c-0.275-0.846-0.387-1.745-0.564-2.621c0.813,0.108,1.279,0.316,1.493,0.676
		c0.856,1.462,1.841,2.896,2.39,4.478c0.665,1.934,1.513,2.663,3.563,1.806c2.135-0.888,4.376-1.514,6.572-2.252
		c2.595-0.871,2.634-0.956,1.908-3.597c-1.411-5.142-3.668-9.681-8.552-12.46c-2.186-1.244-4.338-2.561-6.413-3.97
		c-2.678-1.815-5.316-0.815-5.379,2.434c-0.072,3.722,0.444,7.455,0.674,11.184c0.059,0.945,0.009,1.895,0.009,2.843
		c-0.625-0.345-0.79-0.709-0.866-1.09c-0.481-2.479-0.826-4.988-1.438-7.43c-0.62-2.478-2.465-3.997-4.869-4.457
		C108.131,80.115,106.985,80.936,105.531,81.43z M180.387,31.154c-1.233,0-2.391,0.06-3.537-0.007
		c-11.331-0.666-22.663-1.354-33.998-2.035c-6.076-0.364-12.154-0.749-18.231-1.086c-9.157-0.511-18.311-1.036-27.469-1.403
		c-0.915-0.037-2.214,0.746-2.743,1.541c-1.696,2.55-3.111,5.287-4.637,7.948c-4.847,8.469-9.705,16.932-14.538,25.41
		c-1.768,3.103-3.476,6.238-5.307,9.532c0.994,0.428,1.709,0.845,2.48,1.046c2.979,0.77,3.191,0.696,4.699-1.924
		c2.073-3.609,4.165-7.211,6.108-10.888c4.571-8.67,10.546-16.565,14.178-25.762c0.284-0.718,1.532-1.522,2.311-1.499
		c4.785,0.135,9.571,0.438,14.346,0.794c8.304,0.621,16.602,1.353,24.904,1.985c11.855,0.906,23.713,1.743,35.571,2.666
		C177.826,37.727,180.653,35.002,180.387,31.154z M21.828,98.438c0.812,0.304,1.081,0.44,1.365,0.502
		c6.002,1.291,12.005,2.594,18.015,3.859c8.208,1.734,16.441,3.36,24.632,5.174c7.983,1.77,15.915,3.782,23.899,5.56
		c2.812,0.625,5.577,1.576,8.613,0.334c4.854-1.986,9.836-3.692,14.819-5.365c12.159-4.088,24.349-8.076,36.52-12.126
		c1.613-0.538,3.218-1.131,4.745-1.869c0.599-0.29,1.43-1.16,1.337-1.58c-0.143-0.626-0.973-1.479-1.575-1.542
		c-1.225-0.12-2.59-0.023-3.724,0.423c-7.154,2.835-14.175,6.047-21.413,8.641c-9.309,3.333-18.785,6.184-28.175,9.287
		c-3.209,1.062-6.402,1.944-9.821,1.151c-4.518-1.046-9.021-2.135-13.56-3.074c-7.747-1.606-15.516-3.115-23.277-4.664
		c-6.819-1.36-13.616-2.864-20.473-4.006C30.037,98.521,26.318,97.028,21.828,98.438z M61.974,109.698
		c0,2.923-0.018,5.36,0.005,7.801c0.039,4.13,0.449,4.754,4.451,5.788c3.417,0.885,6.888,1.55,10.328,2.345
		c1.861,0.435,3.689,1.003,5.554,1.401c2.155,0.46,3.248-0.414,3.265-2.499c0.022-2.877,0.11-5.752-0.024-8.622
		c-0.03-0.607-0.795-1.552-1.385-1.701c-4.375-1.127-8.774-2.158-13.199-3.071C68.131,110.55,65.242,110.21,61.974,109.698z
		 M15.049,99.588c0,3.553-0.072,6.934,0.064,10.305c0.024,0.661,0.708,1.563,1.329,1.885c1.377,0.705,2.868,1.286,4.38,1.615
		c4.64,1.008,9.312,1.876,13.97,2.801c2.126,0.421,3.479-0.175,4.096-2.188c0.528-1.73,0.852-3.56,0.99-5.361
		c0.251-3.325-0.093-3.616-3.296-4.406c-3.935-0.968-7.833-2.123-11.788-2.996C21.627,100.545,18.394,100.145,15.049,99.588z
		 M50.357,99.877c0.11,0.206,0.22,0.415,0.332,0.619c8.534,1.66,17.069,3.32,25.769,5.017c0.285-3.893,0.505-7.197-3.851-8.409
		c0.985-2.102,1.888-4,2.759-5.911c0.19-0.417,0.44-0.928,0.357-1.333c-0.416-1.996-5.677-4.642-7.199-3.366
		c-2.046,1.718-4.065,1.532-6.32,1.067c-0.508-0.104-1.093-0.046-1.605,0.09c-1.87,0.503-3.748,0.993-5.571,1.639
		c-1.354,0.477-2.623,1.189-3.931,1.799c0.644,1.208,1.152,2.515,1.958,3.598c0.98,1.313,1.069,2.205-0.449,3.14
		C51.758,98.351,51.102,99.184,50.357,99.877z M15.403,95.375c0.04-0.284,0.08-0.573,0.12-0.857c1.082-0.324,2.145-0.749,3.25-0.948
		c4.088-0.741,8.225-1.254,12.28-2.138c7.523-1.641,15.031-3.38,22.49-5.282c5.078-1.296,10.07-2.919,15.079-4.475
		c0.475-0.146,0.772-0.87,1.152-1.326c-0.488-0.248-0.964-0.681-1.465-0.71c-0.938-0.056-1.925-0.009-2.83,0.233
		c-4.412,1.181-8.781,2.519-13.205,3.628c-1.698,0.426-3.551,0.211-5.261,0.6c-13.158,3.002-26.298,6.072-39.436,9.157
		c-0.689,0.16-1.305,0.633-1.956,0.96c0.03,0.256,0.058,0.514,0.086,0.769c4.728,1.155,9.453,2.345,14.203,3.419
		c0.466,0.104,1.092-0.492,1.644-0.761c-0.454-0.372-0.852-0.92-1.373-1.081C18.615,96.087,17,95.761,15.403,95.375z
		 M46.824,133.523c3.165-3.061,4.134-4.798,3.895-7.246c-0.148-1.544-0.286-3.185-2.576-3.194c-0.621-0.005-1.322-0.648-1.838-1.152
		c-0.829-0.803-1.478-1.791-2.303-2.598c-1.889-1.855-3.918-1.761-5.327,0.471c-0.959,1.514-1.977,3.284-2.092,4.997
		c-0.453,6.651,0.732,11.538,8.893,10.639c0.205-0.024,0.41-0.019,0.615-0.02c4.307-0.119,8.819-4.409,8.927-8.693
		c0.02-0.737-0.751-1.947-1.393-2.134c-0.958-0.28-1.946,0.284-2.055,1.652c-0.073,0.937-0.234,1.912-0.592,2.771
		C50.22,130.843,49.675,132.921,46.824,133.523z M178.343,72.651c-0.335-0.5-0.535-0.946-0.863-1.268
		c-1.783-1.768-3.619-3.481-5.396-5.259c-1.36-1.361-2.32-0.99-3.189,0.534c-2.086,3.648-4.151,7.303-6.348,10.885
		c-0.683,1.116-0.535,1.842,0.31,2.684c1.579,1.575,3.098,3.208,4.673,4.789c1.681,1.687,1.974,1.669,3.333-0.436
		c1.982-3.089,3.902-6.217,5.851-9.33C177.252,74.394,177.787,73.537,178.343,72.651z M190.88,50.041
		c-0.479-0.909-0.843-1.954-1.501-2.754c-1.248-1.515-2.725-2.841-4.002-4.336c-1.356-1.587-1.896-1.677-2.988,0.169
		c-1.656,2.79-3.223,5.638-4.639,8.555c-0.307,0.636-0.061,1.83,0.369,2.479c1.153,1.748,2.559,3.326,3.84,4.992
		c1.987,2.581,2.868,2.452,4.246-0.119c0.245-0.458,0.706-0.829,1.127-1.165C189.783,55.887,189.67,52.82,190.88,50.041z
		 M77.719,97.081c0.429-0.589,0.641-0.849,0.817-1.129c2.524-4.005,4.729-8.236,8.4-11.408c0.412-0.356,0.769-1.099,0.705-1.606
		c-0.072-0.552-0.593-1.401-1.045-1.494c-3.379-0.676-6.782-1.252-10.196-1.727c-0.899-0.125-1.881,0.154-2.793,0.37
		c-1.028,0.245-1.365,0.981-0.729,1.842c1.001,1.35,2.01,2.727,3.223,3.878c2.195,2.084,2.574,3.881,1.129,6.392
		C76.319,93.788,76.273,95.342,77.719,97.081z M189.663,30.802c-0.332,0.1-0.932,0.102-1.065,0.352
		c-1.249,2.314-2.461,4.653-3.567,7.041c-0.22,0.478-0.152,1.386,0.17,1.768c1.869,2.226,3.807,4.404,5.854,6.469
		c0.309,0.314,1.508,0.218,1.937-0.131c2.569-2.07,3.149-5.618,1.383-8.483C192.911,35.447,191.272,33.185,189.663,30.802z
		 M159.802,81.754c-1.156,1.521-2.422,2.824-3.212,4.371c-0.519,1.017-0.902,2.765-0.38,3.527c1.479,2.163,3.45,3.993,5.235,5.943
		c0.703,0.764,1.351,0.84,1.944-0.164c1.099-1.873,2.271-3.704,3.34-5.595c0.194-0.346,0.244-1.03,0.035-1.314
		C164.866,85.969,163.062,83.304,159.802,81.754z M175.419,55.14c-0.303,0.33-0.603,0.587-0.813,0.899
		c-0.72,1.077-1.354,2.206-2.112,3.251c-1.179,1.625-1.108,3.211,0.178,4.657c1.396,1.565,2.851,3.1,4.432,4.476
		c1.143,0.997,2.295,0.574,3.101-0.661c0.67-1.025,1.42-2.023,1.903-3.135c0.264-0.613,0.361-1.666,0.01-2.121
		c-1.77-2.304-3.705-4.485-5.609-6.683C176.263,55.539,175.849,55.4,175.419,55.14z M115.896,75.037
		c-5.753,1.952-11.517,0.802-17.605-0.086c1.872,1.193,3.289,2.255,4.844,3.058C106.428,79.714,113.339,78.189,115.896,75.037z
		 M53.039,110.622c-2.401-1.265-4.051-0.815-5.44,0.91c-1.476,1.826-2.139,4.913-0.987,5.774c0.81,0.604,2.506,1.136,3.077,0.712
		c1.089-0.802-0.013-1.662-0.783-2.394c-1.332-1.267-0.752-2.91,1.132-3.589C50.901,111.725,51.712,111.253,53.039,110.622z
		 M50.995,113.911c0.627,1.573,1.499,2.926,1.64,4.352c0.152,1.515-0.389,3.101-0.653,4.832c2.022-0.747,3.704-3.887,3.362-5.726
		C55.011,115.587,53.055,113.927,50.995,113.911z M46.517,119.671c0.971,1.906,2.599,1.3,3.878,1.563
		c0.191,0.04,0.508-0.52,0.767-0.803c-0.325-0.255-0.635-0.695-0.978-0.726C49.055,119.611,47.917,119.671,46.517,119.671z"/>
	<path fill-rule="evenodd" clip-rule="evenodd" fill="#2799D2" d="M91.29,65.012c-2.657,1.538-2.828,3.883-0.393,5.538
		c0.611,0.416,1.218,0.865,1.885,1.171c1.085,0.502,1.872,1.308,1.029,2.33c-0.571,0.688-1.818,1.272-2.687,1.18
		c-3.229-0.331-6.43-0.96-9.64-1.493c-0.591-0.1-1.191-0.205-1.751-0.413c-2.131-0.785-2.438-1.528-1.375-3.436
		c1.986-3.547,4.013-7.075,6.012-10.615c3.827-6.778,8.031-13.382,11.347-20.403c2.436-5.159,6.412-5.366,10.918-5.181
		c4.436,0.179,8.872,0.429,13.3,0.746c6.054,0.435,12.096,0.991,18.152,1.442c5.309,0.396,10.63,0.674,15.943,1.083
		c6.655,0.511,13.306,1.116,19.961,1.644c1.719,0.136,2.65,1.151,3.32,2.567c-0.271,0.454-0.539,0.906-0.812,1.356
		c-0.577,0.41-1.34,0.696-1.702,1.248c-1.51,2.333-2.959,4.717-4.326,7.142c-1.964,3.481-3.511,7.242-5.808,10.479
		c-4.645,6.557-8.674,13.426-12.035,20.704l0.063-0.063c-0.874,0.536-1.719,1.453-2.629,1.533c-1.798,0.157-3.638-0.149-5.458-0.264
		c-0.192,0.019-0.384,0.037-0.576,0.057c-2.126-0.428-4.244-1.189-6.376-1.217c-6.168-0.084-11.217-2.728-15.919-6.35
		c-0.255-0.197-0.512-0.397-0.786-0.573c-1.627-1.059-1.582-1.979-0.111-3.248c1.87-1.615,4.21-2.822,4.906-5.532
		c0.539-2.092,0.371-4.082-0.658-5.94c-0.983-1.786-2.426-2.878-4.655-2.626c-3.195,0.362-6.265,0.296-9.397-1.001
		c-1.323-0.549-3.503,0.211-4.982,0.973c-2.878,1.479-5.781,2.095-9.006,2.063c-1.527-0.017-3.105,0.912-4.569,1.601
		c-0.284,0.136-0.15,1.153-0.209,1.764C91.942,63.855,91.617,64.435,91.29,65.012z"/>
	<path fill-rule="evenodd" clip-rule="evenodd" fill="#EEEDEC" d="M87.719,115.655c2.591-0.25,4.875-0.104,6.879,1.262
		c0.494,0.338,0.89,1.203,0.886,1.825c-0.141,19.033-0.329,38.061-0.529,57.09c-0.02,1.938-0.655,2.373-2.569,1.741
		c-5.895-1.95-11.762-3.973-17.657-5.925c-10.862-3.596-21.724-7.208-32.616-10.723c-11.861-3.827-23.758-7.547-35.968-11.417
		c-0.292-9.292-0.633-18.654-0.861-28.018c-0.176-7.253-0.211-14.512-0.314-21.764c-0.026-1.898,1.014-2.759,2.855-2.271
		c1.182,0.312,2.442,0.544,3.468,1.149c0.607,0.356,1.137,1.361,1.158,2.09c0.06,1.974-0.18,3.957-0.286,5.937
		c-0.244,4.61,1.002,6.213,5.501,7.176c6.205,1.323,12.405,2.674,18.604,4.021c0.508,0.109,0.997,0.312,1.397,0.438
		c-1.122,2.673-2.186,5.204-3.07,7.318c-6.788-1.755-13.425-3.474-19.869-5.14c-1.954,1.513-2.471,3.19-2.38,5.376
		c0.215,5.193,0.275,10.405,0.126,15.604c-0.061,2.172,0.816,3.005,2.703,3.538c6.162,1.742,12.321,3.505,18.441,5.398
		c13.227,4.081,26.418,8.273,39.643,12.363c4.544,1.406,9.146,2.635,13.998,4.021c0.178-0.856,0.431-1.539,0.447-2.227
		c0.169-7.393,0.308-14.785,0.442-22.176c0.061-3.269-1.197-5.029-4.369-5.703c-8.194-1.74-16.403-3.408-24.621-5.049
		c-2.502-0.499-3.196-1.357-2.912-3.855c0.398-3.52,0.909-7.043,0.994-10.574c0.032-1.226-1.03-2.49-1.629-3.719
		c-0.477-0.971-1.115-1.879-1.487-2.883c-0.88-2.386-2.517-3.261-4.722-1.987c-1.262,0.73-2.208,2.056-3.196,3.201
		c-1.317,1.521-2.541,3.13-4.188,5.181c-0.147-3.642-0.37-6.691-0.34-9.736c0.01-1.173,0.882-1.996,2.251-1.706
		c4.403,0.935,8.787,1.939,13.198,2.821c1.971,0.396,2.978,1.271,2.698,3.445c-0.271,2.096-0.394,4.226-0.394,6.344
		c0,1.278,0.228,2.594,0.588,3.821c0.369,1.271,1.166,2.107,2.67,2.44c6.86,1.512,13.683,3.19,20.525,4.771
		c0.716,0.168,1.494,0.154,2.231,0.108c1.628-0.1,2.372-0.863,2.309-2.643C87.63,123.07,87.719,119.509,87.719,115.655z
		 M38.693,155.565c-0.921-0.653-1.428-1.243-2.014-1.343c-0.352-0.058-0.831,0.657-1.253,1.021c0.49,0.477,0.913,1.111,1.499,1.357
		C37.211,156.72,37.801,156.112,38.693,155.565z M89.151,172c0.043,0.397,0.088,0.793,0.132,1.191
		c0.765-0.05,1.529-0.104,2.294-0.159c-0.042-0.607-0.083-1.222-0.128-1.829C90.685,171.47,89.92,171.737,89.151,172z
		 M11.941,147.423c-1.138-0.631-1.739-1.133-2.409-1.259c-0.298-0.057-0.741,0.643-1.116,0.999c0.563,0.473,1.068,1.081,1.716,1.351
		C10.407,148.629,10.977,148.03,11.941,147.423z M8.747,129.946c-0.438,0.666-0.898,1.064-0.83,1.324
		c0.15,0.585,0.564,1.1,0.871,1.642c0.393-0.378,1.12-0.777,1.099-1.132C9.856,131.26,9.291,130.766,8.747,129.946z M64.286,164.604
		c0.185,0.252,0.37,0.503,0.554,0.755c0.651-0.327,1.304-0.655,1.957-0.98c-0.34-0.414-0.68-0.826-1.021-1.24
		C65.279,163.626,64.783,164.113,64.286,164.604z M10.881,117.438c-0.632-0.732-1.035-1.198-1.435-1.662
		c-0.343,0.418-0.934,0.816-0.958,1.254c-0.023,0.437,0.423,1.145,0.828,1.288C9.624,118.431,10.181,117.856,10.881,117.438z
		 M92.633,135.328c0.011-0.362,0.021-0.721,0.033-1.083c-0.712-0.074-1.426-0.197-2.135-0.166c-0.079,0.006-0.115,0.899-0.168,1.381
		C91.117,135.415,91.876,135.371,92.633,135.328z M78.062,169.596c0.339-0.247,0.679-0.497,1.02-0.741
		c-0.461-0.614-0.881-1.271-1.428-1.796c-0.084-0.083-0.754,0.448-1.15,0.697C77.022,168.366,77.541,168.979,78.062,169.596z
		 M53.918,160.1c-0.844-0.409-1.316-0.824-1.762-0.797c-0.364,0.022-0.699,0.566-1.046,0.881c0.469,0.378,0.891,0.886,1.423,1.061
		C52.763,161.318,53.22,160.698,53.918,160.1z"/>
	<path fill-rule="evenodd" clip-rule="evenodd" fill="#2799D2" d="M140.78,148.9c-3.833,0.064-6.945,2.215-10.272,3.669
		c-6.763,2.945-13.436,6.092-20.167,9.111c-2.181,0.978-2.852,0.732-3.051-1.646c-0.222-2.609,0.112-5.269,0.224-7.909
		c0.021-0.467,0.225-0.933,0.213-1.397c-0.24-10.781-0.542-21.56-0.741-32.342c-0.092-4.956-0.054-5.089,4.653-6.82
		c7.64-2.81,15.343-5.453,23.031-8.119c3.066-1.064,6.157-2.07,9.27-2.988c2.954-0.867,3.991,0.051,3.994,3.124
		c0.019,12.24,0.018,24.482,0.19,36.716c0.039,2.482-0.844,3.9-2.931,5.029c-1.386,0.758-2.533,1.952-3.79,2.948
		C141.194,148.484,140.986,148.696,140.78,148.9z M116.387,120.992c2.163,3.135,0.836,5.911,0.312,8.76
		c-0.271,1.49-0.192,3.152,0.177,4.625c0.508,2.044,3.34,3.934,4.737,3.446c5.564-1.94,11.144-3.856,16.654-5.938
		c0.983-0.37,2.135-1.318,2.444-2.252c0.779-2.355,1.261-4.841,1.554-7.311c0.089-0.738-0.775-1.636-1.306-2.387
		c-0.875-1.244-1.741-2.51-2.778-3.611c-0.578-0.613-1.46-1.193-2.26-1.276c-0.868-0.092-1.812,0.379-2.705,0.66
		C127.785,117.404,122.357,119.115,116.387,120.992z"/>
	<path fill-rule="evenodd" clip-rule="evenodd" fill="#2799D2" d="M85.583,151.995c0,3.355-0.043,6.706,0.023,10.058
		c0.025,1.275-0.35,1.831-1.653,1.484c-3.665-0.97-7.353-1.867-10.99-2.94c-5.865-1.735-11.691-3.604-17.542-5.384
		c-7.001-2.132-14.009-4.239-21.016-6.343c-5.661-1.7-11.347-3.32-16.971-5.138c-0.826-0.266-1.901-1.379-1.956-2.162
		c-0.352-4.969-0.52-9.954-0.603-14.936c-0.05-2.963,0.923-3.589,3.88-2.871c4.285,1.037,8.562,2.115,12.862,3.081
		c1.886,0.423,2.628,1.673,3.1,3.348c1.806,6.431,10.829,9.439,15.625,6.251c1.28-0.849,2.354-2.028,3.442-3.135
		c0.89-0.904,1.722-1.233,3.077-0.896c8.759,2.196,17.548,4.286,26.336,6.363c1.746,0.414,2.499,1.37,2.469,3.161
		c-0.06,3.352-0.019,6.706-0.019,10.058C85.627,151.995,85.606,151.995,85.583,151.995z"/>
	<path fill-rule="evenodd" clip-rule="evenodd" fill="#EEEDEC" d="M140.78,148.9c0.206-0.204,0.414-0.416,0.623-0.624
		c0.975-0.176,2.048-0.148,2.911-0.561c5.727-2.746,5.04-1.417,5.07-7.748c0.073-11.907,0.225-23.815,0.333-35.727
		c0.005-0.75-0.003-1.511-0.09-2.255c-0.394-3.374,0.345-4.436,3.627-5.139c0.645-0.14,1.297-0.256,2.364-0.462
		c0,1.983,0.02,3.731-0.002,5.478c-0.138,10.953-0.276,21.902-0.437,32.854c-0.073,4.65-0.255,9.305-0.272,13.956
		c-0.007,1.237-0.508,1.862-1.525,2.355c-9.45,4.591-18.851,9.284-28.344,13.777c-8.504,4.026-17.101,7.846-25.667,11.732
		c-1.812,0.826-2.165,0.611-2.163-1.353c0.015-18.816,0.072-37.637,0.025-56.459c-0.004-2.016,0.693-3.037,2.582-3.464
		c1.567-0.353,3.107-0.8,4.914-1.273c0.062,1.007,0.127,1.666,0.138,2.329c0.208,14.508,0.408,29.018,0.628,43.529
		c0.018,1.091,0.147,2.181,0.281,3.267c0.182,1.48,1.048,1.833,2.327,1.244c7.182-3.307,14.354-6.629,21.529-9.943
		c3.575-1.658,7.157-3.305,10.729-4.974C140.547,149.355,140.643,149.084,140.78,148.9z M101.74,172.061
		c0.709-0.833,1.178-1.389,1.651-1.941c-0.559-0.376-1.151-1.097-1.66-1.039c-0.525,0.062-1.153,0.805-1.357,1.382
		C100.276,170.729,101.076,171.317,101.74,172.061z M101.129,136.517c0.127-0.958,0.257-1.914,0.384-2.872
		c-0.426,0.085-0.984,0.028-1.259,0.283C99.356,134.772,99.333,135.661,101.129,136.517z M116.207,165.798
		c0.625-0.754,1.243-1.191,1.354-1.731c0.07-0.36-0.585-0.866-0.916-1.305c-0.444,0.498-1.024,0.942-1.278,1.522
		C115.252,164.544,115.793,165.089,116.207,165.798z M127.666,158.629c0.327,0.335,0.652,0.669,0.976,1.002
		c0.608-0.604,1.219-1.208,1.826-1.81c-0.323-0.309-0.879-0.921-0.938-0.875C128.867,157.447,128.276,158.054,127.666,158.629z"/>
	<path fill-rule="evenodd" clip-rule="evenodd" fill="#EEEDEC" d="M105.531,81.43c1.454-0.495,2.6-1.315,3.559-1.131
		c2.404,0.46,4.249,1.979,4.869,4.457c0.612,2.442,0.957,4.952,1.438,7.43c0.076,0.38,0.241,0.745,0.866,1.09
		c0-0.948,0.05-1.898-0.009-2.843c-0.229-3.729-0.746-7.462-0.674-11.184c0.062-3.249,2.701-4.249,5.379-2.434
		c2.075,1.409,4.228,2.726,6.413,3.97c4.884,2.779,7.141,7.318,8.552,12.46c0.726,2.641,0.687,2.726-1.908,3.597
		c-2.196,0.738-4.438,1.364-6.572,2.252c-2.051,0.857-2.898,0.128-3.563-1.806c-0.549-1.582-1.533-3.016-2.39-4.478
		c-0.214-0.36-0.68-0.568-1.493-0.676c0.178,0.875,0.289,1.774,0.564,2.621c0.271,0.839,0.786,1.6,1.066,2.437
		c0.555,1.661,0.409,3.126-1.454,3.911c-1.069,0.449-2.124,0.947-3.22,1.302c-3.485,1.129-6.994,2.171-10.476,3.3
		c-2.46,0.797-3.696,0.077-3.776-2.558c-0.068-2.132,0.16-4.275,0.26-6.413c-0.243-0.05-0.492-0.1-0.736-0.147
		c-0.46,1.636-0.932,3.271-1.375,4.911c-0.075,0.259-0.037,0.547-0.069,0.817c-0.598,5.043-1.401,5.884-6.454,6.788
		c-2.239,0.396-3.708-0.45-3.985-2.697c-0.224-1.807,0.012-3.668,0.035-5.507c0.011-0.786,0.002-1.573,0.002-2.362
		c-0.216-0.028-0.434-0.056-0.651-0.086c-0.548,2.345-1.247,4.667-1.593,7.04c-0.245,1.67-1.002,2.373-2.539,2.102
		c-1.867-0.33-3.701-0.858-5.476-1.284c-0.983-5.976,1.139-10.854,4.427-15.302c3.571-4.822,7.304-9.525,11.042-14.222
		c0.216-0.271,1.35-0.232,1.657,0.069c1.163,1.136,2.075,2.538,3.264,3.639c0.501,0.466,1.677,0.829,2.176,0.557
		C104.058,80.295,104.981,80.549,105.531,81.43z"/>
	<path fill-rule="evenodd" clip-rule="evenodd" fill="#EEEDEC" d="M180.387,31.154c0.267,3.848-2.561,6.572-5.862,6.317
		c-11.858-0.923-23.716-1.76-35.571-2.666c-8.303-0.632-16.601-1.364-24.904-1.985c-4.775-0.357-9.562-0.659-14.346-0.794
		c-0.779-0.023-2.027,0.781-2.311,1.499c-3.632,9.196-9.607,17.091-14.178,25.762c-1.943,3.677-4.036,7.279-6.108,10.888
		c-1.507,2.621-1.72,2.694-4.699,1.924c-0.771-0.201-1.486-0.618-2.48-1.046c1.831-3.294,3.539-6.429,5.307-9.532
		c4.833-8.478,9.691-16.941,14.538-25.41c1.526-2.661,2.941-5.398,4.637-7.948c0.528-0.795,1.828-1.578,2.743-1.541
		c9.158,0.367,18.312,0.892,27.469,1.403c6.077,0.337,12.155,0.722,18.231,1.086c11.335,0.68,22.667,1.369,33.998,2.035
		C177.996,31.214,179.153,31.154,180.387,31.154z"/>
	<path fill-rule="evenodd" clip-rule="evenodd" fill="#EEEDEC" d="M144.03,83.362c0.192-0.02,0.384-0.038,0.576-0.057
		c1.539,0.445,3.062,0.966,4.624,1.323c2.55,0.58,2.919,0.264,3.463-2.591l-0.063,0.063c0.501-0.419,1.158-0.744,1.479-1.275
		c6.074-10.007,12.144-20.017,18.124-30.079c1.574-2.65,2.854-5.474,4.269-8.219c0.273-0.451,0.541-0.903,0.812-1.356
		c2.015-3.191,4.163-6.307,5.98-9.604c0.869-1.573-0.734-2.217-1.901-2.359c-2.573-0.311-5.179-0.38-7.776-0.509
		c-14.698-0.746-29.399-1.392-44.09-2.245c-10.93-0.633-21.849-1.488-32.764-2.346c-1.594-0.125-2.565,0.275-3.33,1.633
		c-6.384,11.333-12.793,22.652-19.2,33.978c-2.012,3.558-4.012,7.124-6.048,10.672c-1.186,2.064-0.44,3.514,1.976,3.814
		c5.766,0.717,11.529,1.423,17.288,2.186c1.464,0.195,2.904,0.584,4.502,0.915c-0.502,1.557-1.43,1.919-2.716,1.735
		c-5.75-0.817-11.499-1.639-17.248-2.443c-2.234-0.313-4.473-0.563-6.708-0.88c-1.525-0.213-1.977-0.852-1.122-2.366
		c4.205-7.43,8.3-14.919,12.498-22.349c4.69-8.316,9.45-16.594,14.178-24.888c0.068-0.119,0.119-0.245,0.193-0.363
		c1.573-2.462,3.279-3.776,6.749-3.535c17.065,1.181,34.165,1.881,51.248,2.807c12.028,0.651,24.051,1.38,36.078,2.094
		c0.875,0.053,1.737,0.25,3.229,0.473c-1.669,3.184-3.075,6.094-4.686,8.893c-6.08,10.582-12.161,21.167-18.38,31.671
		c-3.792,6.4-7.8,12.67-11.809,18.938c-0.352,0.547-1.462,0.954-2.16,0.877c-4.415-0.488-8.8-1.266-13.218-1.673
		c-2.349-0.217-3.878-1.263-5.268-3.6c2.776,0.251,5.219,0.511,7.671,0.68C141.657,83.46,142.844,83.375,144.03,83.362z"/>
	<path fill-rule="evenodd" clip-rule="evenodd" fill="#EEEDEC" d="M21.828,98.438c4.49-1.41,8.208,0.083,11.928,0.704
		c6.856,1.142,13.654,2.646,20.473,4.006c7.761,1.549,15.53,3.058,23.277,4.664c4.54,0.939,9.042,2.028,13.56,3.074
		c3.419,0.793,6.612-0.09,9.821-1.151c9.39-3.103,18.866-5.953,28.175-9.287c7.238-2.594,14.259-5.806,21.413-8.641
		c1.134-0.446,2.499-0.542,3.724-0.423c0.603,0.063,1.433,0.916,1.575,1.542c0.093,0.42-0.738,1.29-1.337,1.58
		c-1.527,0.738-3.132,1.331-4.745,1.869c-12.171,4.05-24.36,8.038-36.52,12.126c-4.983,1.673-9.965,3.379-14.819,5.365
		c-3.037,1.242-5.802,0.291-8.613-0.334c-7.984-1.777-15.916-3.79-23.899-5.56c-8.191-1.813-16.425-3.439-24.632-5.174
		c-6.01-1.266-12.012-2.568-18.015-3.859C22.909,98.877,22.641,98.742,21.828,98.438z"/>
	<path fill-rule="evenodd" clip-rule="evenodd" fill="#2799D2" d="M61.974,109.698c3.268,0.512,6.157,0.852,8.995,1.441
		c4.425,0.913,8.825,1.944,13.199,3.071c0.59,0.149,1.355,1.094,1.385,1.701c0.134,2.87,0.046,5.745,0.024,8.622
		c-0.017,2.085-1.11,2.959-3.265,2.499c-1.865-0.398-3.693-0.967-5.554-1.401c-3.439-0.795-6.911-1.46-10.328-2.345
		c-4.002-1.034-4.413-1.658-4.451-5.788C61.956,115.059,61.974,112.621,61.974,109.698z"/>
	<path fill-rule="evenodd" clip-rule="evenodd" fill="#2799D2" d="M15.049,99.588c3.345,0.556,6.578,0.957,9.746,1.655
		c3.955,0.873,7.853,2.028,11.788,2.996c3.203,0.79,3.547,1.081,3.296,4.406c-0.138,1.802-0.461,3.631-0.99,5.361
		c-0.617,2.013-1.97,2.608-4.096,2.188c-4.658-0.925-9.33-1.793-13.97-2.801c-1.512-0.329-3.003-0.91-4.38-1.615
		c-0.621-0.321-1.305-1.224-1.329-1.885C14.978,106.522,15.049,103.142,15.049,99.588z"/>
	<path fill-rule="evenodd" clip-rule="evenodd" fill="#EEEDEC" d="M91.29,65.012c0.327-0.577,0.652-1.156,0.977-1.735
		c2.891-2.137,5.961-3.214,9.665-2.329c0.986,0.232,2.269-0.656,3.379-1.105c1.431-0.572,2.806-1.279,4.252-1.797
		c0.401-0.145,1.108,0.011,1.436,0.302c1.637,1.439,3.489,1.655,5.545,1.329c1.275-0.202,2.589-0.346,3.876-0.288
		c2.741,0.126,4.391,2.524,3.586,5.15c-1.35,4.401-5,6.267-8.892,8.296c-0.085-2.042,2.407-3.373,0.367-5.698
		c-0.625,1.12-1.166,1.978-1.603,2.887c-0.808,1.682-1.12,3.69-3.312,4.36c-2.796,0.86-4.163-0.028-4.458-2.867
		c-0.097-0.924-0.342-1.931-0.846-2.68c-0.312-0.467-1.237-0.521-1.891-0.759c-0.135,0.597-0.488,1.244-0.363,1.777
		c0.301,1.241,0.831,2.427,1.404,4.001c-2.602-0.297-5.156-0.033-7.158-0.963c-2.282-1.06-4.066-3.186-6.213-4.971
		c0.673-0.522,1.173-0.909,1.602-1.244C92.181,66.113,91.738,65.562,91.29,65.012z M121.482,60.696
		c-1.181,0.469-2.229,0.955-3.324,1.306c-1.619,0.52-3.229,1.056-4.893-0.064c-3.215-2.174-4.509-2.01-7.205,0.78
		c-1.128,1.17-2.25,1.754-3.709,0.497c-0.969-0.837-1.798-0.881-2.76,0.271c-0.489,0.578-1.82,1.066-2.44,0.81
		c-2.347-0.978-3.088,0.665-4.059,1.934c1.246,0,2.714-0.423,3.631,0.102c1.274,0.736,1.96,0.343,2.897-0.31
		c0.499-0.344,1.334-0.836,1.683-0.646c2.567,1.405,4.5,0.022,6.367-1.363c2.602-1.925,3.28-1.945,5.799,0.14
		c0.52,0.428,1.274,0.913,1.862,0.854c1.606-0.169,3.178-0.642,4.772-0.949C122.518,63.591,122.684,63.268,121.482,60.696z"/>
	<path fill-rule="evenodd" clip-rule="evenodd" fill="#EEEDEC" d="M50.357,99.877c0.745-0.693,1.401-1.526,2.25-2.048
		c1.518-0.936,1.429-1.827,0.449-3.14c-0.806-1.083-1.314-2.39-1.958-3.598c1.308-0.61,2.577-1.323,3.931-1.799
		c1.823-0.646,3.701-1.136,5.571-1.639c0.512-0.136,1.097-0.195,1.605-0.09c2.254,0.465,4.273,0.651,6.32-1.067
		c1.522-1.276,6.783,1.37,7.199,3.366c0.083,0.404-0.167,0.916-0.357,1.333c-0.871,1.911-1.773,3.809-2.759,5.911
		c4.356,1.211,4.136,4.516,3.851,8.409c-8.7-1.696-17.235-3.356-25.769-5.017C50.577,100.292,50.467,100.083,50.357,99.877z
		 M72.282,92.994c-0.214-0.111-0.426-0.222-0.639-0.335c-0.189,0.247-0.476,0.465-0.559,0.742c-1.1,3.757-3.811,4.568-7.354,4.288
		c-1.834-0.145-3.663-0.42-5.502-0.516c-0.693-0.036-1.404,0.266-2.11,0.414c0.028,0.194,0.052,0.39,0.075,0.587
		c3.216,0.703,6.456,1.472,9.763,0.544c2.746-0.768,2.875-0.797,4.004,1.76c0.203,0.456,0.431,0.901,0.646,1.352
		c0.103-1.63-0.664-3.196-0.454-4.613C70.371,95.735,71.531,94.394,72.282,92.994z M55.325,91.734
		c0.004,0.191,0.009,0.38,0.014,0.568c1.244-0.107,2.677,0.141,3.69-0.4c1.844-0.983,3.448-0.792,5.273-0.145
		c0.868,0.309,2.042,0.361,2.873,0.028c1.755-0.709,3.375-1.75,5.12-2.695c-1.838-1.124-3.257,0.042-4.66,0.889
		c-1.165,0.701-2.111,1.156-3.529,0.34c-0.821-0.471-2.127-0.365-3.143-0.161C59.055,90.549,57.201,91.196,55.325,91.734z"/>
	<path fill-rule="evenodd" clip-rule="evenodd" fill="#EEEDEC" d="M15.403,95.375c1.597,0.387,3.212,0.713,4.78,1.188
		c0.521,0.161,0.919,0.709,1.373,1.081c-0.552,0.269-1.178,0.865-1.644,0.761c-4.75-1.074-9.475-2.264-14.203-3.419
		c-0.029-0.255-0.057-0.513-0.086-0.769c0.651-0.327,1.266-0.8,1.956-0.96c13.138-3.085,26.278-6.155,39.436-9.157
		c1.71-0.388,3.563-0.173,5.261-0.6c4.424-1.11,8.793-2.448,13.205-3.628c0.905-0.242,1.891-0.289,2.83-0.233
		c0.501,0.029,0.978,0.462,1.465,0.71c-0.38,0.456-0.678,1.181-1.152,1.326c-5.009,1.555-10.001,3.178-15.079,4.475
		c-7.459,1.902-14.967,3.641-22.49,5.282c-4.055,0.884-8.192,1.397-12.28,2.138c-1.105,0.199-2.169,0.625-3.25,0.948
		C15.482,94.801,15.443,95.091,15.403,95.375z"/>
	<path fill-rule="evenodd" clip-rule="evenodd" fill="#EEEDEC" d="M46.824,133.523c2.852-0.603,3.396-2.681,4.154-4.507
		c0.358-0.859,0.52-1.835,0.592-2.771c0.108-1.368,1.097-1.933,2.055-1.652c0.642,0.187,1.413,1.396,1.393,2.134
		c-0.108,4.284-4.62,8.574-8.927,8.693c-0.205,0.001-0.41-0.005-0.615,0.02c-8.161,0.899-9.346-3.987-8.893-10.639
		c0.116-1.713,1.133-3.483,2.092-4.997c1.409-2.231,3.438-2.326,5.327-0.471c0.825,0.807,1.474,1.795,2.303,2.598
		c0.516,0.504,1.218,1.147,1.838,1.152c2.29,0.01,2.428,1.65,2.576,3.194C50.958,128.726,49.989,130.463,46.824,133.523z
		 M40.068,131.452c0.352,0.146,0.703,0.296,1.053,0.442c1.135-1.744,2.313-3.465,3.361-5.26c0.189-0.32-0.02-1.27-0.263-1.36
		c-0.565-0.212-1.733-0.284-1.831-0.059C41.514,127.25,40.819,129.362,40.068,131.452z"/>
	<path fill-rule="evenodd" clip-rule="evenodd" fill="#2799D2" d="M178.343,72.651c-0.556,0.886-1.091,1.743-1.63,2.598
		c-1.948,3.113-3.868,6.241-5.851,9.33c-1.359,2.105-1.652,2.123-3.333,0.436c-1.575-1.581-3.094-3.214-4.673-4.789
		c-0.845-0.841-0.992-1.568-0.31-2.684c2.196-3.582,4.262-7.237,6.348-10.885c0.869-1.523,1.829-1.895,3.189-0.534
		c1.776,1.778,3.612,3.491,5.396,5.259C177.808,71.705,178.008,72.151,178.343,72.651z"/>
	<path fill-rule="evenodd" clip-rule="evenodd" fill="#2799D2" d="M190.88,50.041c-1.21,2.779-1.097,5.846-3.548,7.821
		c-0.421,0.336-0.882,0.707-1.127,1.165c-1.378,2.571-2.259,2.7-4.246,0.119c-1.281-1.666-2.687-3.245-3.84-4.992
		c-0.43-0.648-0.676-1.842-0.369-2.479c1.416-2.917,2.982-5.766,4.639-8.555c1.092-1.846,1.632-1.756,2.988-0.169
		c1.277,1.495,2.754,2.821,4.002,4.336C190.037,48.087,190.4,49.132,190.88,50.041z"/>
	<path fill-rule="evenodd" clip-rule="evenodd" fill="#2799D2" d="M77.719,97.081c-1.446-1.739-1.4-3.292-0.488-4.882
		c1.445-2.511,1.065-4.308-1.129-6.392c-1.212-1.151-2.221-2.528-3.223-3.878c-0.637-0.86-0.3-1.597,0.729-1.842
		c0.913-0.216,1.894-0.495,2.793-0.37c3.414,0.475,6.817,1.05,10.196,1.727c0.452,0.093,0.973,0.941,1.045,1.494
		c0.063,0.507-0.293,1.25-0.705,1.606c-3.671,3.171-5.876,7.403-8.4,11.408C78.36,96.232,78.148,96.491,77.719,97.081z"/>
	<path fill-rule="evenodd" clip-rule="evenodd" fill="#EEEDEC" d="M189.663,30.802c1.609,2.382,3.248,4.645,4.71,7.016
		c1.767,2.866,1.187,6.414-1.383,8.483c-0.429,0.349-1.628,0.445-1.937,0.131c-2.047-2.065-3.984-4.243-5.854-6.469
		c-0.322-0.382-0.39-1.29-0.17-1.768c1.106-2.388,2.318-4.727,3.567-7.041C188.731,30.904,189.331,30.902,189.663,30.802z
		 M189.589,39.667c0.41-0.007,0.824-0.017,1.237-0.027c0-0.936,0-1.87,0-2.807c-0.458,0.049-1.311,0.078-1.311,0.151
		C189.466,37.874,189.544,38.772,189.589,39.667z"/>
	<path fill-rule="evenodd" clip-rule="evenodd" fill="#EEEDEC" d="M159.802,81.754c3.26,1.55,5.064,4.215,6.963,6.768
		c0.209,0.284,0.159,0.968-0.035,1.314c-1.069,1.891-2.241,3.722-3.34,5.595c-0.594,1.003-1.241,0.928-1.944,0.164
		c-1.785-1.95-3.756-3.78-5.235-5.943c-0.522-0.762-0.139-2.51,0.38-3.527C157.38,84.578,158.646,83.274,159.802,81.754z
		 M159.588,89.396c1.48,0.393,2.556,0.156,2.536-1.286c-0.009-0.524-1.034-1.521-1.491-1.462
		C158.837,86.869,159.628,88.271,159.588,89.396z"/>
	<path fill-rule="evenodd" clip-rule="evenodd" fill="#EEEDEC" d="M175.419,55.14c0.43,0.26,0.844,0.399,1.088,0.684
		c1.904,2.198,3.84,4.379,5.609,6.683c0.352,0.455,0.254,1.508-0.01,2.121c-0.483,1.112-1.233,2.11-1.903,3.135
		c-0.806,1.235-1.958,1.657-3.101,0.661c-1.581-1.376-3.036-2.911-4.432-4.476c-1.286-1.446-1.356-3.032-0.178-4.657
		c0.758-1.045,1.393-2.175,2.112-3.251C174.816,55.727,175.116,55.47,175.419,55.14z M174.993,61.908
		c0.026,0.432,0.051,0.862,0.074,1.294c0.827,0.084,1.656,0.165,2.479,0.248c0.051-0.68,0.101-1.361,0.153-2.042
		C176.797,61.575,175.895,61.74,174.993,61.908z"/>
	<path fill-rule="evenodd" clip-rule="evenodd" fill="#EEEDEC" d="M115.896,75.037c-2.557,3.153-9.468,4.678-12.762,2.972
		c-1.555-0.803-2.972-1.865-4.844-3.058C104.379,75.839,110.143,76.988,115.896,75.037z"/>
	<path fill-rule="evenodd" clip-rule="evenodd" fill="#EEEDEC" d="M53.039,110.622c-1.327,0.631-2.137,1.103-3.001,1.414
		c-1.884,0.679-2.463,2.322-1.132,3.589c0.77,0.731,1.872,1.592,0.783,2.394c-0.57,0.424-2.267-0.107-3.077-0.712
		c-1.151-0.861-0.489-3.948,0.987-5.774C48.988,109.807,50.637,109.357,53.039,110.622z"/>
	<path fill-rule="evenodd" clip-rule="evenodd" fill="#EEEDEC" d="M50.995,113.911c2.061,0.016,4.017,1.676,4.35,3.458
		c0.341,1.839-1.34,4.979-3.362,5.726c0.264-1.731,0.805-3.317,0.653-4.832C52.493,116.837,51.622,115.484,50.995,113.911z"/>
	<path fill-rule="evenodd" clip-rule="evenodd" fill="#CFE4CD" d="M46.517,119.671c1.4,0,2.539-0.06,3.667,0.035
		c0.343,0.03,0.653,0.471,0.978,0.726c-0.258,0.283-0.575,0.843-0.767,0.803C49.115,120.971,47.487,121.577,46.517,119.671z"/>
	<path fill-rule="evenodd" clip-rule="evenodd" fill="#292D28" d="M176.501,42.528c-1.414,2.745-2.694,5.569-4.269,8.219
		c-5.98,10.062-12.05,20.072-18.124,30.079c-0.32,0.531-0.978,0.855-1.479,1.275c3.361-7.278,7.391-14.147,12.035-20.704
		c2.297-3.237,3.844-6.998,5.808-10.479c1.367-2.425,2.816-4.809,4.326-7.142C175.161,43.224,175.924,42.938,176.501,42.528z"/>
	<path fill-rule="evenodd" clip-rule="evenodd" fill="#292D28" d="M152.693,82.037c-0.544,2.855-0.913,3.171-3.463,2.591
		c-1.562-0.357-3.085-0.877-4.624-1.323c1.82,0.115,3.66,0.421,5.458,0.264C150.975,83.49,151.819,82.573,152.693,82.037z"/>
	<path fill-rule="evenodd" clip-rule="evenodd" fill="#292D28" d="M38.693,155.565c-0.893,0.547-1.482,1.154-1.769,1.035
		c-0.586-0.246-1.009-0.881-1.499-1.357c0.422-0.363,0.901-1.078,1.253-1.021C37.266,154.322,37.772,154.912,38.693,155.565z"/>
	<path fill-rule="evenodd" clip-rule="evenodd" fill="#292D28" d="M89.151,172c0.769-0.263,1.534-0.53,2.297-0.797
		c0.045,0.607,0.086,1.222,0.128,1.829c-0.765,0.056-1.529,0.109-2.294,0.159C89.24,172.793,89.195,172.397,89.151,172z"/>
	<path fill-rule="evenodd" clip-rule="evenodd" fill="#292D28" d="M11.941,147.423c-0.964,0.607-1.534,1.206-1.809,1.091
		c-0.648-0.27-1.153-0.878-1.716-1.351c0.375-0.356,0.818-1.056,1.116-0.999C10.202,146.29,10.803,146.792,11.941,147.423z"/>
	<path fill-rule="evenodd" clip-rule="evenodd" fill="#292D28" d="M8.747,129.946c0.544,0.819,1.109,1.313,1.141,1.834
		c0.021,0.354-0.706,0.754-1.099,1.132c-0.307-0.542-0.721-1.057-0.871-1.642C7.849,131.011,8.309,130.612,8.747,129.946z"/>
	<path fill-rule="evenodd" clip-rule="evenodd" fill="#292D28" d="M64.286,164.604c0.497-0.49,0.993-0.978,1.489-1.466
		c0.341,0.414,0.681,0.826,1.021,1.24c-0.653,0.325-1.306,0.653-1.957,0.98C64.656,165.106,64.471,164.855,64.286,164.604z"/>
	<path fill-rule="evenodd" clip-rule="evenodd" fill="#292D28" d="M10.881,117.438c-0.7,0.419-1.257,0.993-1.564,0.88
		c-0.405-0.144-0.852-0.852-0.828-1.288c0.024-0.438,0.615-0.836,0.958-1.254C9.846,116.239,10.249,116.705,10.881,117.438z"/>
	<path fill-rule="evenodd" clip-rule="evenodd" fill="#292D28" d="M92.633,135.328c-0.757,0.043-1.516,0.087-2.271,0.132
		c0.053-0.481,0.09-1.375,0.168-1.381c0.709-0.031,1.423,0.092,2.135,0.166C92.655,134.607,92.644,134.966,92.633,135.328z"/>
	<path fill-rule="evenodd" clip-rule="evenodd" fill="#292D28" d="M78.062,169.596c-0.521-0.616-1.04-1.229-1.559-1.84
		c0.396-0.249,1.066-0.78,1.15-0.697c0.547,0.524,0.967,1.182,1.428,1.796C78.741,169.099,78.401,169.349,78.062,169.596z"/>
	<path fill-rule="evenodd" clip-rule="evenodd" fill="#292D28" d="M53.918,160.1c-0.699,0.599-1.155,1.219-1.385,1.145
		c-0.533-0.175-0.955-0.683-1.423-1.061c0.348-0.314,0.683-0.858,1.046-0.881C52.602,159.275,53.075,159.69,53.918,160.1z"/>
	<path fill-rule="evenodd" clip-rule="evenodd" fill="#292D28" d="M116.387,120.992c5.971-1.877,11.398-3.588,16.829-5.284
		c0.894-0.281,1.837-0.752,2.705-0.66c0.8,0.083,1.682,0.663,2.26,1.276c1.037,1.102,1.903,2.367,2.778,3.611
		c0.53,0.751,1.395,1.648,1.306,2.387c-0.293,2.47-0.774,4.955-1.554,7.311c-0.31,0.934-1.461,1.882-2.444,2.252
		c-5.511,2.082-11.09,3.998-16.654,5.938c-1.397,0.487-4.229-1.402-4.737-3.446c-0.369-1.473-0.448-3.135-0.177-4.625
		C117.223,126.903,118.55,124.127,116.387,120.992z M137.1,121.096c0.996,0.94,2.438,2.064,1.252,3.946
		c-0.572,0.907-1.377,1.704-2.199,2.402c-4.055,3.441-9.033,3.917-14.036,4.156c-1.254,0.061-1.931-1.415-1.381-2.754
		c0.206-0.497,0.774-0.961,0.75-1.416c-0.043-0.791-0.416-1.565-0.651-2.346c-0.524,0.4-1.359,0.705-1.522,1.217
		c-0.561,1.806-0.925,3.678-1.298,5.53c-0.48,2.397,1.47,4.36,3.791,3.624c4.794-1.52,9.557-3.172,14.298-4.862
		c2.845-1.016,4.678-2.902,4.901-6.138c0.168-2.396-2.501-5.649-4.728-5.428c-0.61,0.061-1.23,0.447-1.731,0.835
		c-0.107,0.079,0.182,1.066,0.463,1.179C135.529,121.241,136.18,121.096,137.1,121.096z M133.164,122.253
		c0.114-0.175,0.228-0.353,0.342-0.528c-0.431-0.686-0.862-1.374-1.384-2.205c1.169-0.573,2.25-1.002,3.209-1.623
		c0.401-0.256,0.544-0.92,0.806-1.397c-0.483-0.056-1.017-0.265-1.442-0.135c-5.154,1.585-10.283,3.239-15.433,4.837
		c-1.329,0.411-1.522,1.095-0.692,2.37c0.793-0.382,1.505-0.745,2.234-1.074c1.229-0.556,2.432-1.231,3.722-1.585
		c1.281-0.352,2.713-0.287,3.285,1.249c0.57,1.543,0.344,2.992-1.254,3.889c-0.829,0.466-1.739,0.796-2.56,1.283
		c-1.187,0.705-1.994,1.612-1.01,3.516c3.036-1.196,6.055-2.221,8.923-3.569c2.021-0.954,1.916-1.672,0.192-3.083
		c-0.636-0.515-1.039-1.31-1.549-1.978c0.167-0.113,0.332-0.226,0.5-0.335C131.759,122.009,132.461,122.132,133.164,122.253z
		 M122.632,122.905c-0.23,0.243-0.461,0.477-0.69,0.715c0.481,0.66,0.959,1.319,1.44,1.982c0.324-0.501,1.029-1.265,0.897-1.458
		C123.918,123.605,123.205,123.304,122.632,122.905z"/>
	<path fill-rule="evenodd" clip-rule="evenodd" fill="#292D28" d="M101.74,172.061c-0.664-0.743-1.464-1.331-1.366-1.599
		c0.205-0.577,0.832-1.319,1.357-1.382c0.509-0.058,1.102,0.663,1.66,1.039C102.918,170.672,102.449,171.228,101.74,172.061z"/>
	<path fill-rule="evenodd" clip-rule="evenodd" fill="#292D28" d="M101.129,136.517c-1.796-0.855-1.772-1.744-0.875-2.589
		c0.275-0.255,0.833-0.198,1.259-0.283C101.386,134.603,101.256,135.559,101.129,136.517z"/>
	<path fill-rule="evenodd" clip-rule="evenodd" fill="#292D28" d="M116.207,165.798c-0.414-0.709-0.955-1.254-0.84-1.514
		c0.254-0.58,0.834-1.024,1.278-1.522c0.331,0.438,0.986,0.944,0.916,1.305C117.45,164.606,116.832,165.044,116.207,165.798z"/>
	<path fill-rule="evenodd" clip-rule="evenodd" fill="#292D28" d="M127.666,158.629c0.61-0.575,1.201-1.182,1.864-1.683
		c0.059-0.046,0.614,0.566,0.938,0.875c-0.607,0.602-1.218,1.205-1.826,1.81C128.318,159.298,127.993,158.964,127.666,158.629z"/>
	<path fill-rule="evenodd" clip-rule="evenodd" fill="#292D28" d="M121.482,60.696c1.201,2.572,1.035,2.896-1.378,3.36
		c-1.595,0.307-3.166,0.779-4.772,0.949c-0.588,0.06-1.343-0.425-1.862-0.854c-2.519-2.085-3.197-2.065-5.799-0.14
		c-1.867,1.385-3.8,2.769-6.367,1.363c-0.349-0.19-1.185,0.303-1.683,0.646c-0.937,0.653-1.623,1.046-2.897,0.31
		c-0.917-0.525-2.385-0.102-3.631-0.102c0.971-1.269,1.712-2.911,4.059-1.934c0.62,0.256,1.951-0.232,2.44-0.81
		c0.962-1.152,1.792-1.108,2.76-0.271c1.459,1.257,2.581,0.673,3.709-0.497c2.696-2.791,3.99-2.954,7.205-0.78
		c1.663,1.121,3.273,0.584,4.893,0.064C119.254,61.65,120.302,61.165,121.482,60.696z"/>
	<path fill-rule="evenodd" clip-rule="evenodd" fill="#292D28" d="M72.282,92.994c-0.751,1.4-1.912,2.741-2.13,4.222
		c-0.21,1.417,0.557,2.983,0.454,4.613c-0.215-0.451-0.443-0.896-0.646-1.352c-1.129-2.557-1.258-2.528-4.004-1.76
		c-3.307,0.928-6.546,0.159-9.763-0.544c-0.023-0.197-0.046-0.393-0.075-0.587c0.706-0.148,1.417-0.45,2.11-0.414
		c1.839,0.096,3.667,0.372,5.502,0.516c3.543,0.28,6.254-0.531,7.354-4.288c0.083-0.277,0.369-0.495,0.559-0.742
		C71.856,92.771,72.068,92.883,72.282,92.994z"/>
	<path fill-rule="evenodd" clip-rule="evenodd" fill="#292D28" d="M55.325,91.734c1.875-0.538,3.729-1.185,5.638-1.574
		c1.016-0.204,2.322-0.31,3.143,0.161c1.418,0.816,2.365,0.36,3.529-0.34c1.402-0.847,2.822-2.013,4.66-0.889
		c-1.746,0.945-3.365,1.985-5.12,2.695c-0.83,0.333-2.005,0.281-2.873-0.028c-1.826-0.648-3.43-0.838-5.273,0.145
		c-1.013,0.541-2.446,0.293-3.69,0.4C55.334,92.115,55.33,91.925,55.325,91.734z"/>
	<path fill-rule="evenodd" clip-rule="evenodd" fill="#292D28" d="M40.068,131.452c0.751-2.09,1.446-4.202,2.321-6.236
		c0.098-0.226,1.266-0.153,1.831,0.059c0.243,0.091,0.452,1.04,0.263,1.36c-1.048,1.795-2.227,3.516-3.361,5.26
		C40.771,131.748,40.419,131.599,40.068,131.452z"/>
	<path fill-rule="evenodd" clip-rule="evenodd" fill="#292D28" d="M189.589,39.667c-0.045-0.895-0.123-1.792-0.073-2.683
		c0-0.074,0.853-0.103,1.311-0.151c0,0.937,0,1.871,0,2.807C190.413,39.649,189.999,39.66,189.589,39.667z"/>
	<path fill-rule="evenodd" clip-rule="evenodd" fill="#292D28" d="M159.588,89.396c0.04-1.125-0.751-2.528,1.045-2.749
		c0.457-0.059,1.482,0.938,1.491,1.462C162.144,89.552,161.068,89.79,159.588,89.396z"/>
	<path fill-rule="evenodd" clip-rule="evenodd" fill="#292D28" d="M174.993,61.908c0.901-0.168,1.804-0.333,2.707-0.5
		c-0.053,0.681-0.103,1.362-0.153,2.042c-0.823-0.083-1.652-0.163-2.479-0.248C175.044,62.771,175.02,62.34,174.993,61.908z"/>
	<path fill-rule="evenodd" clip-rule="evenodd" fill="#EEEDEC" d="M137.1,121.096c-0.92,0-1.57,0.146-2.092-0.054
		c-0.281-0.112-0.57-1.1-0.463-1.179c0.501-0.388,1.121-0.774,1.731-0.835c2.227-0.222,4.896,3.032,4.728,5.428
		c-0.224,3.235-2.057,5.122-4.901,6.138c-4.741,1.69-9.504,3.343-14.298,4.862c-2.321,0.736-4.271-1.227-3.791-3.624
		c0.373-1.853,0.737-3.725,1.298-5.53c0.163-0.512,0.998-0.816,1.522-1.217c0.235,0.78,0.608,1.555,0.651,2.346
		c0.024,0.455-0.544,0.919-0.75,1.416c-0.55,1.339,0.127,2.814,1.381,2.754c5.003-0.239,9.981-0.715,14.036-4.156
		c0.822-0.698,1.627-1.495,2.199-2.402C139.537,123.16,138.096,122.036,137.1,121.096z"/>
	<path fill-rule="evenodd" clip-rule="evenodd" fill="#EEEDEC" d="M133.164,122.253c-0.703-0.121-1.405-0.244-2.11-0.369
		c-0.168,0.109-0.333,0.222-0.5,0.335c0.51,0.668,0.913,1.463,1.549,1.978c1.724,1.411,1.829,2.129-0.192,3.083
		c-2.868,1.349-5.887,2.373-8.923,3.569c-0.984-1.903-0.177-2.811,1.01-3.516c0.82-0.487,1.73-0.817,2.56-1.283
		c1.598-0.896,1.824-2.346,1.254-3.889c-0.572-1.536-2.004-1.601-3.285-1.249c-1.29,0.354-2.492,1.029-3.722,1.585
		c-0.729,0.329-1.441,0.692-2.234,1.074c-0.83-1.275-0.637-1.959,0.692-2.37c5.149-1.598,10.278-3.252,15.433-4.837
		c0.426-0.13,0.959,0.079,1.442,0.135c-0.262,0.478-0.404,1.142-0.806,1.397c-0.959,0.621-2.04,1.05-3.209,1.623
		c0.521,0.831,0.953,1.52,1.384,2.205C133.392,121.9,133.278,122.078,133.164,122.253z"/>
	<path fill-rule="evenodd" clip-rule="evenodd" fill="#EEEDEC" d="M122.632,122.905c0.573,0.398,1.286,0.7,1.647,1.239
		c0.132,0.193-0.573,0.957-0.897,1.458c-0.481-0.663-0.959-1.322-1.44-1.982C122.171,123.382,122.401,123.148,122.632,122.905z"/>
</g>
</svg>
