<?xml version="1.0" encoding="utf-8"?>
<!-- Generator: Adobe Illustrator 16.0.0, SVG Export Plug-In . SVG Version: 6.00 Build 0)  -->
<!DOCTYPE svg PUBLIC "-//W3C//DTD SVG 1.1//EN" "http://www.w3.org/Graphics/SVG/1.1/DTD/svg11.dtd">
<svg version="1.1" id="Layer_1" xmlns="http://www.w3.org/2000/svg" xmlns:xlink="http://www.w3.org/1999/xlink" x="0px" y="0px"
	 width="716.668px" height="111.333px" viewBox="0 0 716.668 111.333" enable-background="new 0 0 716.668 111.333"
	 xml:space="preserve">
<path fill-rule="evenodd" clip-rule="evenodd" fill="#FFFFFF" d="M745.69,354.376c2.789-1.264,3.536-3.476,3.529-6.436
	c-0.075-28.473-0.072-56.945-0.003-85.417c0.007-2.917-0.801-5.061-3.526-6.292c1.258,0,2.517,0,3.774,0c0,32.715,0,65.429,0,98.144
	C748.207,354.376,746.948,354.376,745.69,354.376z"/>
<path fill-rule="evenodd" clip-rule="evenodd" fill="#FFFFFF" d="M55.775,256.232c-1.579,0.744-2.744,1.902-3.484,3.484
	c0-1.162,0-2.323,0-3.484C53.452,256.232,54.613,256.232,55.775,256.232z"/>
<path fill-rule="evenodd" clip-rule="evenodd" fill="#FFFFFF" d="M52.291,350.892c0.744,1.579,1.908,2.738,3.484,3.484
	c-1.162,0-2.323,0-3.484,0C52.291,353.215,52.291,352.054,52.291,350.892z"/>
<g>
	<path d="M94.603,94.304c-24.121,0-48.243,0-72.363,0c-1.251-0.593-2.175-1.514-2.766-2.769c0-24.154,0-48.308,0-72.462
		c0.587-1.258,1.512-2.178,2.766-2.77c24.121,0,48.242,0,72.363,0c2.164,0.891,2.875,2.519,2.871,4.825
		c-0.051,22.783-0.051,45.566,0,68.35C97.479,91.789,96.757,93.41,94.603,94.304z M67.004,55.308
		c0.002-4.769-3.794-8.561-8.564-8.556c-4.689,0.006-8.514,3.808-8.539,8.488c-0.026,4.743,3.798,8.605,8.53,8.615
		C63.201,63.866,67.002,60.076,67.004,55.308z"/>
	<path fill-rule="evenodd" clip-rule="evenodd" fill="#FFFFFF" d="M67.004,55.308c-0.002,4.768-3.803,8.558-8.574,8.548
		c-4.731-0.01-8.556-3.872-8.53-8.615c0.025-4.681,3.85-8.482,8.539-8.488C63.209,46.747,67.006,50.539,67.004,55.308z"/>
</g>
<g>
	<path fill-rule="evenodd" clip-rule="evenodd" d="M145.037,16.304c24.027,0,48.054,0,72.081,0c2.178,0.866,2.925,2.499,2.921,4.803
		c-0.042,22.798-0.043,45.597,0,68.396c0.004,2.306-0.753,3.93-2.921,4.802c-24.027,0-48.054,0-72.081,0
		c-2.211-0.812-3.002-2.42-2.998-4.741c0.04-22.839,0.04-45.679,0-68.519C142.035,18.723,142.823,17.114,145.037,16.304z
		 M166.979,32.722c0.018-4.769-3.767-8.579-8.528-8.585c-4.689-0.006-8.525,3.781-8.566,8.458c-0.042,4.739,3.776,8.624,8.496,8.645
		C163.152,41.26,166.961,37.488,166.979,32.722z M203.636,86.473c4.732,0.001,8.592-3.865,8.566-8.581
		c-0.026-4.695-3.829-8.505-8.508-8.524c-4.738-0.019-8.606,3.801-8.63,8.522C195.041,82.596,198.912,86.472,203.636,86.473z"/>
	<path fill-rule="evenodd" clip-rule="evenodd" fill="#FFFFFF" d="M166.979,32.722c-0.018,4.766-3.826,8.539-8.599,8.518
		c-4.72-0.021-8.538-3.906-8.496-8.645c0.041-4.677,3.877-8.464,8.566-8.458C163.212,24.143,166.997,27.953,166.979,32.722z"/>
	<path fill-rule="evenodd" clip-rule="evenodd" fill="#FFFFFF" d="M203.636,86.473c-4.724-0.001-8.595-3.877-8.571-8.583
		c0.023-4.722,3.892-8.541,8.63-8.522c4.679,0.02,8.482,3.829,8.508,8.524C212.228,82.608,208.368,86.474,203.636,86.473z"/>
</g>
<g>
	<path fill-rule="evenodd" clip-rule="evenodd" d="M342.277,94.304c-24.023,0-48.047,0-72.071,0
		c-2.175-0.86-2.948-2.479-2.944-4.791c0.042-22.806,0.042-45.612,0-68.418c-0.004-2.312,0.763-3.933,2.943-4.791
		c24.023,0,48.047,0,72.071,0c2.203,0.824,2.989,2.438,2.985,4.752c-0.039,22.832-0.039,45.665,0,68.496
		C345.267,91.869,344.476,93.479,342.277,94.304z M306.222,63.857c4.737,0.018,8.601-3.814,8.61-8.54
		c0.009-4.676-3.802-8.53-8.469-8.563c-4.761-0.034-8.598,3.723-8.66,8.479C297.641,59.934,301.5,63.841,306.222,63.857z
		 M320.317,77.771c-0.094,4.692,3.648,8.611,8.304,8.697c4.786,0.087,8.677-3.604,8.796-8.342c0.117-4.674-3.643-8.654-8.267-8.753
		C324.287,69.27,320.414,72.952,320.317,77.771z M283.695,41.242c4.727-0.011,8.591-3.907,8.54-8.61
		c-0.051-4.702-3.853-8.486-8.535-8.496c-4.733-0.01-8.598,3.831-8.601,8.549C275.097,37.399,278.969,41.253,283.695,41.242z"/>
	<path fill-rule="evenodd" clip-rule="evenodd" fill="#FFFFFF" d="M306.222,63.857c-4.723-0.016-8.581-3.923-8.52-8.624
		c0.062-4.756,3.899-8.513,8.66-8.479c4.667,0.033,8.479,3.887,8.469,8.563C314.823,60.042,310.959,63.875,306.222,63.857z"/>
	<path fill-rule="evenodd" clip-rule="evenodd" fill="#FFFFFF" d="M320.317,77.771c0.096-4.819,3.969-8.501,8.833-8.397
		c4.625,0.099,8.384,4.079,8.267,8.753c-0.119,4.738-4.01,8.429-8.796,8.342C323.965,86.382,320.223,82.463,320.317,77.771z"/>
	<path fill-rule="evenodd" clip-rule="evenodd" fill="#FFFFFF" d="M283.695,41.242c-4.727,0.011-8.599-3.843-8.596-8.557
		c0.003-4.718,3.868-8.559,8.601-8.549c4.682,0.01,8.484,3.794,8.535,8.496C292.286,37.334,288.422,41.23,283.695,41.242z"/>
</g>
<g>
	<path fill-rule="evenodd" clip-rule="evenodd" d="M457.834,94.304c-24.111,0-48.223,0-72.335,0c-2.163-0.977-2.807-2.674-2.8-4.997
		c0.056-22.668,0.056-45.337,0-68.006c-0.007-2.321,0.63-4.024,2.8-4.997c24.113,0,48.224,0,72.335,0
		c2.158,0.895,2.869,2.519,2.863,4.829c-0.053,22.781-0.053,45.562,0,68.343C460.703,91.786,459.988,93.408,457.834,94.304z
		 M407.641,77.973c0.02-4.774-3.76-8.595-8.514-8.604c-4.708-0.009-8.534,3.76-8.57,8.44c-0.037,4.777,3.731,8.636,8.464,8.663
		C403.795,86.5,407.621,82.728,407.641,77.973z M407.641,32.679c-0.004-4.765-3.807-8.552-8.576-8.542
		c-4.693,0.01-8.493,3.806-8.509,8.501c-0.018,4.764,3.78,8.595,8.525,8.602C403.842,41.247,407.645,37.444,407.641,32.679z
		 M452.848,78.074c0.096-4.7-3.643-8.618-8.303-8.701c-4.787-0.085-8.691,3.611-8.803,8.336c-0.113,4.68,3.641,8.656,8.268,8.759
		C448.873,86.575,452.75,82.892,452.848,78.074z M452.85,32.647c-0.025-4.766-3.838-8.535-8.611-8.51
		c-4.721,0.023-8.551,3.92-8.5,8.647c0.051,4.674,3.895,8.462,8.578,8.457C449.07,41.235,452.877,37.401,452.85,32.647z"/>
	<path fill-rule="evenodd" clip-rule="evenodd" fill="#FFFFFF" d="M407.641,77.973c-0.02,4.755-3.846,8.526-8.621,8.499
		c-4.732-0.027-8.501-3.886-8.464-8.663c0.036-4.681,3.862-8.449,8.57-8.44C403.881,69.378,407.66,73.199,407.641,77.973z"/>
	<path fill-rule="evenodd" clip-rule="evenodd" fill="#FFFFFF" d="M407.641,32.679c0.004,4.765-3.799,8.568-8.559,8.561
		c-4.745-0.007-8.543-3.838-8.525-8.602c0.016-4.695,3.815-8.491,8.509-8.501C403.834,24.126,407.637,27.914,407.641,32.679z"/>
	<path fill-rule="evenodd" clip-rule="evenodd" fill="#FFFFFF" d="M452.848,78.074c-0.098,4.818-3.975,8.501-8.838,8.394
		c-4.627-0.103-8.381-4.079-8.268-8.759c0.111-4.725,4.016-8.421,8.803-8.336C449.205,69.456,452.943,73.374,452.848,78.074z"/>
	<path fill-rule="evenodd" clip-rule="evenodd" fill="#FFFFFF" d="M452.85,32.647c0.027,4.754-3.779,8.587-8.533,8.593
		c-4.684,0.006-8.527-3.782-8.578-8.457c-0.051-4.727,3.779-8.624,8.5-8.647C449.012,24.113,452.824,27.882,452.85,32.647z"/>
</g>
<g>
	<path fill-rule="evenodd" clip-rule="evenodd" d="M569.908,94.304c-24.113,0-48.229,0-72.344,0
		c-2.141-0.916-2.844-2.542-2.838-4.851c0.055-22.766,0.055-45.532,0-68.298c-0.006-2.307,0.688-3.939,2.838-4.851
		c24.115,0,48.23,0,72.344,0c2.184,0.959,2.824,2.651,2.818,4.986c-0.061,22.676-0.061,45.353,0,68.028
		C572.732,91.655,572.086,93.343,569.908,94.304z M564.865,77.996c0.029-4.777-3.744-8.61-8.492-8.627
		c-4.713-0.016-8.549,3.74-8.594,8.418c-0.045,4.783,3.713,8.649,8.441,8.686C561,86.508,564.838,82.746,564.865,77.996z
		 M525.182,55.284c-0.008,4.765,3.789,8.573,8.549,8.572c4.705-0.001,8.514-3.781,8.539-8.475c0.027-4.771-3.758-8.614-8.5-8.628
		C529,46.738,525.189,50.523,525.182,55.284z M564.865,32.68c-0.004-4.765-3.807-8.553-8.576-8.543
		c-4.697,0.011-8.492,3.804-8.51,8.501c-0.018,4.764,3.781,8.596,8.525,8.602C561.068,41.245,564.869,37.444,564.865,32.68z
		 M502.578,32.694c0.004,4.765,3.811,8.559,8.574,8.546c4.689-0.013,8.502-3.816,8.523-8.501c0.023-4.748-3.797-8.596-8.537-8.602
		C506.373,24.131,502.574,27.928,502.578,32.694z M502.578,77.927c0.004,4.766,3.805,8.555,8.574,8.545
		c4.688-0.01,8.504-3.815,8.523-8.502c0.023-4.747-3.799-8.596-8.539-8.602C506.373,69.364,502.574,73.162,502.578,77.927z"/>
	<path fill-rule="evenodd" clip-rule="evenodd" fill="#FFFFFF" d="M564.865,77.996c-0.027,4.75-3.865,8.513-8.645,8.477
		c-4.729-0.036-8.486-3.902-8.441-8.686c0.045-4.678,3.881-8.434,8.594-8.418C561.121,69.385,564.895,73.218,564.865,77.996z"/>
	<path fill-rule="evenodd" clip-rule="evenodd" fill="#FFFFFF" d="M525.182,55.284c0.008-4.76,3.818-8.545,8.588-8.53
		c4.742,0.014,8.527,3.857,8.5,8.628c-0.025,4.693-3.834,8.474-8.539,8.475C528.971,63.857,525.174,60.048,525.182,55.284z"/>
	<path fill-rule="evenodd" clip-rule="evenodd" fill="#FFFFFF" d="M564.865,32.68c0.004,4.765-3.797,8.565-8.561,8.56
		c-4.744-0.005-8.543-3.838-8.525-8.602c0.018-4.697,3.812-8.49,8.51-8.501C561.059,24.126,564.861,27.915,564.865,32.68z"/>
	<path fill-rule="evenodd" clip-rule="evenodd" fill="#FFFFFF" d="M502.578,32.694c-0.004-4.766,3.795-8.562,8.561-8.557
		c4.74,0.005,8.561,3.854,8.537,8.602c-0.021,4.685-3.834,8.489-8.523,8.501C506.389,41.253,502.582,37.459,502.578,32.694z"/>
	<path fill-rule="evenodd" clip-rule="evenodd" fill="#FFFFFF" d="M502.578,77.927c-0.004-4.766,3.795-8.563,8.559-8.559
		c4.74,0.006,8.562,3.854,8.539,8.602c-0.02,4.687-3.836,8.492-8.523,8.502C506.383,86.482,502.582,82.693,502.578,77.927z"/>
</g>
<g>
	<path fill-rule="evenodd" clip-rule="evenodd" d="M693.303,94.304c-24.111,0-48.221,0-72.33,0
		c-2.152-0.896-2.875-2.515-2.869-4.824c0.051-22.784,0.051-45.568,0-68.351c-0.006-2.309,0.709-3.934,2.869-4.825
		c24.109,0,48.219,0,72.33,0c2.162,0.978,2.803,2.682,2.797,5c-0.055,22.628-0.057,45.256,0.002,67.885
		C696.107,91.542,695.516,93.3,693.303,94.304z M679.709,69.369c-4.762-0.003-8.557,3.799-8.553,8.565
		c0.008,4.762,3.814,8.551,8.582,8.538c4.697-0.014,8.49-3.808,8.504-8.509C688.258,73.198,684.459,69.373,679.709,69.369z
		 M671.156,32.663c-0.008,4.767,3.787,8.578,8.543,8.577c4.705-0.001,8.514-3.779,8.543-8.471c0.027-4.771-3.756-8.617-8.494-8.632
		C674.977,24.122,671.166,27.904,671.156,32.663z M657.045,24.136c-4.75,0.021-8.525,3.86-8.488,8.629
		c0.039,4.76,3.867,8.512,8.645,8.474c4.672-0.037,8.461-3.879,8.453-8.572C665.645,27.929,661.797,24.116,657.045,24.136z
		 M648.557,77.977c0.029,4.762,3.844,8.521,8.623,8.495c4.721-0.027,8.523-3.916,8.475-8.667c-0.051-4.68-3.887-8.448-8.588-8.437
		C652.312,69.38,648.529,73.208,648.557,77.977z M634.543,41.24c4.678-0.017,8.498-3.836,8.52-8.517
		c0.02-4.729-3.824-8.584-8.562-8.587c-4.752-0.002-8.57,3.823-8.555,8.572C625.961,37.465,629.781,41.256,634.543,41.24z
		 M625.949,77.75c-0.111,4.633,3.6,8.587,8.174,8.714c4.859,0.135,8.799-3.532,8.934-8.317c0.135-4.665-3.631-8.668-8.25-8.773
		C629.939,69.264,626.064,72.928,625.949,77.75z"/>
	<path fill-rule="evenodd" clip-rule="evenodd" fill="#FFFFFF" d="M679.709,69.369c4.75,0.004,8.549,3.829,8.533,8.595
		c-0.014,4.701-3.807,8.495-8.504,8.509c-4.768,0.013-8.574-3.776-8.582-8.538C671.152,73.167,674.947,69.366,679.709,69.369z"/>
	<path fill-rule="evenodd" clip-rule="evenodd" fill="#FFFFFF" d="M671.156,32.663c0.01-4.759,3.82-8.541,8.592-8.526
		c4.738,0.015,8.521,3.861,8.494,8.632c-0.029,4.692-3.838,8.47-8.543,8.471C674.943,41.241,671.148,37.43,671.156,32.663z"/>
	<path fill-rule="evenodd" clip-rule="evenodd" fill="#FFFFFF" d="M657.045,24.136c4.752-0.02,8.6,3.793,8.609,8.531
		c0.008,4.693-3.781,8.535-8.453,8.572c-4.777,0.038-8.605-3.714-8.645-8.474C648.52,27.996,652.295,24.156,657.045,24.136z"/>
	<path fill-rule="evenodd" clip-rule="evenodd" fill="#FFFFFF" d="M648.557,77.977c-0.027-4.77,3.756-8.597,8.51-8.608
		c4.701-0.012,8.537,3.757,8.588,8.437c0.049,4.751-3.754,8.64-8.475,8.667C652.4,86.499,648.586,82.739,648.557,77.977z"/>
	<path fill-rule="evenodd" clip-rule="evenodd" fill="#FFFFFF" d="M634.543,41.24c-4.762,0.016-8.582-3.775-8.598-8.532
		c-0.016-4.749,3.803-8.574,8.555-8.572c4.738,0.003,8.582,3.859,8.562,8.587C643.041,37.404,639.221,41.224,634.543,41.24z"/>
	<path fill-rule="evenodd" clip-rule="evenodd" fill="#FFFFFF" d="M625.949,77.75c0.115-4.822,3.99-8.486,8.857-8.377
		c4.619,0.105,8.385,4.108,8.25,8.773c-0.135,4.785-4.074,8.452-8.934,8.317C629.549,86.337,625.838,82.383,625.949,77.75z"/>
</g>
</svg>
