<?xml version="1.0" encoding="utf-8"?>
<!-- Generator: Adobe Illustrator 16.0.0, SVG Export Plug-In . SVG Version: 6.00 Build 0)  -->
<!DOCTYPE svg PUBLIC "-//W3C//DTD SVG 1.1//EN" "http://www.w3.org/Graphics/SVG/1.1/DTD/svg11.dtd">
<svg version="1.1" id="Layer_1" xmlns="http://www.w3.org/2000/svg" xmlns:xlink="http://www.w3.org/1999/xlink" x="0px" y="0px"
	 width="80px" height="80px" viewBox="0 0 80 80" enable-background="new 0 0 80 80" xml:space="preserve">
<g>
	<path d="M76.129,79c-24.123,0-48.243,0-72.364,0C2.514,78.407,1.591,77.485,1,76.23C1,52.077,1,27.924,1,3.77
		C1.587,2.512,2.512,1.592,3.765,1c24.121,0,48.241,0,72.364,0c2.161,0.891,2.875,2.52,2.87,4.825
		C78.947,28.609,78.946,51.392,79,74.175C79.004,76.484,78.284,78.105,76.129,79z M48.53,40.004
		c0.001-4.769-3.794-8.561-8.565-8.556c-4.688,0.006-8.513,3.808-8.539,8.487c-0.025,4.744,3.798,8.605,8.53,8.615
		C44.726,48.562,48.527,44.771,48.53,40.004z"/>
	<path fill-rule="evenodd" clip-rule="evenodd" fill="#FFFFFF" d="M48.53,40.004c-0.003,4.768-3.805,8.558-8.574,8.547
		c-4.731-0.01-8.555-3.871-8.53-8.615c0.025-4.68,3.85-8.481,8.539-8.487C44.736,31.443,48.531,35.235,48.53,40.004z"/>
</g>
</svg>
