<?xml version="1.0" encoding="utf-8"?>
<!-- Generator: Adobe Illustrator 16.0.0, SVG Export Plug-In . SVG Version: 6.00 Build 0)  -->
<!DOCTYPE svg PUBLIC "-//W3C//DTD SVG 1.1//EN" "http://www.w3.org/Graphics/SVG/1.1/DTD/svg11.dtd">
<svg version="1.1" id="Layer_1" xmlns="http://www.w3.org/2000/svg" xmlns:xlink="http://www.w3.org/1999/xlink" x="0px" y="0px"
	 width="80px" height="80px" viewBox="0 0 80 80" enable-background="new 0 0 80 80" xml:space="preserve">
<g>
	<path fill-rule="evenodd" clip-rule="evenodd" d="M3.992,0.635c24.027,0,48.056,0,72.082,0c2.179,0.866,2.924,2.5,2.92,4.802
		c-0.04,22.799-0.04,45.598,0,68.396c0.006,2.306-0.752,3.929-2.92,4.802c-24.026,0-48.055,0-72.082,0
		c-2.21-0.811-3.002-2.419-2.998-4.742c0.04-22.838,0.04-45.678,0-68.518C0.99,3.054,1.778,1.444,3.992,0.635z M25.934,17.053
		c0.018-4.769-3.766-8.58-8.529-8.585c-4.688-0.008-8.525,3.78-8.566,8.457c-0.042,4.739,3.776,8.624,8.497,8.646
		C22.108,25.591,25.917,21.819,25.934,17.053z M62.592,70.804c4.732,0.001,8.593-3.864,8.567-8.58
		c-0.026-4.696-3.83-8.505-8.509-8.525c-4.737-0.02-8.606,3.801-8.629,8.524C53.997,66.927,57.866,70.804,62.592,70.804z"/>
	<path fill-rule="evenodd" clip-rule="evenodd" fill="#FFFFFF" d="M25.934,17.053c-0.018,4.766-3.826,8.538-8.599,8.517
		c-4.72-0.021-8.539-3.906-8.497-8.646c0.042-4.677,3.878-8.465,8.566-8.457C22.168,8.473,25.952,12.284,25.934,17.053z"/>
	<path fill-rule="evenodd" clip-rule="evenodd" fill="#FFFFFF" d="M62.592,70.804c-4.726,0-8.595-3.877-8.57-8.581
		c0.022-4.724,3.892-8.544,8.629-8.524c4.679,0.021,8.482,3.829,8.509,8.525C71.185,66.939,67.324,70.805,62.592,70.804z"/>
</g>
</svg>
