<?xml version="1.0" encoding="utf-8"?>
<!-- Generator: Adobe Illustrator 16.0.0, SVG Export Plug-In . SVG Version: 6.00 Build 0)  -->
<!DOCTYPE svg PUBLIC "-//W3C//DTD SVG 1.1//EN" "http://www.w3.org/Graphics/SVG/1.1/DTD/svg11.dtd">
<svg version="1.1" id="Layer_1" xmlns="http://www.w3.org/2000/svg" xmlns:xlink="http://www.w3.org/1999/xlink" x="0px" y="0px"
	 width="80px" height="80px" viewBox="0 0 80 80" enable-background="new 0 0 80 80" xml:space="preserve">
<g>
	<path fill-rule="evenodd" clip-rule="evenodd" d="M76.016,79c-24.024,0-48.048,0-72.071,0C1.769,78.14,0.996,76.521,1,74.209
		c0.042-22.806,0.042-45.612,0-68.418C0.997,3.479,1.764,1.858,3.944,1c24.023,0,48.047,0,72.071,0
		C78.218,1.824,79.004,3.438,79,5.752c-0.039,22.832-0.039,45.665,0,68.496C79.004,76.564,78.214,78.175,76.016,79z M39.96,48.553
		c4.737,0.018,8.601-3.814,8.61-8.54c0.01-4.676-3.802-8.53-8.47-8.563c-4.761-0.034-8.598,3.723-8.66,8.479
		C31.379,44.63,35.237,48.537,39.96,48.553z M54.055,62.467c-0.094,4.692,3.649,8.611,8.305,8.697
		c4.785,0.087,8.677-3.604,8.796-8.342c0.116-4.674-3.643-8.654-8.268-8.753C58.024,53.966,54.151,57.647,54.055,62.467z
		 M17.433,25.938c4.727-0.011,8.591-3.907,8.54-8.61c-0.051-4.702-3.853-8.486-8.535-8.496c-4.733-0.01-8.598,3.831-8.601,8.549
		C8.834,22.095,12.707,25.949,17.433,25.938z"/>
	<path fill-rule="evenodd" clip-rule="evenodd" fill="#FFFFFF" d="M39.96,48.553c-4.723-0.016-8.581-3.923-8.52-8.624
		c0.062-4.756,3.899-8.513,8.66-8.479c4.668,0.033,8.479,3.887,8.47,8.563C48.561,44.738,44.697,48.57,39.96,48.553z"/>
	<path fill-rule="evenodd" clip-rule="evenodd" fill="#FFFFFF" d="M54.055,62.467c0.097-4.819,3.97-8.501,8.833-8.397
		c4.625,0.099,8.384,4.079,8.268,8.753c-0.119,4.738-4.011,8.429-8.796,8.342C57.704,71.078,53.961,67.159,54.055,62.467z"/>
	<path fill-rule="evenodd" clip-rule="evenodd" fill="#FFFFFF" d="M17.433,25.938c-4.727,0.011-8.599-3.843-8.596-8.557
		c0.003-4.718,3.868-8.559,8.601-8.549c4.682,0.01,8.484,3.794,8.535,8.496C26.024,22.03,22.16,25.926,17.433,25.938z"/>
</g>
</svg>
