<?xml version="1.0" encoding="utf-8"?>
<!-- Generator: Adobe Illustrator 16.0.0, SVG Export Plug-In . SVG Version: 6.00 Build 0)  -->
<!DOCTYPE svg PUBLIC "-//W3C//DTD SVG 1.1//EN" "http://www.w3.org/Graphics/SVG/1.1/DTD/svg11.dtd">
<svg version="1.1" id="Layer_1" xmlns="http://www.w3.org/2000/svg" xmlns:xlink="http://www.w3.org/1999/xlink" x="0px" y="0px"
	 width="80px" height="80px" viewBox="0 0 80 80" enable-background="new 0 0 80 80" xml:space="preserve">
<g>
	<path fill-rule="evenodd" clip-rule="evenodd" d="M76.136,79c-24.111,0-48.223,0-72.335,0c-2.164-0.977-2.807-2.674-2.8-4.997
		C1.056,51.335,1.056,28.666,1,5.997C0.994,3.676,1.631,1.973,3.801,1c24.112,0,48.224,0,72.335,0
		c2.158,0.895,2.87,2.519,2.864,4.829c-0.053,22.781-0.053,45.562,0,68.343C79.005,76.481,78.291,78.104,76.136,79z M25.943,62.669
		c0.02-4.774-3.761-8.595-8.515-8.604c-4.708-0.01-8.534,3.758-8.57,8.439c-0.037,4.777,3.731,8.636,8.463,8.663
		C22.098,71.195,25.923,67.424,25.943,62.669z M25.943,17.375c-0.004-4.765-3.807-8.552-8.577-8.542
		c-4.693,0.01-8.492,3.806-8.508,8.501c-0.017,4.764,3.78,8.595,8.525,8.602C22.145,25.942,25.947,22.14,25.943,17.375z
		 M71.149,62.77c0.096-4.7-3.643-8.618-8.302-8.701c-4.788-0.085-8.691,3.611-8.804,8.336c-0.112,4.68,3.642,8.656,8.268,8.759
		C67.176,71.271,71.053,67.588,71.149,62.77z M71.152,17.343c-0.026-4.766-3.839-8.535-8.612-8.51
		c-4.721,0.023-8.551,3.92-8.5,8.647c0.052,4.674,3.895,8.462,8.579,8.457C67.372,25.931,71.179,22.097,71.152,17.343z"/>
	<path fill-rule="evenodd" clip-rule="evenodd" fill="#FFFFFF" d="M25.943,62.669c-0.02,4.755-3.846,8.526-8.622,8.499
		c-4.732-0.027-8.5-3.886-8.463-8.663c0.036-4.682,3.862-8.449,8.57-8.439C22.183,54.074,25.963,57.895,25.943,62.669z"/>
	<path fill-rule="evenodd" clip-rule="evenodd" fill="#FFFFFF" d="M25.943,17.375c0.004,4.765-3.799,8.567-8.56,8.561
		c-4.746-0.007-8.542-3.838-8.525-8.602c0.016-4.695,3.815-8.491,8.508-8.501C22.136,8.822,25.939,12.61,25.943,17.375z"/>
	<path fill-rule="evenodd" clip-rule="evenodd" fill="#FFFFFF" d="M71.149,62.77c-0.097,4.818-3.974,8.501-8.838,8.394
		c-4.626-0.103-8.38-4.079-8.268-8.759c0.112-4.725,4.016-8.421,8.804-8.336C67.507,54.151,71.245,58.069,71.149,62.77z"/>
	<path fill-rule="evenodd" clip-rule="evenodd" fill="#FFFFFF" d="M71.152,17.343c0.026,4.754-3.78,8.587-8.533,8.593
		c-4.685,0.005-8.527-3.782-8.579-8.457c-0.051-4.727,3.779-8.624,8.5-8.647C67.313,8.809,71.126,12.578,71.152,17.343z"/>
</g>
</svg>
