<?xml version="1.0" encoding="utf-8"?>
<!-- Generator: Adobe Illustrator 16.0.0, SVG Export Plug-In . SVG Version: 6.00 Build 0)  -->
<!DOCTYPE svg PUBLIC "-//W3C//DTD SVG 1.1//EN" "http://www.w3.org/Graphics/SVG/1.1/DTD/svg11.dtd">
<svg version="1.1" id="Layer_1" xmlns="http://www.w3.org/2000/svg" xmlns:xlink="http://www.w3.org/1999/xlink" x="0px" y="0px"
	 width="80px" height="80px" viewBox="0 0 80 80" enable-background="new 0 0 80 80" xml:space="preserve">
<g>
	<path fill-rule="evenodd" clip-rule="evenodd" d="M76.183,79c-24.114,0-48.229,0-72.344,0C1.697,78.084,0.994,76.458,1,74.149
		C1.055,51.384,1.054,28.617,1,5.851C0.994,3.544,1.689,1.912,3.839,1c24.115,0,48.229,0,72.344,0
		C78.366,1.959,79.006,3.651,79,5.986c-0.061,22.676-0.061,45.353,0,68.029C79.006,76.351,78.36,78.039,76.183,79z M71.14,62.691
		c0.028-4.777-3.745-8.61-8.493-8.626c-4.713-0.017-8.549,3.739-8.593,8.417c-0.045,4.783,3.712,8.649,8.44,8.686
		C67.274,71.204,71.111,67.441,71.14,62.691z M31.456,39.979c-0.008,4.765,3.79,8.574,8.548,8.573
		c4.705-0.001,8.514-3.781,8.54-8.475c0.026-4.77-3.759-8.613-8.5-8.627C35.274,31.434,31.463,35.219,31.456,39.979z M71.14,17.375
		c-0.004-4.765-3.808-8.554-8.577-8.543c-4.696,0.011-8.493,3.804-8.51,8.501c-0.017,4.764,3.781,8.596,8.525,8.602
		C67.342,25.941,71.143,22.14,71.14,17.375z M8.852,17.39c0.004,4.765,3.81,8.559,8.574,8.546c4.69-0.013,8.503-3.816,8.525-8.501
		c0.022-4.748-3.798-8.596-8.538-8.602C12.646,8.827,8.848,12.624,8.852,17.39z M8.852,62.623c0.004,4.766,3.805,8.555,8.575,8.545
		c4.687-0.01,8.503-3.815,8.524-8.502c0.022-4.747-3.8-8.596-8.539-8.601C12.646,54.06,8.848,57.857,8.852,62.623z"/>
	<path fill-rule="evenodd" clip-rule="evenodd" fill="#FFFFFF" d="M71.14,62.691c-0.028,4.75-3.865,8.513-8.646,8.477
		c-4.729-0.036-8.485-3.902-8.44-8.686c0.044-4.678,3.88-8.434,8.593-8.417C67.395,54.081,71.168,57.914,71.14,62.691z"/>
	<path fill-rule="evenodd" clip-rule="evenodd" fill="#FFFFFF" d="M31.456,39.979c0.008-4.76,3.818-8.545,8.588-8.53
		c4.741,0.014,8.526,3.857,8.5,8.627c-0.026,4.694-3.835,8.474-8.54,8.475C35.246,48.553,31.447,44.744,31.456,39.979z"/>
	<path fill-rule="evenodd" clip-rule="evenodd" fill="#FFFFFF" d="M71.14,17.375c0.003,4.765-3.798,8.565-8.562,8.56
		c-4.744-0.005-8.542-3.838-8.525-8.602c0.017-4.697,3.813-8.49,8.51-8.501C67.332,8.822,71.136,12.611,71.14,17.375z"/>
	<path fill-rule="evenodd" clip-rule="evenodd" fill="#FFFFFF" d="M8.852,17.39c-0.004-4.766,3.794-8.562,8.561-8.557
		c4.74,0.005,8.561,3.854,8.538,8.602c-0.021,4.685-3.834,8.489-8.525,8.501C12.662,25.949,8.855,22.155,8.852,17.39z"/>
	<path fill-rule="evenodd" clip-rule="evenodd" fill="#FFFFFF" d="M8.852,62.623c-0.004-4.766,3.794-8.563,8.56-8.558
		c4.739,0.005,8.561,3.854,8.539,8.601c-0.021,4.687-3.837,8.492-8.524,8.502C12.657,71.178,8.855,67.389,8.852,62.623z"/>
</g>
</svg>
