<?xml version="1.0" encoding="utf-8"?>
<!-- Generator: Adobe Illustrator 16.0.0, SVG Export Plug-In . SVG Version: 6.00 Build 0)  -->
<!DOCTYPE svg PUBLIC "-//W3C//DTD SVG 1.1//EN" "http://www.w3.org/Graphics/SVG/1.1/DTD/svg11.dtd">
<svg version="1.1" id="Layer_1" xmlns="http://www.w3.org/2000/svg" xmlns:xlink="http://www.w3.org/1999/xlink" x="0px" y="0px"
	 width="80px" height="80px" viewBox="0 0 80 80" enable-background="new 0 0 80 80" xml:space="preserve">
<g>
	<path fill-rule="evenodd" clip-rule="evenodd" d="M76.258,78.635c-24.11,0-48.22,0-72.33,0c-2.153-0.896-2.875-2.515-2.87-4.824
		C1.111,51.026,1.11,28.243,1.059,5.46C1.054,3.151,1.768,1.526,3.928,0.635c24.11,0,48.219,0,72.33,0
		c2.163,0.978,2.804,2.682,2.798,5c-0.055,22.628-0.058,45.256,0.002,67.885C79.063,75.873,78.471,77.631,76.258,78.635z
		 M62.664,53.7c-4.761-0.004-8.557,3.798-8.552,8.564c0.007,4.762,3.814,8.551,8.582,8.538c4.696-0.014,8.489-3.808,8.503-8.509
		C71.213,57.528,67.414,53.703,62.664,53.7z M54.112,16.993c-0.009,4.767,3.787,8.578,8.543,8.577
		c4.705-0.001,8.514-3.779,8.542-8.471c0.028-4.771-3.756-8.617-8.494-8.632C57.933,8.453,54.122,12.234,54.112,16.993z M40,8.466
		c-4.75,0.021-8.526,3.86-8.488,8.629c0.039,4.76,3.866,8.512,8.644,8.474c4.673-0.037,8.462-3.879,8.453-8.572
		C48.601,12.259,44.753,8.447,40,8.466z M31.513,62.308c0.029,4.762,3.844,8.521,8.623,8.495c4.721-0.027,8.523-3.916,8.474-8.667
		c-0.05-4.68-3.886-8.448-8.588-8.437C35.268,53.711,31.485,57.538,31.513,62.308z M17.499,25.571
		c4.678-0.017,8.499-3.836,8.519-8.517c0.02-4.729-3.825-8.584-8.562-8.587c-4.752-0.002-8.57,3.823-8.554,8.572
		C8.917,21.795,12.738,25.586,17.499,25.571z M8.904,62.081c-0.11,4.633,3.6,8.587,8.174,8.714c4.86,0.135,8.799-3.532,8.935-8.317
		c0.133-4.665-3.633-8.668-8.251-8.773C12.894,53.595,9.019,57.259,8.904,62.081z"/>
	<path fill-rule="evenodd" clip-rule="evenodd" fill="#FFFFFF" d="M62.664,53.7c4.75,0.003,8.549,3.828,8.533,8.594
		c-0.014,4.701-3.807,8.495-8.503,8.509c-4.768,0.013-8.575-3.776-8.582-8.538C54.107,57.498,57.903,53.696,62.664,53.7z"/>
	<path fill-rule="evenodd" clip-rule="evenodd" fill="#FFFFFF" d="M54.112,16.993c0.01-4.759,3.82-8.541,8.591-8.526
		c4.738,0.015,8.522,3.861,8.494,8.632c-0.028,4.692-3.837,8.47-8.542,8.471C57.899,25.571,54.104,21.76,54.112,16.993z"/>
	<path fill-rule="evenodd" clip-rule="evenodd" fill="#FFFFFF" d="M40,8.466c4.752-0.02,8.6,3.793,8.609,8.531
		c0.009,4.693-3.78,8.535-8.453,8.572c-4.778,0.038-8.605-3.714-8.644-8.474C31.475,12.326,35.25,8.487,40,8.466z"/>
	<path fill-rule="evenodd" clip-rule="evenodd" fill="#FFFFFF" d="M31.513,62.308c-0.028-4.77,3.755-8.597,8.509-8.608
		c4.702-0.012,8.538,3.757,8.588,8.437c0.049,4.751-3.753,8.64-8.474,8.667C35.357,70.829,31.542,67.069,31.513,62.308z"/>
	<path fill-rule="evenodd" clip-rule="evenodd" fill="#FFFFFF" d="M17.499,25.571c-4.761,0.016-8.582-3.775-8.598-8.532
		c-0.016-4.749,3.802-8.574,8.554-8.572c4.737,0.003,8.582,3.859,8.562,8.587C25.998,21.734,22.177,25.554,17.499,25.571z"/>
	<path fill-rule="evenodd" clip-rule="evenodd" fill="#FFFFFF" d="M8.904,62.081c0.115-4.822,3.99-8.486,8.857-8.377
		c4.619,0.105,8.385,4.108,8.251,8.773c-0.136,4.785-4.075,8.452-8.935,8.317C12.504,70.668,8.794,66.714,8.904,62.081z"/>
</g>
</svg>
