<?xml version="1.0" encoding="utf-8"?>
<!-- Generator: Adobe Illustrator 16.0.0, SVG Export Plug-In . SVG Version: 6.00 Build 0)  -->
<!DOCTYPE svg PUBLIC "-//W3C//DTD SVG 1.1//EN" "http://www.w3.org/Graphics/SVG/1.1/DTD/svg11.dtd">
<svg version="1.1" id="Layer_1" xmlns="http://www.w3.org/2000/svg" xmlns:xlink="http://www.w3.org/1999/xlink" x="0px" y="0px"
	 width="80px" height="80px" viewBox="0 0 80 80" enable-background="new 0 0 80 80" xml:space="preserve">
<g>
	<path fill-rule="evenodd" clip-rule="evenodd" d="M22.336,44.204c-0.894,0.095-1.543,0.162-2.175,0.228
		c-0.079,0.381-0.038,0.888-0.266,1.086c-0.225,0.196-0.725,0.121-1.099,0.095c-4.082-0.279-7.235-2.067-9.274-5.692
		c-0.705-1.252-0.957-2.537-0.598-3.954c0.107-0.423,0.06-0.911-0.023-1.35c-0.24-1.263,0.182-2.242,1.061-3.144
		c0.87-0.893,1.667-1.864,2.439-2.846c0.89-1.133,1.729-2.308,2.567-3.481c0.605-0.848,0.754-1.636-0.047-2.554
		c-1.417-1.625-1.447-3.577-0.113-5.268c1.109-1.406,2.364-2.697,3.502-4.083c0.308-0.375,0.556-0.886,0.613-1.362
		c0.165-1.36,0.25-2.732,0.305-4.103c0.041-0.991,0.577-1.155,1.324-0.824c1.181,0.523,2.321,1.138,3.479,1.714
		c0.042-0.046,0.117-0.088,0.122-0.138c0.168-1.571,0.477-1.876,1.903-1.164c1.354,0.677,2.641,1.609,3.732,2.662
		c1.683,1.624,2.859,3.646,3.697,5.84c1.262,3.298,3.502,5.908,5.917,8.385c0.229,0.236,0.762,0.316,1.122,0.262
		c3.854-0.59,7.695-1.264,11.552-1.828c3.078-0.451,5.292-2.57,5.889-5.903c0.271-1.52,0.451-3.06,0.626-4.596
		c0.093-0.814,0.456-0.938,1.136-0.615c2.563,1.222,3.767,3.368,4.139,6.078c0.053,0.383,0.109,0.773,0.091,1.156
		c-0.077,1.554,0.453,2.517,2.006,3.251c2.733,1.291,3.625,3.923,3.776,6.737c0.077,1.449-0.141,2.948-0.453,4.375
		c-0.44,2.013-0.423,3.923,0.208,5.91c1.299,4.088,1.672,8.337,1.743,12.599c0.036,2.247-1.596,3.979-3.833,4.168
		c-1.131,0.097-2.317-0.048-3.434-0.292c-1.292-0.28-1.994-1.724-1.882-3.511c0.08-1.265,0.21-2.525,0.292-3.789
		c0.068-1.036-0.271-1.915-1.245-2.715c-0.062,1.206-0.048,2.279-0.202,3.33c-0.084,0.574-0.329,1.227-0.719,1.638
		c-1.561,1.641-3.433,2.563-5.776,2.037c-1.89-0.425-2.372-1.05-2.355-2.957c0.004-0.311,0-0.621,0-1.006
		c-1.378,0.496-2.639,1.03-3.944,1.397c-1.348,0.38-2.736,0.629-4.118,0.871c-0.562,0.099-0.88,0.264-0.927,0.887
		c-0.266,3.502-1.909,6.51-3.505,9.521c-0.478,0.901-0.6,1.808-0.703,2.801c-0.222,2.119-0.633,4.22-1.026,6.315
		c-0.158,0.844-0.759,1.36-1.551,1.729c-2.807,1.304-5.583,1.696-8.308-0.171c-1.406-0.964-1.696-1.692-1.224-3.331
		c0.25-0.868,0.59-1.754,1.089-2.499c0.75-1.118,1.151-2.304,1.275-3.625c0.166-1.771,0.374-3.536,0.564-5.305
		c-0.126-0.024-0.252-0.05-0.378-0.075c-0.374,1.651-0.756,3.303-1.118,4.957c-0.104,0.48-0.241,0.978-0.211,1.458
		c0.109,1.775-0.828,2.679-2.405,3.196c-1.7,0.557-3.354,1.255-5.058,1.802c-1.334,0.427-2.774-0.135-3.226-1.444
		c-0.437-1.265-0.658-2.66-0.652-3.996c0.003-0.633,0.642-1.404,1.201-1.854c0.775-0.627,1.117-1.322,1.057-2.264
		c-0.079-1.227-0.215-2.451-0.253-3.68c-0.048-1.576,0.223-2.979,1.432-4.241c0.721-0.753,0.989-1.988,1.325-3.051
		C21.792,46.793,22.013,45.562,22.336,44.204z M25.443,42.761c-1.334-1.872-1.147-3.452,0.587-5.104
		c0.23-0.218,0.654-0.233,0.988-0.343c-0.081,0.356-0.095,0.747-0.257,1.059c-0.24,0.462-0.635,0.844-0.876,1.306
		c-0.444,0.85-0.354,1.68,0.459,2.25c0.88,0.615,0.563,1.193-0.092,1.532c-0.875,0.451-1.861,0.688-2.87,1.041
		c-0.291,1.174-0.544,2.56-0.987,3.882c-0.398,1.188-0.787,2.492-1.574,3.406c-0.904,1.05-1.168,2.115-1.117,3.37
		c0.054,1.333,0.204,2.663,0.212,3.996c0.008,1.166-0.373,2.147-1.429,2.881c-1.467,1.019-0.968,4.732,0.672,5.454
		c0.085,0.037,0.202,0.005,0.315,0.005c0.064-0.078,0.159-0.147,0.192-0.239c2.032-5.695,4.015-11.405,4.722-17.457
		c0.069-0.597,0.303-1.043,0.898-0.855c1.729,0.544,3.444,1.147,5.131,1.813c0.69,0.272,0.846,0.904,0.762,1.674
		c-0.276,2.552-0.438,5.116-0.714,7.667c-0.271,2.507-0.402,5.06-2.064,7.186c-0.312,0.399-0.443,0.951-0.619,1.446
		c-0.352,0.993-0.084,1.751,0.823,2.349c2.357,1.554,4.736,1.316,7.092,0.089c0.506-0.265,1.07-0.817,1.196-1.337
		c0.42-1.73,0.874-3.505,0.896-5.266c0.021-1.735,0.51-3.184,1.306-4.663c1.416-2.632,2.698-5.322,2.996-8.383
		c0.072-0.741,0.517-1.507,0.966-2.138c1.135-1.599,2.025-3.281,2.441-5.213c0.068-0.317,0.417-0.575,0.637-0.861
		c0.127,0.352,0.281,0.696,0.368,1.059c0.036,0.152-0.05,0.347-0.115,0.507c-0.648,1.611-1.304,3.219-1.961,4.835
		c0.183-0.021,0.459-0.039,0.729-0.092c4.274-0.834,8.247-2.585,12.103-4.468c4.644-2.27,6.225-6.319,5.062-11.402
		c-0.066-0.292,0.147-0.649,0.229-0.977c0.267,0.257,0.686,0.469,0.776,0.778c0.526,1.782,0.727,3.646,0.153,5.409
		c-0.554,1.696-1.451,3.281-2.285,5.108c-0.022-0.018,0.187,0.116,0.374,0.275c1.522,1.291,2.107,2.928,1.832,4.899
		c-0.101,0.73-0.146,1.47-0.188,2.207c-0.155,2.72-0.001,3.34,3.352,3.409c2.138,0.043,3.703-1.371,3.63-3.413
		c-0.146-4.006-0.416-8.025-1.667-11.87c-0.771-2.37-0.737-4.661-0.191-7.052c0.309-1.351,0.471-2.794,0.359-4.168
		c-0.197-2.421-1.128-4.62-3.565-5.546c-1.623-0.618-2.056-1.749-2.213-3.208c-0.062-0.559-0.018-1.129-0.085-1.686
		c-0.263-2.15-1.078-3.97-3.164-5.156c-0.234,1.5-0.417,2.889-0.673,4.264c-0.734,3.948-3.325,6.21-7.284,6.754
		c-3.859,0.531-7.686,1.303-11.533,1.931c-0.35,0.057-0.866-0.042-1.099-0.274c-2.75-2.748-5.242-5.676-6.67-9.385
		c-0.987-2.56-2.482-4.82-4.641-6.56c-0.68-0.548-1.513-0.908-2.45-1.457c-0.123,1.396-0.202,2.473-0.318,3.545
		c-0.055,0.509,0.2,1.242-0.63,1.29c-0.112,0.007-0.313-0.829-0.403-1.288c-0.11-0.56,0.065-1.398-0.253-1.651
		c-0.969-0.771-2.115-1.319-3.386-2.067c-0.125,1.647-0.183,3.045-0.362,4.427c-0.065,0.508-0.323,1.06-0.657,1.451
		c-1.166,1.363-2.432,2.639-3.603,3.997c-1.059,1.228-1.039,2.821-0.043,4.117c1.186,1.543,1.175,2.581,0.021,4.145
		c-1.127,1.528-2.21,3.088-3.331,4.62c-0.28,0.383-0.574,0.791-0.953,1.061c-1.674,1.197-1.917,2.247-0.931,4.053
		c0.123,0.224,0.059,0.823-0.028,0.846c-1.134,0.31-0.676,1.121-0.461,1.676c1.097,2.842,3.024,4.878,6.003,5.764
		c0.821,0.245,1.687,0.341,2.607,0.52c-0.438-1.573-0.342-1.514,1.121-1.385c1.678,0.149,3.386-0.038,5.081-0.103
		C24.981,43.042,25.166,42.888,25.443,42.761z M21.091,67.269c1.191-0.451,2.406-0.988,3.667-1.368
		c1.463-0.441,2.391-1.183,2.232-2.863c-0.035-0.371,0.103-0.762,0.179-1.141c0.456-2.232,0.722-4.562,2.091-6.456
		c0.732-1.012,0.738-2.074,0.829-3.169c0.02-0.246-0.201-0.661-0.416-0.753c-1.332-0.569-2.694-1.068-3.818-1.503
		C24.234,55.885,22.679,61.519,21.091,67.269z M56.419,51.567c1.56-0.42,2.978-1.061,3.366-2.365
		c0.398-1.338,0.088-2.888,0.088-4.378c-0.824,0.505-1.692,1.014-2.53,1.568c-0.175,0.116-0.311,0.391-0.341,0.61
		C56.797,48.456,56.626,49.914,56.419,51.567z M55.29,51.69c0.209-1.549,0.405-3.004,0.609-4.509
		c-2.793,0.615-2.774,0.619-2.774,2.839C53.124,51.422,54.237,51.311,55.29,51.69z"/>
	<path fill-rule="evenodd" clip-rule="evenodd" fill="none" d="M25.443,42.761c-0.278,0.127-0.462,0.281-0.651,0.288
		c-1.695,0.064-3.403,0.252-5.081,0.103c-1.463-0.129-1.559-0.188-1.121,1.385c-0.921-0.179-1.786-0.274-2.607-0.52
		c-2.979-0.886-4.906-2.922-6.003-5.764c-0.214-0.556-0.673-1.367,0.461-1.676c0.087-0.023,0.151-0.623,0.028-0.846
		c-0.986-1.806-0.743-2.855,0.931-4.053c0.378-0.27,0.672-0.678,0.953-1.061c1.12-1.532,2.204-3.092,3.331-4.62
		c1.154-1.564,1.165-2.602-0.021-4.145c-0.996-1.296-1.016-2.89,0.043-4.117c1.171-1.358,2.438-2.634,3.603-3.997
		c0.334-0.391,0.591-0.943,0.657-1.451c0.179-1.382,0.236-2.78,0.362-4.427c1.271,0.749,2.417,1.296,3.386,2.067
		c0.318,0.253,0.144,1.092,0.253,1.651c0.09,0.459,0.291,1.295,0.403,1.288c0.83-0.047,0.575-0.78,0.63-1.29
		c0.117-1.073,0.195-2.149,0.318-3.545c0.937,0.548,1.77,0.908,2.45,1.457c2.159,1.74,3.654,4,4.641,6.56
		c1.428,3.708,3.92,6.637,6.67,9.385c0.233,0.232,0.75,0.331,1.099,0.274c3.848-0.628,7.674-1.4,11.533-1.931
		c3.959-0.544,6.55-2.807,7.284-6.754c0.256-1.375,0.438-2.764,0.673-4.264c2.086,1.187,2.901,3.006,3.164,5.156
		c0.067,0.557,0.023,1.127,0.085,1.686c0.157,1.459,0.59,2.59,2.213,3.208c2.438,0.926,3.368,3.125,3.565,5.546
		c0.111,1.374-0.051,2.817-0.359,4.168c-0.546,2.392-0.579,4.682,0.191,7.052c1.251,3.844,1.521,7.864,1.667,11.87
		c0.073,2.042-1.492,3.456-3.63,3.413c-3.353-0.069-3.507-0.689-3.352-3.409c0.042-0.737,0.088-1.477,0.188-2.207
		c0.275-1.972-0.31-3.608-1.832-4.899c-0.188-0.159-0.396-0.293-0.374-0.275c0.834-1.827,1.731-3.412,2.285-5.108
		c0.573-1.762,0.373-3.626-0.153-5.409c-0.091-0.309-0.51-0.521-0.776-0.778c-0.082,0.327-0.296,0.684-0.229,0.977
		c1.163,5.083-0.418,9.133-5.062,11.402c-3.855,1.883-7.828,3.634-12.103,4.468c-0.27,0.053-0.546,0.07-0.729,0.092
		c0.657-1.616,1.312-3.224,1.961-4.835c0.065-0.16,0.151-0.354,0.115-0.507c-0.087-0.362-0.241-0.707-0.368-1.059
		c-0.22,0.286-0.568,0.544-0.637,0.861c-0.416,1.932-1.307,3.614-2.441,5.213c-0.449,0.631-0.894,1.396-0.966,2.138
		c-0.298,3.061-1.58,5.751-2.996,8.383c-0.796,1.479-1.285,2.928-1.306,4.663c-0.022,1.761-0.476,3.535-0.896,5.266
		c-0.126,0.52-0.69,1.072-1.196,1.337c-2.356,1.228-4.735,1.465-7.092-0.089c-0.907-0.598-1.174-1.355-0.823-2.349
		c0.176-0.495,0.306-1.047,0.619-1.446c1.662-2.126,1.793-4.679,2.064-7.186c0.276-2.551,0.438-5.115,0.714-7.667
		c0.083-0.77-0.072-1.401-0.762-1.674c-1.687-0.666-3.402-1.27-5.131-1.813c-0.595-0.188-0.829,0.259-0.898,0.855
		c-0.707,6.052-2.69,11.762-4.722,17.457c-0.033,0.092-0.127,0.161-0.192,0.239c-0.114,0-0.23,0.032-0.315-0.005
		c-1.64-0.722-2.14-4.436-0.672-5.454c1.056-0.733,1.437-1.715,1.429-2.881c-0.008-1.333-0.159-2.663-0.212-3.996
		c-0.051-1.255,0.213-2.32,1.117-3.37c0.788-0.914,1.176-2.219,1.574-3.406c0.442-1.322,0.696-2.708,0.987-3.882
		c1.009-0.354,1.995-0.59,2.87-1.041c0.655-0.339,0.972-0.917,0.092-1.532c-0.813-0.57-0.903-1.4-0.459-2.25
		c0.241-0.462,0.636-0.844,0.876-1.306c0.163-0.312,0.177-0.703,0.257-1.059c-0.334,0.109-0.758,0.125-0.988,0.343
		C24.296,39.309,24.109,40.889,25.443,42.761z M20.58,22.888c1.809,0.26,3.507,0.444,4.803,1.795
		c0.158,0.164,0.53,0.122,0.802,0.175c-0.009-0.287,0.099-0.698-0.048-0.837c-0.503-0.473-1.047-0.954-1.665-1.242
		c-2.017-0.938-4.199-1.052-6.379-1.043c-0.303,0.002-0.604,0.382-0.905,0.586c0.304,0.159,0.616,0.467,0.91,0.45
		c0.796-0.046,1.263,0.211,1.655,0.939c0.542,1.007,1.374,1.801,2.558,2.014c0.282,0.051,0.626-0.24,0.941-0.375
		c-0.224-0.211-0.412-0.535-0.676-0.616C21.646,24.446,20.999,23.9,20.58,22.888z M40.523,51.253
		c-0.157-0.229-0.314-0.461-0.471-0.69c-0.227,0.202-0.601,0.369-0.658,0.61c-0.801,3.397-2.028,6.625-3.657,9.711
		c-0.133,0.252,0.043,0.666,0.074,1.004c0.288-0.184,0.718-0.303,0.842-0.564c0.867-1.835,1.737-3.673,2.474-5.563
		C39.685,54.33,40.045,52.823,40.523,51.253z M35.592,30.333c0.095-0.036,0.189-0.071,0.285-0.107
		c-0.514-1.358-0.997-2.731-1.571-4.063c-0.104-0.24-0.586-0.316-0.893-0.467c0.005,0.34,0,0.681,0.024,1.02
		c0.006,0.095,0.1,0.183,0.149,0.276c1.206,2.254,1.507,4.448-0.365,6.543c-0.158,0.176-0.099,0.547-0.141,0.828
		c0.306-0.044,0.722,0.021,0.899-0.153C35.051,33.154,35.634,31.866,35.592,30.333z M61.913,23.799
		c-0.118,0.095-0.354,0.284-0.591,0.474c0.227,0.211,0.424,0.562,0.682,0.61c1.831,0.349,3.148,1.287,3.877,3.047
		c0.105,0.254,0.529,0.377,0.807,0.562c0.047-0.341,0.23-0.735,0.121-1.015C65.98,25.35,64.332,24.232,61.913,23.799z
		 M31.996,32.682c-0.255-0.91-0.394-1.556-0.632-2.163c-0.071-0.181-0.425-0.25-0.65-0.371c-0.095,0.258-0.337,0.577-0.261,0.766
		c0.668,1.643,0.167,3.07-0.677,4.478c-0.142,0.238-0.056,0.612-0.076,0.924c0.317-0.114,0.815-0.142,0.919-0.357
		C31.154,34.845,31.586,33.683,31.996,32.682z M63.818,29.198c-0.08-1.309-2.593-3.463-3.741-3.31
		c-0.188,0.025-0.461,0.253-0.485,0.418c-0.025,0.169,0.17,0.494,0.335,0.548c1.336,0.431,2.361,1.188,2.935,2.513
		c0.063,0.146,0.421,0.273,0.6,0.231C63.632,29.559,63.747,29.285,63.818,29.198z M43.767,44.612c-0.238-0.33-0.4-0.554-0.562-0.777
		c-0.216,0.175-0.528,0.305-0.633,0.531c-0.512,1.099-0.984,2.216-1.433,3.343c-0.122,0.306-0.112,0.664-0.161,0.999
		c0.343-0.129,0.864-0.159,0.997-0.401C42.621,47.123,43.164,45.883,43.767,44.612z M15.785,33.388
		c-0.013-0.117-0.025-0.234-0.039-0.351c-0.327-0.018-0.75-0.174-0.965-0.026c-0.95,0.647-1.865,1.353-2.734,2.105
		c-0.213,0.185-0.203,0.626-0.294,0.95c0.335-0.065,0.737-0.035,0.994-0.213c0.887-0.616,1.727-1.301,2.576-1.971
		C15.498,33.743,15.632,33.554,15.785,33.388z"/>
	<path fill-rule="evenodd" clip-rule="evenodd" fill="none" d="M21.091,67.269c1.587-5.75,3.143-11.384,4.765-17.253
		c1.125,0.435,2.486,0.934,3.818,1.503c0.215,0.092,0.436,0.507,0.416,0.753c-0.091,1.095-0.097,2.157-0.829,3.169
		c-1.369,1.894-1.635,4.224-2.091,6.456c-0.077,0.379-0.214,0.77-0.179,1.141c0.158,1.681-0.769,2.422-2.232,2.863
		C23.497,66.28,22.282,66.817,21.091,67.269z"/>
	<path fill-rule="evenodd" clip-rule="evenodd" fill="none" d="M56.419,51.567c0.207-1.653,0.378-3.111,0.583-4.564
		c0.03-0.22,0.166-0.494,0.341-0.61c0.838-0.555,1.706-1.063,2.53-1.568c0,1.49,0.311,3.04-0.088,4.378
		C59.396,50.507,57.979,51.147,56.419,51.567z"/>
	<path fill-rule="evenodd" clip-rule="evenodd" fill="none" d="M55.29,51.69c-1.053-0.38-2.166-0.269-2.165-1.67
		c0-2.22-0.019-2.224,2.774-2.839C55.695,48.687,55.499,50.142,55.29,51.69z"/>
	<path fill-rule="evenodd" clip-rule="evenodd" d="M20.58,22.888c0.419,1.012,1.066,1.558,1.997,1.846
		c0.264,0.082,0.452,0.405,0.676,0.616c-0.315,0.135-0.659,0.426-0.941,0.375c-1.184-0.213-2.016-1.007-2.558-2.014
		c-0.392-0.728-0.859-0.986-1.655-0.939c-0.294,0.017-0.606-0.291-0.91-0.45c0.302-0.205,0.603-0.584,0.905-0.586
		c2.18-0.009,4.362,0.105,6.379,1.043c0.618,0.288,1.162,0.769,1.665,1.242c0.147,0.139,0.039,0.55,0.048,0.837
		c-0.272-0.053-0.645-0.011-0.802-0.175C24.087,23.333,22.389,23.148,20.58,22.888z"/>
	<path fill-rule="evenodd" clip-rule="evenodd" d="M40.523,51.253c-0.478,1.57-0.838,3.077-1.396,4.507
		c-0.736,1.891-1.606,3.729-2.474,5.563c-0.124,0.262-0.554,0.381-0.842,0.564c-0.031-0.338-0.207-0.752-0.074-1.004
		c1.629-3.086,2.856-6.313,3.657-9.711c0.058-0.241,0.432-0.408,0.658-0.61C40.209,50.792,40.366,51.023,40.523,51.253z"/>
	<path fill-rule="evenodd" clip-rule="evenodd" d="M35.592,30.333c0.042,1.532-0.542,2.82-1.611,3.875
		c-0.178,0.175-0.593,0.109-0.899,0.153c0.042-0.28-0.017-0.651,0.141-0.828c1.872-2.095,1.57-4.289,0.365-6.543
		c-0.05-0.093-0.143-0.181-0.149-0.276c-0.023-0.339-0.019-0.68-0.024-1.02c0.307,0.151,0.789,0.228,0.893,0.467
		c0.574,1.333,1.057,2.705,1.571,4.063C35.782,30.262,35.687,30.298,35.592,30.333z"/>
	<path fill-rule="evenodd" clip-rule="evenodd" d="M61.913,23.799c2.419,0.433,4.067,1.551,4.896,3.678
		c0.109,0.28-0.074,0.673-0.121,1.015c-0.277-0.184-0.701-0.307-0.807-0.562c-0.729-1.76-2.046-2.698-3.877-3.047
		c-0.258-0.049-0.455-0.399-0.682-0.61C61.559,24.083,61.795,23.894,61.913,23.799z"/>
	<path fill-rule="evenodd" clip-rule="evenodd" d="M31.996,32.682c-0.41,1.001-0.842,2.163-1.376,3.277
		c-0.104,0.216-0.603,0.243-0.919,0.357c0.02-0.312-0.066-0.686,0.076-0.924c0.844-1.408,1.345-2.835,0.677-4.478
		c-0.077-0.188,0.166-0.507,0.261-0.766c0.225,0.12,0.579,0.189,0.65,0.371C31.602,31.126,31.741,31.772,31.996,32.682z"/>
	<path fill-rule="evenodd" clip-rule="evenodd" d="M63.818,29.198c-0.071,0.086-0.187,0.36-0.357,0.401
		c-0.179,0.042-0.536-0.085-0.6-0.231c-0.573-1.326-1.599-2.082-2.935-2.513c-0.165-0.054-0.36-0.378-0.335-0.548
		c0.024-0.165,0.298-0.393,0.485-0.418C61.226,25.735,63.738,27.89,63.818,29.198z"/>
	<path fill-rule="evenodd" clip-rule="evenodd" d="M43.767,44.612c-0.603,1.271-1.146,2.511-1.791,3.694
		c-0.133,0.242-0.654,0.272-0.997,0.401c0.049-0.335,0.039-0.693,0.161-0.999c0.448-1.127,0.921-2.244,1.433-3.343
		c0.104-0.227,0.417-0.356,0.633-0.531C43.366,44.059,43.528,44.282,43.767,44.612z"/>
	<path fill-rule="evenodd" clip-rule="evenodd" d="M15.785,33.388c-0.153,0.166-0.287,0.355-0.462,0.494
		c-0.849,0.67-1.688,1.355-2.576,1.971c-0.256,0.179-0.659,0.148-0.994,0.213c0.092-0.323,0.082-0.765,0.294-0.95
		c0.869-0.752,1.784-1.458,2.734-2.105c0.215-0.147,0.638,0.009,0.965,0.026C15.76,33.154,15.772,33.271,15.785,33.388z"/>
</g>
</svg>
