<?xml version="1.0" encoding="utf-8"?>
<!-- Generator: Adobe Illustrator 16.0.0, SVG Export Plug-In . SVG Version: 6.00 Build 0)  -->
<!DOCTYPE svg PUBLIC "-//W3C//DTD SVG 1.1//EN" "http://www.w3.org/Graphics/SVG/1.1/DTD/svg11.dtd">
<svg version="1.1" id="Layer_1" xmlns="http://www.w3.org/2000/svg" xmlns:xlink="http://www.w3.org/1999/xlink" x="0px" y="0px"
	 width="200px" height="200px" viewBox="0 0 200 200" enable-background="new 0 0 200 200" xml:space="preserve">
<g>
	<path fill="#FFFFFF" stroke="#231F20" stroke-width="3" d="M57.986,178.2c-0.169,6.44-5.206,11.533-11.262,11.379l0,0
		c-6.053-0.156-10.828-5.504-10.663-11.945l0.841-32.656c0.164-6.437,5.209-11.533,11.262-11.377l0,0
		c6.058,0.158,10.828,5.504,10.659,11.944L57.986,178.2z"/>
	<path fill="#FFFFFF" stroke="#231F20" stroke-width="3" d="M167.355,174.672c0.283,6.436-4.384,11.871-10.426,12.138l0,0
		c-6.042,0.266-11.171-4.732-11.456-11.17l-1.443-32.633c-0.284-6.437,4.382-11.871,10.424-12.139l0,0
		c6.044-0.267,11.174,4.732,11.458,11.171L167.355,174.672z"/>
	<path fill="#ED2D2B" stroke="#231F20" stroke-width="3" d="M15.947,144.809c0,0-2.801-30.798,0-34.065
		c2.798-3.267,27.061-6.065,29.397-7.932c2.333-1.866,1.869-9.333,0.934-12.133c-0.937-2.8-14.934-41.53-12.133-49.462
		c2.8-7.934,27.532-30.796,65.331-30.798c37.797,0,72.328,18.666,72.328,26.597c-0.002,7.933-13.531,53.667-13.998,55.999
		c-0.468,2.33-2.799,6.534-0.935,7.93c1.868,1.399,23.329,2.8,27.066,9.333c3.731,6.534-1.401,33.599-1.401,33.599
		s-43.396,0.933-52.263,4.666c-8.867,3.733-19.133,12.599-24.265,12.599c-5.134,0.002-10.733-1.864-14-3.729
		c-3.269-1.868-9.801-7.468-14-7.936C73.809,149.011,15.947,144.809,15.947,144.809z"/>
	<path fill="#FFFFFF" stroke="#231F20" stroke-width="3" d="M134.473,54.516c0,8.633-6.998,15.63-15.63,15.63H83.374
		c-8.633,0-15.632-6.999-15.632-15.634l0,0c0-8.634,7-15.629,15.631-15.631l35.47,0C127.473,38.883,134.475,45.879,134.473,54.516
		L134.473,54.516z"/>
	<circle fill="#FFFFFF" stroke="#231F20" stroke-width="3" cx="102.508" cy="114.71" r="29.165"/>
	<circle fill="#FFFFFF" stroke="#231F20" stroke-width="3" cx="102.508" cy="114.709" r="8.166"/>
</g>
</svg>
