<?xml version="1.0" encoding="utf-8"?>
<!-- Generator: Adobe Illustrator 16.0.0, SVG Export Plug-In . SVG Version: 6.00 Build 0)  -->
<!DOCTYPE svg PUBLIC "-//W3C//DTD SVG 1.1//EN" "http://www.w3.org/Graphics/SVG/1.1/DTD/svg11.dtd">
<svg version="1.1" id="Layer_1" xmlns="http://www.w3.org/2000/svg" xmlns:xlink="http://www.w3.org/1999/xlink" x="0px" y="0px"
	 width="450px" height="450px" viewBox="175 75 450 450" enable-background="new 175 75 450 450" xml:space="preserve">
<g>
	<path d="M341.334,363.037c-39.701-6.24-67.896-19.689-79.147-25.795l0.941,19.229c8.933,6.845,64.632,44.457,179.87,19.685
		c34.92-8.069,90.423-27.931,90.423-46.849l0.254-8.399c-56.299,35.155-109.243,45.303-151.56,45.303
		C367.072,366.21,353.368,364.928,341.334,363.037z"/>
	<path d="M615.688,330.997c-0.402-5.616-3.926-10.488-10.482-14.468c-17.741-10.809-47.626-20.664-62.305-23.597l-0.066,2.117
		l-0.067,2.136l-0.975,32.242c0,31.603-87.048,52.603-96.97,54.893c-29.05,6.244-54.408,8.697-76.291,8.697
		c-76.363,0-110.501-29.736-112.301-31.358l-1.292-1.161l-4.099-83.967l-0.115-2.285l-0.101-2.199
		c-19.997,8.871-71.429,36.816-65.294,87.451c5.933,48.927,66.283,83.098,146.75,83.103c0.009,0,0.009,0,0.014,0
		c19.488,0,39.48-2.006,59.424-5.962c86.16-17.073,149.059-51.11,190.685-73.632c8.626-4.67,16.08-8.702,22.862-12.135l0.394-0.249
		C605.9,350.254,616.437,341.428,615.688,330.997z"/>
	<path d="M258.179,169.813c31.685,8.208,164.664,37.67,280.325-11.218c0.706-0.302,1.421-0.61,2.131-0.921
		c0.687-0.293,1.368-0.586,2.055-0.883c-5.602-5.765-26.073-19.387-94.584-19.387c-5.179,0-10.604,0.082-16.118,0.235
		c-70.382,1.973-158.313,8.784-177.571,30.019c-0.283,0.312-0.485,0.638-0.734,0.955c0.624,0.173,1.344,0.37,2.184,0.595
		C256.562,169.391,257.334,169.592,258.179,169.813z"/>
	<path d="M254.387,177.469l4.354,89.213l0.207,4.224l0.101,2.193l2.65,54.235c3.974,2.381,34.901,20.262,81.307,27.494
		c45.331,7.071,115.147,5.084,190.973-44.049l0.446-14.554l0.662-21.945l3.227-106.551c-49.729,20.313-102.298,26.731-148.8,26.731
		c-64.752,0-117.701-12.398-134.899-16.93C254.536,177.507,254.464,177.488,254.387,177.469z"/>
</g>
</svg>
