<?xml version="1.0" encoding="utf-8"?>
<!-- Generator: Adobe Illustrator 16.0.0, SVG Export Plug-In . SVG Version: 6.00 Build 0)  -->
<!DOCTYPE svg PUBLIC "-//W3C//DTD SVG 1.1//EN" "http://www.w3.org/Graphics/SVG/1.1/DTD/svg11.dtd">
<svg version="1.1" id="Layer_1" xmlns="http://www.w3.org/2000/svg" xmlns:xlink="http://www.w3.org/1999/xlink" x="0px" y="0px"
	 width="50px" height="50px" viewBox="200 200 50 50" enable-background="new 200 200 50 50" xml:space="preserve">
<g>
	<path d="M218.526,233.023c-4.361-0.686-7.458-2.162-8.693-2.832l0.104,2.111c0.981,0.752,7.099,4.883,19.756,2.162
		c3.835-0.887,9.932-3.068,9.932-5.146l0.028-0.923c-6.184,3.861-11.999,4.977-16.647,4.977
		C221.353,233.373,219.848,233.231,218.526,233.023z"/>
	<path d="M248.66,229.505c-0.044-0.616-0.432-1.151-1.151-1.589c-1.949-1.188-5.231-2.27-6.843-2.592l-0.008,0.233l-0.008,0.234
		l-0.106,3.541c0,3.471-9.561,5.777-10.651,6.029c-3.19,0.686-5.976,0.955-8.379,0.955c-8.388,0-12.137-3.266-12.335-3.443
		l-0.142-0.128l-0.45-9.223l-0.013-0.251l-0.011-0.242c-2.196,0.975-7.846,4.044-7.172,9.605c0.652,5.374,7.28,9.128,16.119,9.128
		c0.001,0,0.001,0,0.001,0c2.141,0,4.336-0.221,6.527-0.654c9.464-1.876,16.372-5.614,20.944-8.088
		c0.947-0.513,1.766-0.956,2.511-1.333l0.044-0.027C247.585,231.62,248.742,230.65,248.66,229.505z"/>
	<path d="M209.393,211.801c3.479,0.902,18.085,4.138,30.79-1.232c0.077-0.033,0.156-0.067,0.234-0.101
		c0.075-0.032,0.149-0.064,0.226-0.097c-0.616-0.633-2.864-2.129-10.389-2.129c-0.569,0-1.165,0.009-1.771,0.026
		c-7.73,0.217-17.389,0.965-19.504,3.297c-0.031,0.034-0.053,0.07-0.081,0.104c0.068,0.019,0.147,0.041,0.24,0.066
		C209.215,211.755,209.3,211.777,209.393,211.801z"/>
	<path d="M208.976,212.642l0.479,9.799l0.023,0.464l0.011,0.241l0.291,5.957c0.437,0.261,3.833,2.226,8.93,3.02
		c4.979,0.776,12.648,0.559,20.976-4.838l0.049-1.599l0.073-2.411l0.354-11.703c-5.462,2.231-11.235,2.936-16.343,2.936
		c-7.112,0-12.928-1.362-14.816-1.86C208.993,212.646,208.985,212.644,208.976,212.642z"/>
</g>
</svg>
