<?xml version="1.0" encoding="utf-8"?>
<!-- Generator: Adobe Illustrator 16.0.0, SVG Export Plug-In . SVG Version: 6.00 Build 0)  -->
<!DOCTYPE svg PUBLIC "-//W3C//DTD SVG 1.1//EN" "http://www.w3.org/Graphics/SVG/1.1/DTD/svg11.dtd">
<svg version="1.1" id="Layer_1" xmlns="http://www.w3.org/2000/svg" xmlns:xlink="http://www.w3.org/1999/xlink" x="0px" y="0px"
	 width="450px" height="450px" viewBox="175 75 450 450" enable-background="new 175 75 450 450" xml:space="preserve">
<g>
	<path d="M301.077,387.123l-15.47-55.387l-0.346-1.449l-0.451-1.839c-26.333-76.1-28.613-106.378-26.53-118.402
		c-0.456-1.099-0.484-2.366,0.053-3.533c0.552-1.224,0.921-2.554,1.214-3.912c0.172-0.802,0.307-1.613,0.408-2.448
		c1.186-10.863-4.075-24.451-8.107-32.472c-53.179,15.072-3.807,157.838,2.016,174.11l18.327,54.96
		C277.994,397.251,296.291,394.976,301.077,387.123z"/>
	<path d="M268.067,205.146c-0.12,0.519-0.235,1.037-0.379,1.55c-0.149,0.495-0.355,0.96-0.523,1.445
		c3.523,2.247,8.126,3,10.329,3.245c-0.077-0.456-0.11-0.927-0.038-1.411c0.005-0.029,0.005-0.053,0.01-0.086
		c0.077-0.5,0.129-0.979,0.192-1.469c4.958-36.652-7.392-51.931-12.02-56.241c-3.614,2.673-6.101,5.453-7.79,7.881
		C260.81,165.344,272.277,187.458,268.067,205.146z"/>
	<path d="M286.811,206.965c-0.062,0.504-0.134,1.032-0.202,1.55c-0.072,0.509-0.129,1.027-0.206,1.55l213.422-41.462
		c1.638-0.475,3.092-1.281,4.393-2.361c0.667-0.552,1.281-1.19,1.867-1.872c8.112-9.451,9.048-30.562,9.058-39.331
		c-4.286-6.701-11.899-9.807-11.899-9.807S329.944,137.441,294.4,141.891c-8.707,1.09-15.538,3.159-20.899,5.654
		C280.129,154.798,290.867,172.266,286.811,206.965z"/>
	<path d="M519.529,299.595l-4.267,14.242l-0.989,0.85c-4.771,4.108-10.037,5.539-15.043,5.539c-11.16,0-21.077-7.104-21.677-7.541
		l-2.04-1.493l1.915-20.006l0.135-1.493l0.144-1.498l-45.955-11.486l-0.437-0.11L293.32,325.842l0.355,1.449l0.346,1.449
		l14.328,58.916l-0.6,1.368c-5.117,11.702-19.176,13.795-28.599,13.795c-4.944,0-8.616-0.576-9.034-0.644l-2.5-0.422l-21.13-54.389
		C164.07,391.679,187.758,454.4,187.758,454.4c164.41,39.993,429.518-100.714,429.518-100.714v-25.181L519.529,299.595z"/>
	<path d="M509.767,173.173c-0.566,0.475-1.152,0.921-1.771,1.334l-20.649,106.363l-1.752,11.707l-0.12,1.483l-1.483,13.33
		c4.383,2.553,17.256,9.562,25.057,3.945l4.478-22.632l17.856-111.274c9.226-28.689-0.725-38.222-7.729-41.371
		c-0.921,11.65-3.782,26.88-12.043,35.405C511.02,172.074,510.404,172.64,509.767,173.173z"/>
</g>
</svg>
