<?xml version="1.0" encoding="utf-8"?>
<!-- Generator: Adobe Illustrator 16.0.0, SVG Export Plug-In . SVG Version: 6.00 Build 0)  -->
<!DOCTYPE svg PUBLIC "-//W3C//DTD SVG 1.1//EN" "http://www.w3.org/Graphics/SVG/1.1/DTD/svg11.dtd">
<svg version="1.1" id="Board" xmlns="http://www.w3.org/2000/svg" xmlns:xlink="http://www.w3.org/1999/xlink" x="0px" y="0px"
	 width="600px" height="600px" viewBox="420 420 600 600" enable-background="new 420 420 600 600" xml:space="preserve">
<polygon fill="none" stroke="#000000" stroke-miterlimit="10" points="986.03,979.39 902.369,979.39 854.854,979.39 809.87,979.39 
	763.523,979.39 719.708,979.39 671.998,979.39 625.65,979.39 579.693,979.39 535.294,979.39 456.202,979.39 456.202,899.289 
	456.202,853.137 456.202,807.763 456.202,763.363 456.202,716.433 456.202,668.917 456.202,624.907 456.202,578.949 
	456.202,532.408 456.202,449.562 536.267,449.562 581.641,449.562 628.377,449.562 673.75,449.562 718.149,449.562 764.302,449.562 
	810.259,449.562 857.774,449.562 900.811,449.562 986.03,449.562 986.03,534.939 986.03,580.118 986.03,625.491 986.03,671.059 
	986.03,715.069 986.03,762.779 986.03,809.321 986.03,853.721 986.03,900.651 "/>
</svg>
