<?xml version="1.0" encoding="utf-8"?>
<!-- Generator: Adobe Illustrator 16.0.0, SVG Export Plug-In . SVG Version: 6.00 Build 0)  -->
<!DOCTYPE svg PUBLIC "-//W3C//DTD SVG 1.1//EN" "http://www.w3.org/Graphics/SVG/1.1/DTD/svg11.dtd">
<svg version="1.1" id="Layer_1" xmlns="http://www.w3.org/2000/svg" xmlns:xlink="http://www.w3.org/1999/xlink" x="0px" y="0px"
	 width="80px" height="80px" viewBox="0 0 80 80" enable-background="new 0 0 80 80" xml:space="preserve">
<path fill-rule="evenodd" clip-rule="evenodd" d="M16.194,33.578c-0.895-3.032-1.736-5.873-2.566-8.716
	c-1.073-3.682-2.157-7.36-3.173-11.06c-0.128-0.463,0.048-1.077,0.25-1.552c1.168-2.756,3.149-3.817,6.222-3.462
	c2.604,0.304,5.275,0.025,7.914-0.033c0.688-0.015,1.124,0.196,1.429,0.832c0.393,0.812,0.773,1.664,1.333,2.352
	c1.066,1.3,0.485,2.568,0.112,3.854c-1.585,5.478-3.19,10.951-4.783,16.429c-0.255,0.876-0.101,1.04,0.965,1.04
	c10.071,0,20.142-0.002,30.212-0.004c0.369,0.001,0.739,0.037,1.102-0.01c0.333-0.044,0.654-0.178,0.98-0.271
	c-0.098-0.337-0.118-0.73-0.309-0.999c-1.606-2.255-2.914-4.66-3.463-7.388c-0.735-3.683-0.41-7.201,2.212-10.149
	c1.176-1.319,2.695-2.018,4.527-2.008c5.789,0.026,11.579,0.028,17.367-0.01c0.993-0.004,1.179,0.316,1.325,1.296
	c0.366,2.447-0.665,4.267-2.014,6.134c-3.096,4.287-5.597,8.908-6.655,14.14c-0.96,4.768-0.991,9.523,1.456,13.948
	c0.74,1.332,1.692,2.565,2.664,3.751c0.646,0.788,0.54,1.625,0.449,2.466c-0.021,0.197-0.524,0.466-0.821,0.483
	c-1.334,0.08-2.67,0.089-4.009,0.108c-1.132,0.014-1.271,0.241-0.714,1.217c1.907,3.332,2.031,6.77,0.294,10.159
	c-1.495,2.921-4.039,4.614-7.314,4.713c-3.138,0.095-5.682-1.328-7.368-4.059c-2.214-3.59-2.197-7.24-0.195-10.918
	c0.095-0.173,0.189-0.351,0.269-0.533c0.022-0.053-0.007-0.128-0.021-0.288c-6.231,0-12.464,0-18.817,0
	c0.733,1.328,1.453,2.444,1.992,3.646c1.465,3.26,0.429,8.075-2.224,10.458c-2.34,2.098-5.098,2.658-8.021,1.643
	c-2.834-0.987-4.641-3.087-5.358-6.034c-0.817-3.364-0.287-6.433,2.073-9.077c0.097-0.11,0.119-0.288,0.221-0.544
	c-0.925,0-1.755-0.066-2.566,0.033c-0.285,0.037-0.658,0.439-0.757,0.749c-0.819,2.574-1.587,5.166-2.364,7.754
	c-0.653,2.172-1.27,4.351-1.98,6.501c-0.111,0.338-0.632,0.766-0.968,0.771c-4.149,0.053-8.299,0.034-12.448,0.028
	c-0.121,0-0.243-0.063-0.579-0.156c0.583-0.826,1.091-1.575,1.629-2.302c3.004-4.057,6.02-8.106,9.018-12.172
	c0.204-0.277,0.294-0.641,0.439-0.961c-0.335-0.085-0.675-0.15-1-0.265c-0.455-0.161-0.982-0.261-1.332-0.558
	c-3.683-3.127-4.893-7.172-4.365-11.871c0.404-3.599,2.314-6.34,4.858-8.723c0.273-0.257,0.781-0.349,1.189-0.366
	C13.671,33.546,14.837,33.578,16.194,33.578z"/>
</svg>
