<?xml version="1.0" encoding="utf-8"?>
<!-- Generator: Adobe Illustrator 16.0.0, SVG Export Plug-In . SVG Version: 6.00 Build 0)  -->
<!DOCTYPE svg PUBLIC "-//W3C//DTD SVG 1.1//EN" "http://www.w3.org/Graphics/SVG/1.1/DTD/svg11.dtd">
<svg version="1.1" id="Layer_1" xmlns="http://www.w3.org/2000/svg" xmlns:xlink="http://www.w3.org/1999/xlink" x="0px" y="0px"
	 width="80px" height="80px" viewBox="0 0 80 80" enable-background="new 0 0 80 80" xml:space="preserve">
<g>
	<path fill-rule="evenodd" clip-rule="evenodd" d="M66.744,74.771c-18.04-0.029-35.683-0.067-53.431-0.092
		c-0.296-1.832,0.571-3.249,1.93-4.579c0.604-0.598,1.159-1.494,1.259-2.312c1.303-10.978,2.541-21.96,3.762-32.948
		c0.769-6.893,1.486-13.79,2.228-20.684c0.21-1.97,1.065-3.74,2.708-4.713c2.245-1.332,4.627-2.73,7.128-3.268
		c6.386-1.374,12.881-1.159,19.281,0.057c1.938,0.364,3.82,1.335,5.563,2.326c2.534,1.436,3.664,3.656,3.829,6.726
		c0.787,14.709,1.794,29.408,2.719,44.113c0.123,1.942,0.23,3.889,0.365,5.832c0.151,2.139,0,4.265,1.815,6.053
		C66.652,72.023,66.508,73.67,66.744,74.771z M63.304,71.432c-0.302-2.222-0.629-4.186-0.824-6.164
		c-0.53-5.191-0.97-10.397-1.535-15.588c-0.081-0.744-0.519-1.569-1.046-2.113c-1.258-1.31-1.353-2.196-0.144-3.581
		c0.331-0.379,0.861-0.902,0.792-1.258c-0.371-1.887,0.438-4.049-1.478-5.636c-0.467-0.388-0.577-1.959-0.184-2.5
		c1.74-2.396,1.215-4.543-0.104-6.849c-0.362-0.631-0.271-1.603-0.185-2.395c0.127-1.109,0.535-2.188,0.664-3.299
		c0.275-2.354-1.796-4.417-0.896-6.903c0.107-0.303-0.504-0.865-0.806-1.343c-0.599,0.669-1.041,1.288-1.605,1.772
		c-1.495,1.284-1.608,3.391-0.196,4.698c1.416,1.317,1.432,2.034,0.086,3.489c-1.341,1.449-1.334,4.409,0.05,5.73
		c1.188,1.138,1.178,2.264,0.121,3.47c-1.369,1.565-1.395,4.548,0.039,6.046c1.078,1.124,1.072,2.117,0.145,3.289
		c-1.217,1.525-1.284,5.181-0.009,6.661c1.007,1.174,0.895,2.145,0.125,3.353c-0.728,1.138-1.609,2.361-1.765,3.632
		c-0.264,2.062-0.018,4.201,0.085,6.302c0.015,0.408,0.255,0.976,0.575,1.162c1.295,0.745,0.961,1.72,0.645,2.969
		c-5.126-0.043-10.163-0.085-15.155-0.125c-0.363-1.976-0.342-1.958,0.758-2.844c0.34-0.271,0.767-0.679,0.792-1.046
		c0.138-2.176,0.521-4.427,0.108-6.515c-0.275-1.381-1.674-2.585-2.697-3.761c-1.094-1.267-1.119-2.199,0.151-3.357
		c1.319-1.214,1.556-5.02,0.398-6.315c-1.513-1.682-1.487-2.107,0.222-3.782c1.105-1.086,1.175-4.573,0.12-5.73
		c-1.436-1.572-1.424-2.224,0.077-3.664c1.216-1.167,1.314-4.21,0.177-5.446c-1.597-1.742-1.581-2.036,0.236-3.708
		c0.972-0.898,1.073-3.454,0.171-4.402c-1.841-1.937-1.813-1.932,0.123-3.744c0.377-0.348,0.638-1.059,0.582-1.557
		c-0.036-0.304-0.755-0.665-1.217-0.763c-1.643-0.348-3.306-0.65-4.975-0.863c-0.721-0.085-1.474,0.083-2.147,0.14
		c0.061,2.249,0.115,4.233,0.169,6.25c1.38,0.33,2.886,0.426,2.848,2.251c-0.047,2.086-1.814,1.68-3.221,1.961
		c-0.072,1.584-0.139,3.106-0.214,4.705c1.528,0.379,3.358,0.289,3.254,2.398c-0.107,2.18-1.989,1.634-3.44,1.795
		c-0.067,1.836-0.131,3.508-0.194,5.229c1.755,0.104,3.337,0.096,3.318,2.099c-0.014,2.347-2.016,1.822-3.514,2.037
		c-0.173,2.128-0.335,4.11-0.452,5.551c1.413,0.58,2.484,0.845,3.306,1.452c0.314,0.227,0.288,1.658-0.002,1.823
		c-0.996,0.58-2.176,0.85-3.623,1.347c-0.412,5.673-0.863,11.861-1.321,18.129c-1.961,0.058-3.712,0.104-5.849,0.162
		c0.242-3.185,0.505-6.184,0.686-9.188c0.11-1.824,0.613-3.64-0.442-5.461c-0.319-0.55,0.233-1.692,0.546-2.499
		c0.9-2.329,1.617-4.673,0.221-7.011c-0.682-1.143-0.563-2.011,0.242-2.949c1.571-1.839,1.768-4.669,0.429-6.73
		c-0.704-1.086-0.6-1.995,0.263-2.947c1.647-1.819,1.736-4.264,0.248-6.182c-0.802-1.032-0.946-2.126,0.177-2.829
		c1.127-0.703,1.067-1.674,1.355-2.725c0.615-2.247-1.632-2.68-2.416-4.204c-0.54,0.955-0.725,1.909-0.942,2.862
		c-0.184,0.775-0.261,1.609-0.623,2.297c-0.997,1.882-1.388,3.904-0.482,5.769c0.703,1.438,0.755,2.345-0.398,3.487
		c-1.142,1.138-1.4,4.638-0.452,5.857c1.092,1.411,0.9,2.457-0.406,3.599c-1.482,1.295-1.714,4.985-0.54,6.532
		c1.076,1.412,0.909,2.349-0.415,3.629c-0.49,0.475-0.902,1.183-1.042,1.846c-0.256,1.216-0.235,2.48-0.419,3.711
		c-0.921,6.099-0.932,12.347-3.103,18.565c2.455-0.459,5.184,1.008,6.963-1.9c0.212-0.348,0.952-0.479,1.463-0.513
		c1.392-0.102,2.791-0.098,4.291-0.141c0.073,0.667,0.138,1.235,0.208,1.873c2.535,0.085,4.944,0.121,7.348,0.256
		c1.569,0.091,2.955,0.014,3.111-2.106c5.33,0.055,10.461,0.11,15.59,0.162c0.524,0.974,1.16,1.968,1.937,2.104
		C59.774,71.538,61.578,71.396,63.304,71.432z M47.455,62.191c0.075,0.11,0.469,0.675,0.863,1.236
		c0.419-0.611,1.106-1.188,1.196-1.845c0.223-1.682,0.275-3.403,0.192-5.101c-0.031-0.602-0.647-1.182-0.999-1.77
		c-0.383,0.578-1.04,1.126-1.104,1.736C47.425,58.136,47.493,59.854,47.455,62.191z M29.452,56.918
		c-0.019-0.002-0.04-0.004-0.06-0.004c0.008-0.232,0.096-0.491,0.016-0.693c-0.248-0.634-0.556-1.243-0.844-1.861
		c-0.39,0.572-1.038,1.108-1.119,1.726c-0.252,1.911-0.348,3.852-0.365,5.784c-0.002,0.465,0.558,0.936,0.859,1.402
		c0.358-0.421,0.962-0.803,1.034-1.266C29.229,60.324,29.304,58.617,29.452,56.918z M40.661,6.763c1.918,1.68,2.347,1.652,3.763-0.1
		C42.963,6.702,41.812,6.733,40.661,6.763z"/>
	<path fill-rule="evenodd" clip-rule="evenodd" fill="none" d="M63.304,71.432c-1.726-0.035-3.529,0.106-5.263-0.184
		c-0.776-0.136-1.412-1.13-1.937-2.104c-5.129-0.052-10.26-0.107-15.59-0.162c-0.156,2.12-1.542,2.197-3.111,2.106
		c-2.403-0.135-4.813-0.171-7.348-0.256c-0.07-0.638-0.135-1.206-0.208-1.873c-1.5,0.043-2.899,0.039-4.291,0.141
		c-0.511,0.034-1.251,0.165-1.463,0.513c-1.78,2.908-4.509,1.441-6.963,1.9c2.171-6.219,2.182-12.467,3.103-18.565
		c0.184-1.23,0.163-2.495,0.419-3.711c0.14-0.663,0.552-1.371,1.042-1.846c1.324-1.28,1.491-2.217,0.415-3.629
		c-1.174-1.547-0.942-5.237,0.54-6.532c1.307-1.142,1.499-2.188,0.406-3.599c-0.948-1.219-0.69-4.719,0.452-5.857
		c1.153-1.142,1.101-2.049,0.398-3.487c-0.906-1.865-0.515-3.887,0.482-5.769c0.362-0.688,0.439-1.522,0.623-2.297
		c0.217-0.953,0.402-1.907,0.942-2.862c0.784,1.523,3.031,1.957,2.416,4.204c-0.288,1.051-0.228,2.022-1.355,2.725
		c-1.124,0.702-0.979,1.797-0.177,2.829c1.488,1.917,1.399,4.362-0.248,6.182c-0.862,0.953-0.967,1.861-0.263,2.947
		c1.338,2.062,1.142,4.892-0.429,6.73c-0.805,0.938-0.923,1.806-0.242,2.949c1.396,2.338,0.679,4.682-0.221,7.011
		c-0.313,0.807-0.865,1.949-0.546,2.499c1.055,1.821,0.552,3.637,0.442,5.461c-0.181,3.004-0.444,6.003-0.686,9.188
		c2.137-0.059,3.888-0.104,5.849-0.162c0.458-6.268,0.909-12.456,1.321-18.129c1.447-0.497,2.626-0.767,3.623-1.347
		c0.29-0.165,0.317-1.597,0.002-1.823c-0.821-0.607-1.893-0.872-3.306-1.452c0.117-1.441,0.279-3.423,0.452-5.551
		c1.499-0.215,3.5,0.311,3.514-2.037c0.019-2.003-1.563-1.995-3.318-2.099c0.062-1.722,0.127-3.393,0.194-5.229
		c1.451-0.161,3.333,0.385,3.44-1.795c0.104-2.109-1.727-2.02-3.254-2.398c0.075-1.599,0.142-3.121,0.214-4.705
		c1.407-0.281,3.174,0.125,3.221-1.961c0.039-1.826-1.468-1.922-2.848-2.251c-0.054-2.017-0.108-4.001-0.169-6.25
		c0.673-0.056,1.426-0.225,2.147-0.14c1.669,0.212,3.333,0.515,4.975,0.863c0.462,0.098,1.181,0.459,1.217,0.763
		c0.056,0.499-0.205,1.209-0.582,1.557c-1.936,1.812-1.964,1.807-0.123,3.744c0.902,0.948,0.801,3.503-0.171,4.402
		c-1.817,1.672-1.833,1.966-0.236,3.708c1.137,1.236,1.039,4.279-0.177,5.446c-1.501,1.44-1.513,2.092-0.077,3.664
		c1.055,1.157,0.985,4.644-0.12,5.73c-1.708,1.675-1.735,2.1-0.222,3.782c1.158,1.296,0.92,5.102-0.398,6.315
		c-1.27,1.158-1.245,2.091-0.151,3.357c1.023,1.176,2.422,2.38,2.697,3.761c0.412,2.088,0.029,4.339-0.108,6.515
		c-0.025,0.367-0.452,0.775-0.792,1.046c-1.1,0.886-1.122,0.868-0.758,2.844c4.992,0.04,10.029,0.082,15.155,0.125
		c0.316-1.249,0.65-2.224-0.645-2.969c-0.32-0.187-0.561-0.754-0.575-1.162c-0.103-2.101-0.349-4.24-0.085-6.302
		c0.155-1.271,1.037-2.494,1.765-3.632c0.77-1.208,0.882-2.179-0.125-3.353c-1.275-1.48-1.208-5.136,0.009-6.661
		c0.928-1.172,0.934-2.165-0.145-3.289c-1.434-1.498-1.408-4.481-0.039-6.046c1.057-1.207,1.067-2.332-0.121-3.47
		c-1.384-1.321-1.391-4.281-0.05-5.73c1.346-1.455,1.33-2.172-0.086-3.489c-1.412-1.307-1.299-3.414,0.196-4.698
		c0.564-0.484,1.007-1.103,1.605-1.772c0.302,0.478,0.913,1.04,0.806,1.343c-0.899,2.486,1.172,4.549,0.896,6.903
		c-0.129,1.111-0.537,2.19-0.664,3.299c-0.086,0.792-0.178,1.763,0.185,2.395c1.319,2.306,1.845,4.453,0.104,6.849
		c-0.394,0.54-0.283,2.111,0.184,2.5c1.915,1.587,1.106,3.75,1.478,5.636c0.069,0.355-0.461,0.879-0.792,1.258
		c-1.209,1.385-1.114,2.271,0.144,3.581c0.527,0.544,0.965,1.369,1.046,2.113c0.565,5.19,1.005,10.396,1.535,15.588
		C62.675,67.246,63.002,69.21,63.304,71.432z M34.854,63.659c0.44-0.976,0.871-1.518,0.911-2.084
		c0.125-1.863,0.159-3.733,0.112-5.601c-0.008-0.44-0.464-0.865-0.716-1.297c-0.356,0.421-0.992,0.819-1.023,1.261
		c-0.157,2.014-0.173,4.044-0.153,6.067C33.987,62.388,34.369,62.767,34.854,63.659z M60.03,54.836
		c-0.27,0.086-0.531,0.173-0.798,0.257c0.193,2.326,0.337,4.658,0.622,6.974c0.057,0.454,0.657,0.851,0.999,1.271
		c0.271-0.497,0.796-1.003,0.765-1.487c-0.11-1.933-0.34-3.867-0.642-5.783C60.905,55.617,60.356,55.243,60.03,54.836z
		 M22.39,54.788c-0.95,2.81-1.663,5.623-1.017,9.079C22.999,61.581,23.591,56.219,22.39,54.788z"/>
	<path fill-rule="evenodd" clip-rule="evenodd" fill="none" d="M47.455,62.191c0.038-2.338-0.03-4.056,0.148-5.742
		c0.064-0.61,0.722-1.158,1.104-1.736c0.352,0.588,0.968,1.168,0.999,1.77c0.083,1.697,0.03,3.419-0.192,5.101
		c-0.09,0.657-0.777,1.233-1.196,1.845C47.924,62.866,47.53,62.302,47.455,62.191z"/>
	<path fill-rule="evenodd" clip-rule="evenodd" fill="none" d="M29.452,56.918c-0.148,1.699-0.223,3.406-0.479,5.088
		c-0.071,0.463-0.675,0.845-1.034,1.266c-0.301-0.467-0.861-0.938-0.859-1.402c0.017-1.933,0.112-3.873,0.365-5.784
		c0.081-0.617,0.729-1.153,1.119-1.726c0.288,0.618,0.596,1.228,0.844,1.861c0.08,0.202-0.008,0.461-0.016,0.693
		C29.412,56.914,29.433,56.916,29.452,56.918z"/>
	<path fill-rule="evenodd" clip-rule="evenodd" fill="none" d="M40.661,6.763c1.15-0.03,2.302-0.061,3.763-0.1
		C43.008,8.415,42.579,8.443,40.661,6.763z"/>
	<path fill-rule="evenodd" clip-rule="evenodd" d="M34.854,63.659c-0.486-0.893-0.867-1.271-0.87-1.653
		c-0.021-2.023-0.004-4.054,0.153-6.067c0.031-0.441,0.667-0.84,1.023-1.261c0.252,0.432,0.708,0.856,0.716,1.297
		c0.047,1.867,0.013,3.737-0.112,5.601C35.726,62.142,35.294,62.684,34.854,63.659z"/>
	<path fill-rule="evenodd" clip-rule="evenodd" d="M60.03,54.836c0.326,0.407,0.875,0.781,0.946,1.23
		c0.302,1.916,0.531,3.851,0.642,5.783c0.031,0.484-0.493,0.99-0.765,1.487c-0.342-0.42-0.942-0.816-0.999-1.271
		c-0.285-2.315-0.429-4.647-0.622-6.974C59.499,55.009,59.761,54.922,60.03,54.836z"/>
	<path fill-rule="evenodd" clip-rule="evenodd" d="M22.39,54.788c1.201,1.431,0.609,6.793-1.017,9.079
		C20.727,60.411,21.44,57.598,22.39,54.788z"/>
</g>
</svg>
