<?xml version="1.0" encoding="utf-8"?>
<!-- Generator: Adobe Illustrator 16.0.0, SVG Export Plug-In . SVG Version: 6.00 Build 0)  -->
<!DOCTYPE svg PUBLIC "-//W3C//DTD SVG 1.1//EN" "http://www.w3.org/Graphics/SVG/1.1/DTD/svg11.dtd">
<svg version="1.1" id="Layer_1" xmlns="http://www.w3.org/2000/svg" xmlns:xlink="http://www.w3.org/1999/xlink" x="0px" y="0px"
	 width="80px" height="80px" viewBox="0 0 80 80" enable-background="new 0 0 80 80" xml:space="preserve">
<g>
	<path fill-rule="evenodd" clip-rule="evenodd" d="M15.705,41.767c0.146-1.139,0.407-2.183,0.39-3.222
		c-0.077-4.474-0.237-8.946-0.363-13.418c-0.014-0.482-0.002-0.965-0.002-1.571c1.856-0.337,3.565-0.708,5.292-0.95
		c4.54-0.632,9.076-1.307,13.634-1.777c3.664-0.377,6.909,0.855,9.771,3.166c0.389,0.313,1.011,0.465,1.527,0.471
		c2.942,0.03,5.9-0.204,8.825,0.022c5.108,0.396,9.227,2.759,12.301,7.06c2.529-0.636,5.075-1.27,7.619-1.92
		c1.008-0.258,1.824,0.13,2.152,1.063c0.398,1.14-0.009,2.144-1.055,2.51c-2.954,1.036-5.897,2.108-8.879,3.059
		c-1.182,0.377-1.927,0.995-2.471,2.121c-1.193,2.468-2.532,4.868-3.965,7.587c-2.45-1.655-4.795-3.238-7.24-4.889
		c-2.703,0.936-5.475,1.891-8.241,2.858c-4.47,1.56-8.889,3.287-13.424,4.627c-2.34,0.691-4.879,0.732-7.335,1.002
		c-1.552,0.17-3.118,0.218-4.727,0.323c-0.234,0.921-0.406,1.815-0.688,2.674c-1.025,3.113-2.871,5.509-6.163,6.396
		c-4.792,1.29-9.193-2.023-9.629-7.161c-0.557-6.546,5.396-11.684,11.822-10.205C15.041,41.635,15.227,41.669,15.705,41.767z
		 M75.719,30.6c-3.188,0.787-6.167,1.523-9.046,2.234c-0.984-1.145-1.789-2.274-2.782-3.203c-3.017-2.822-6.703-4.019-10.773-4.136
		c-6.173-0.177-12.29,0.499-18.4,1.263c-1.65,0.207-3.294,0.458-4.987,0.695c0.206,6.105,0.406,12.049,0.607,18.021
		c-3.284,1.019-6.436,1.997-9.589,2.975c2.639,0.02,5.23-0.134,7.815-0.343c0.752-0.06,1.521-0.192,2.231-0.439
		c13.052-4.537,26.094-9.096,39.138-13.652c1.941-0.678,3.879-1.363,5.885-2.068C75.788,31.545,75.765,31.226,75.719,30.6z
		 M16.922,24.922c0.124,4.923,0.243,9.644,0.364,14.455c3.929,1.591,7.819,3.167,11.857,4.801c-0.2-5.732-0.392-11.219-0.585-16.749
		C24.679,26.593,20.923,25.784,16.922,24.922z M17.791,46.358c-1.772-1.824-3.662-2.759-6.079-1.951
		c-3.85,1.286-6.226,6.011-4.975,9.852c0.806,2.474,3.071,3.975,5.435,3.603c3.061-0.483,6.18-4.608,5.857-7.847
		c-0.856,0.043-1.716,0.088-2.23,0.114c-0.714,1.22-1.168,2.269-1.872,3.109c-0.616,0.736-1.562,0.8-2.374,0.155
		c-1.239-0.986-1.272-3.384-0.104-4.803c1.109-1.348,2.029-1.334,3.669,0.088C15.974,47.938,16.833,47.191,17.791,46.358z
		 M43.011,24.67c0.025-0.105,0.051-0.21,0.075-0.316c-2.342-1.556-4.895-2.643-7.769-2.395c-3.795,0.328-7.575,0.86-11.356,1.347
		c-1.483,0.191-2.952,0.497-4.428,0.75c2.108,0.691,4.199,1.11,6.27,1.608c2.021,0.486,4.018,0.725,6.103,0.332
		c1.945-0.368,3.929-0.53,5.899-0.761C39.538,25.03,41.274,24.856,43.011,24.67z M17.853,47.761
		c0.063,0.098,0.128,0.193,0.192,0.289c3.207-0.987,6.415-1.974,9.871-3.038c-0.533-0.249-0.793-0.386-1.063-0.496
		c-3.211-1.307-6.424-2.607-9.741-3.952c-0.155,0.609-0.283,1.111-0.341,1.339c1.073,1.521,2.004,2.843,3.081,4.368
		C19.063,46.859,18.458,47.311,17.853,47.761z M54.633,40.579c1.908,1.316,3.622,2.5,5.421,3.739
		c1.204-2.303,2.308-4.415,3.413-6.527c-0.058-0.074-0.114-0.147-0.173-0.22C60.506,38.54,57.717,39.508,54.633,40.579z
		 M5.981,55.727c-1.334-3.296-0.909-6.373,1.167-9.192c2.147-2.916,4.96-4.189,8.806-3.056c-2.784-1.963-6.918-1.057-9.639,1.91
		C3.583,48.367,3.39,52.835,5.981,55.727z M14.5,50.386c-0.456-0.667-0.79-1.158-1.124-1.648c-0.466,0.368-1.218,0.664-1.334,1.122
		c-0.199,0.78-0.033,1.668,0.077,2.497c0.015,0.113,0.779,0.312,0.872,0.2C13.518,51.923,13.947,51.206,14.5,50.386z"/>
	<path fill-rule="evenodd" clip-rule="evenodd" fill="none" d="M75.719,30.6c0.046,0.625,0.069,0.945,0.099,1.347
		c-2.006,0.705-3.943,1.391-5.885,2.068c-13.044,4.556-26.086,9.115-39.138,13.652c-0.71,0.247-1.479,0.38-2.231,0.439
		c-2.585,0.209-5.176,0.362-7.815,0.343c3.153-0.978,6.305-1.956,9.589-2.975c-0.201-5.973-0.401-11.916-0.607-18.021
		c1.692-0.237,3.337-0.489,4.987-0.695c6.11-0.764,12.227-1.439,18.4-1.263c4.07,0.117,7.757,1.314,10.773,4.136
		c0.993,0.929,1.798,2.058,2.782,3.203C69.552,32.123,72.531,31.387,75.719,30.6z M55.085,27.827
		c0.02-0.151,0.038-0.302,0.057-0.453c-0.341-0.159-0.67-0.422-1.022-0.459c-1.099-0.118-2.217-0.275-3.311-0.193
		c-4.72,0.359-9.434,0.784-14.147,1.219c-1.393,0.129-2.775,0.375-4.174,0.569c-0.155,0.988,0.266,1.132,0.963,1.034
		c1.89-0.263,3.778-0.556,5.676-0.748c4.973-0.501,9.934-1.26,14.959-0.771C54.409,28.057,54.752,27.897,55.085,27.827z
		 M55.901,28.38c1.379,0.866,2.539,1.594,3.878,2.434c0.075-0.347,0.288-0.855,0.186-0.93c-0.995-0.723-2.027-1.4-3.093-2.012
		C56.729,27.79,56.334,28.145,55.901,28.38z"/>
	<path fill-rule="evenodd" clip-rule="evenodd" fill="none" d="M16.922,24.922c4.001,0.862,7.757,1.671,11.636,2.507
		c0.193,5.53,0.385,11.017,0.585,16.749c-4.038-1.634-7.928-3.21-11.857-4.801C17.165,34.565,17.046,29.845,16.922,24.922z"/>
	<path fill-rule="evenodd" clip-rule="evenodd" fill="none" d="M17.791,46.358c-0.958,0.833-1.817,1.579-2.67,2.32
		c-1.641-1.422-2.56-1.436-3.669-0.088c-1.168,1.419-1.135,3.816,0.104,4.803c0.811,0.645,1.757,0.581,2.374-0.155
		c0.704-0.841,1.157-1.89,1.872-3.109c0.514-0.026,1.374-0.071,2.23-0.114c0.323,3.238-2.796,7.363-5.857,7.847
		c-2.364,0.372-4.629-1.129-5.435-3.603c-1.251-3.841,1.125-8.565,4.975-9.852C14.129,43.6,16.019,44.534,17.791,46.358z"/>
	<path fill-rule="evenodd" clip-rule="evenodd" fill="none" d="M43.011,24.67c-1.736,0.186-3.473,0.36-5.207,0.564
		c-1.97,0.231-3.955,0.394-5.899,0.761c-2.085,0.394-4.083,0.154-6.103-0.332c-2.071-0.498-4.161-0.917-6.27-1.608
		c1.476-0.253,2.945-0.558,4.428-0.75c3.781-0.487,7.561-1.02,11.356-1.347c2.874-0.248,5.427,0.839,7.769,2.395
		C43.062,24.459,43.036,24.564,43.011,24.67z"/>
	<path fill-rule="evenodd" clip-rule="evenodd" fill="none" d="M17.853,47.761c0.605-0.45,1.21-0.901,1.999-1.49
		c-1.077-1.525-2.008-2.847-3.081-4.368c0.058-0.228,0.186-0.729,0.341-1.339c3.317,1.345,6.53,2.646,9.741,3.952
		c0.271,0.11,0.53,0.247,1.063,0.496c-3.456,1.064-6.664,2.051-9.871,3.038C17.981,47.954,17.917,47.858,17.853,47.761z"/>
	<path fill-rule="evenodd" clip-rule="evenodd" fill="none" d="M54.633,40.579c3.084-1.071,5.873-2.039,8.661-3.008
		c0.059,0.073,0.115,0.146,0.173,0.22c-1.105,2.112-2.209,4.224-3.413,6.527C58.255,43.079,56.541,41.896,54.633,40.579z"/>
	<path fill-rule="evenodd" clip-rule="evenodd" fill="none" d="M5.981,55.727c-2.591-2.892-2.399-7.359,0.333-10.338
		c2.721-2.967,6.855-3.873,9.639-1.91c-3.846-1.134-6.658,0.14-8.806,3.056C5.072,49.354,4.647,52.431,5.981,55.727z"/>
	<path fill-rule="evenodd" clip-rule="evenodd" fill="none" d="M14.5,50.386c-0.553,0.82-0.982,1.537-1.51,2.171
		c-0.093,0.111-0.856-0.087-0.872-0.2c-0.109-0.829-0.275-1.717-0.077-2.497c0.117-0.458,0.869-0.754,1.334-1.122
		C13.71,49.228,14.044,49.719,14.5,50.386z"/>
	<path fill-rule="evenodd" clip-rule="evenodd" d="M55.085,27.827c-0.333,0.07-0.676,0.23-0.999,0.199
		c-5.025-0.49-9.986,0.27-14.959,0.771c-1.897,0.191-3.786,0.484-5.676,0.748c-0.697,0.098-1.118-0.045-0.963-1.034
		c1.398-0.194,2.781-0.439,4.174-0.569c4.714-0.436,9.428-0.86,14.147-1.219c1.094-0.083,2.212,0.075,3.311,0.193
		c0.353,0.038,0.682,0.3,1.022,0.459C55.123,27.525,55.104,27.676,55.085,27.827z"/>
	<path fill-rule="evenodd" clip-rule="evenodd" d="M55.901,28.38c0.433-0.235,0.827-0.591,0.971-0.508
		c1.065,0.612,2.098,1.29,3.093,2.012c0.103,0.075-0.11,0.583-0.186,0.93C58.44,29.974,57.28,29.246,55.901,28.38z"/>
</g>
</svg>
